<?xml version="1.0" encoding="UTF-8" standalone="no"?>
<svg
   xmlns:dc="http://purl.org/dc/elements/1.1/"
   xmlns:cc="http://creativecommons.org/ns#"
   xmlns:rdf="http://www.w3.org/1999/02/22-rdf-syntax-ns#"
   xmlns:svg="http://www.w3.org/2000/svg"
   xmlns="http://www.w3.org/2000/svg"
   viewBox="0 0 146.90135 30.520019"
   height="30.52002"
   width="146.90135"
   xml:space="preserve"
   id="svg4485"
   version="1.1"><metadata
     id="metadata4491"><rdf:RDF><cc:Work
         rdf:about=""><dc:format>image/svg+xml</dc:format><dc:type
           rdf:resource="http://purl.org/dc/dcmitype/StillImage" /><dc:title></dc:title></cc:Work></rdf:RDF></metadata><defs
     id="defs4489"><clipPath
       id="clipPath4501"
       clipPathUnits="userSpaceOnUse"><path
         id="path4499"
         d="M 0.059998,841.89 H 595.276 V 0.06 H 0.059998 Z" /></clipPath><clipPath
       id="clipPath4513"
       clipPathUnits="userSpaceOnUse"><path
         id="path4511"
         d="M 0,673.228 H 383.74 V 0 H 0 Z" /></clipPath><clipPath
       id="clipPath4519"
       clipPathUnits="userSpaceOnUse"><path
         id="path4517"
         d="M 0,547.431 V 0 H 122.919 C 351.143,205.845 383.74,475.511 383.74,475.511 284.173,567.638 226.205,673.228 226.205,673.228 110.01,628.677 30.689,571.628 0,547.431" /></clipPath><linearGradient
       id="linearGradient4533"
       spreadMethod="pad"
       gradientTransform="matrix(397.913,0,0,-397.913,-14.173,-14.173)"
       gradientUnits="userSpaceOnUse"
       y2="0"
       x2="1"
       y1="0"
       x1="0"><stop
         id="stop4529"
         offset="0"
         style="stop-opacity:1;stop-color:#ef3b23" /><stop
         id="stop4531"
         offset="1"
         style="stop-opacity:1;stop-color:#8b131e" /></linearGradient><clipPath
       id="clipPath4543"
       clipPathUnits="userSpaceOnUse"><path
         id="path4541"
         d="M 0.059998,841.89 H 595.276 V 0.06 H 0.059998 Z" /></clipPath><linearGradient
       id="linearGradient4551"
       spreadMethod="pad"
       gradientTransform="matrix(-565.146,0,0,565.146,465.557,1087.44)"
       gradientUnits="userSpaceOnUse"
       y2="0"
       x2="1"
       y1="0"
       x1="0"><stop
         id="stop4547"
         offset="0"
         style="stop-opacity:1;stop-color:#ef3b23" /><stop
         id="stop4549"
         offset="1"
         style="stop-opacity:1;stop-color:#8b131e" /></linearGradient><linearGradient
       id="linearGradient4565"
       spreadMethod="pad"
       gradientTransform="matrix(-39.4459,0,0,39.4459,19.7226,841.8899)"
       gradientUnits="userSpaceOnUse"
       y2="0"
       x2="1"
       y1="0"
       x1="0"><stop
         id="stop4561"
         offset="0"
         style="stop-opacity:1;stop-color:#ef3b23" /><stop
         id="stop4563"
         offset="1"
         style="stop-opacity:1;stop-color:#8b131e" /></linearGradient><clipPath
       id="clipPath4633"
       clipPathUnits="userSpaceOnUse"><path
         id="path4631"
         d="M 0.059998,841.89 H 595.276 V 0.06 H 0.059998 Z" /></clipPath><clipPath
       id="clipPath4675"
       clipPathUnits="userSpaceOnUse"><path
         id="path4673"
         d="M 0.059998,841.89 H 595.276 V 0.06 H 0.059998 Z" /></clipPath><clipPath
       id="clipPath4703"
       clipPathUnits="userSpaceOnUse"><path
         id="path4701"
         d="M 43.584,815.254 62.535,792.409 39.783,773.536 20.832,796.38" /></clipPath><linearGradient
       id="linearGradient4717"
       spreadMethod="pad"
       gradientTransform="matrix(13.417,-16.174,-16.174,-13.417,31.357,804.358)"
       gradientUnits="userSpaceOnUse"
       y2="0"
       x2="1"
       y1="0"
       x1="0"><stop
         id="stop4713"
         offset="0"
         style="stop-opacity:1;stop-color:#ef3b23" /><stop
         id="stop4715"
         offset="1"
         style="stop-opacity:1;stop-color:#8b131e" /></linearGradient><clipPath
       id="clipPath4727"
       clipPathUnits="userSpaceOnUse"><path
         id="path4725"
         d="M 32.333,805.144 H 52.906 V 783.635 H 32.333 Z" /></clipPath><linearGradient
       id="linearGradient4741"
       spreadMethod="pad"
       gradientTransform="matrix(18.014,0,0,-18.014,31.518,794.39)"
       gradientUnits="userSpaceOnUse"
       y2="0"
       x2="1"
       y1="0"
       x1="0"><stop
         id="stop4737"
         offset="0"
         style="stop-opacity:1;stop-color:#b7212f" /><stop
         id="stop4739"
         offset="1"
         style="stop-opacity:1;stop-color:#ef3b23" /></linearGradient></defs><g
     transform="matrix(1.3333333,0,0,-1.3333333,0,30.52)"
     id="g4493"><g
       transform="translate(-30.620339,-782.97246)"
       id="g4697"><g
         clip-path="url(#clipPath4703)"
         id="g4699"><g
           id="g4705"><g
             id="g4711"><path
               id="path4719"
               style="fill:url(#linearGradient4717);stroke:none"
               d="m 41.837,805.137 c -5.788,-0.173 -10.44,-4.908 -10.44,-10.737 0,-5.941 4.815,-10.755 10.749,-10.755 1.967,0 7.308,0.824 9.824,6.377 -1.079,-0.439 -2.258,-0.682 -3.493,-0.682 -5.125,0 -9.266,3.321 -9.273,8.444 -0.005,2.633 0.791,4.751 2.01,6.313 0.247,0.318 0.654,0.763 0.932,1.047 -0.015,-10e-4 -0.294,-0.007 -0.309,-0.007" /></g></g></g></g><g
       transform="translate(-30.620339,-782.97246)"
       id="g4721"><g
         clip-path="url(#clipPath4727)"
         id="g4723"><g
           id="g4729"><g
             id="g4735"><path
               id="path4743"
               style="fill:url(#linearGradient4741);stroke:none"
               d="m 43.111,804.097 c 1.612,-2.152 1.986,-4.209 1.986,-6.322 0,-5.123 -4.152,-8.445 -9.273,-8.445 -1.235,0 -2.411,0.244 -3.491,0.682 2.564,-5.712 7.852,-6.377 9.819,-6.377 5.938,0 10.754,4.815 10.754,10.755 0,5.831 -4.653,10.566 -10.443,10.739 -0.015,0 -0.3,0.014 -0.317,0.015 0.279,-0.284 0.724,-0.722 0.965,-1.047" /></g></g></g></g><g
       transform="translate(10.415661,20.886536)"
       id="g4745"><path
         id="path4747"
         style="fill:#ffffff;fill-opacity:1;fill-rule:nonzero;stroke:none"
         d="m 0,0 c -1.128,-1.559 -1.845,-3.593 -1.835,-6.036 0.01,-2.682 1.155,-4.919 2.956,-6.397 1.79,1.478 2.975,3.672 2.94,6.349 C 4.038,-4.08 3.85,-2.206 2.122,0.175 1.847,0.555 1.366,1.047 1.115,1.284 1.086,1.284 0.44,0.61 0,0" /></g><g
       transform="translate(28.401661,10.62937)"
       id="g4749"><path
         id="path4751"
         style="fill:#0a3152;fill-opacity:1;fill-rule:nonzero;stroke:none"
         d="m 0,0 v -3.098 c 0.205,-0.02 0.424,-0.032 0.659,-0.044 0.235,-0.008 0.45,-0.014 0.647,-0.014 0.381,0 0.735,0.026 1.063,0.074 0.329,0.049 0.612,0.134 0.851,0.256 0.24,0.123 0.432,0.287 0.572,0.491 0.144,0.207 0.212,0.471 0.212,0.793 0,0.577 -0.209,0.979 -0.63,1.204 C 2.954,-0.113 2.372,0 1.629,0 Z m 0,1.452 h 1.306 c 0.705,0 1.258,0.101 1.657,0.301 0.402,0.203 0.603,0.562 0.603,1.08 0,0.487 -0.208,0.836 -0.624,1.043 C 2.524,4.081 1.986,4.182 1.32,4.182 1.036,4.182 0.783,4.177 0.566,4.167 0.344,4.159 0.155,4.144 0,4.125 Z m 1.248,-6.15 c -0.538,0 -1.084,0.018 -1.63,0.051 -0.548,0.035 -1.029,0.106 -1.438,0.213 v 9.878 c 0.213,0.04 0.444,0.077 0.688,0.112 0.245,0.032 0.495,0.06 0.75,0.08 0.253,0.019 0.507,0.035 0.755,0.044 0.249,0.008 0.487,0.014 0.711,0.014 0.617,0 1.19,-0.046 1.719,-0.138 C 3.331,5.462 3.789,5.307 4.175,5.092 4.562,4.878 4.862,4.594 5.076,4.241 5.294,3.89 5.399,3.454 5.399,2.936 5.399,2.457 5.286,2.044 5.057,1.701 4.825,1.36 4.503,1.086 4.094,0.88 4.712,0.675 5.166,0.372 5.458,-0.03 5.753,-0.431 5.9,-0.939 5.9,-1.556 5.9,-2.604 5.519,-3.389 4.756,-3.913 3.992,-4.436 2.822,-4.698 1.248,-4.698" /></g><g
       transform="translate(37.882661,7.2973702)"
       id="g4753"><path
         id="path4755"
         style="fill:#0a3152;fill-opacity:1;fill-rule:nonzero;stroke:none"
         d="M 0,0 C 0.549,0 0.966,0.029 1.248,0.087 V 2.055 C 1.152,2.084 1.009,2.115 0.822,2.143 0.637,2.173 0.432,2.187 0.207,2.187 0.011,2.187 -0.187,2.173 -0.386,2.143 -0.589,2.115 -0.768,2.059 -0.932,1.98 -1.092,1.905 -1.222,1.793 -1.32,1.652 -1.416,1.51 -1.465,1.331 -1.465,1.115 -1.465,0.694 -1.336,0.404 -1.07,0.242 -0.804,0.083 -0.449,0 0,0 M -0.145,6.62 C 0.441,6.62 0.935,6.546 1.337,6.399 1.738,6.254 2.057,6.047 2.298,5.783 2.539,5.519 2.708,5.198 2.811,4.821 2.914,4.445 2.966,4.031 2.966,3.581 V -1.072 C 2.691,-1.131 2.278,-1.201 1.726,-1.286 1.171,-1.367 0.549,-1.409 -0.145,-1.409 c -0.461,0 -0.881,0.043 -1.263,0.133 -0.381,0.086 -0.706,0.228 -0.975,0.424 -0.271,0.197 -0.48,0.449 -0.633,0.764 -0.152,0.314 -0.226,0.699 -0.226,1.161 0,0.439 0.084,0.811 0.257,1.114 0.171,0.303 0.402,0.551 0.698,0.741 0.292,0.191 0.632,0.327 1.018,0.412 0.388,0.082 0.791,0.125 1.211,0.125 0.195,0 0.401,-0.013 0.617,-0.038 C 0.774,3.403 1.003,3.362 1.248,3.303 V 3.596 C 1.248,3.801 1.223,3.997 1.177,4.184 1.126,4.368 1.041,4.532 0.92,4.675 0.796,4.817 0.635,4.927 0.435,5.006 0.234,5.082 -0.019,5.123 -0.324,5.123 -0.734,5.123 -1.111,5.092 -1.451,5.034 -1.795,4.975 -2.073,4.908 -2.287,4.829 l -0.222,1.44 c 0.225,0.076 0.552,0.155 0.981,0.234 0.433,0.077 0.894,0.117 1.383,0.117" /></g><g
       transform="translate(42.067661,13.47737)"
       id="g4757"><path
         id="path4759"
         style="fill:#0a3152;fill-opacity:1;fill-rule:nonzero;stroke:none"
         d="M 0,0 C 0.341,0.098 0.785,0.19 1.333,0.279 1.883,0.366 2.488,0.41 3.154,0.41 3.78,0.41 4.302,0.326 4.724,0.154 5.146,-0.017 5.479,-0.258 5.731,-0.564 5.982,-0.875 6.156,-1.246 6.257,-1.682 6.362,-2.117 6.414,-2.594 6.414,-3.113 V -7.428 H 4.637 v 4.037 c 0,0.41 -0.026,0.762 -0.082,1.049 -0.054,0.289 -0.141,0.524 -0.264,0.705 -0.122,0.179 -0.286,0.313 -0.498,0.396 -0.212,0.083 -0.468,0.126 -0.772,0.126 -0.225,0 -0.46,-0.015 -0.703,-0.045 C 2.072,-1.19 1.891,-1.213 1.775,-1.233 V -7.428 H 0" /></g><g
       transform="translate(51.093661,9.9093702)"
       id="g4761"><path
         id="path4763"
         style="fill:#0a3152;fill-opacity:1;fill-rule:nonzero;stroke:none"
         d="m 0,0 c 0,-0.783 0.185,-1.396 0.557,-1.841 0.372,-0.446 0.885,-0.669 1.541,-0.669 0.284,0 0.527,0.012 0.727,0.037 0.202,0.025 0.365,0.051 0.492,0.082 V 2.013 C 3.16,2.119 2.951,2.219 2.692,2.312 2.434,2.404 2.158,2.453 1.863,2.453 1.218,2.453 0.746,2.231 0.446,1.791 0.148,1.35 0,0.754 0,0 M 5.093,-3.624 C 4.739,-3.734 4.298,-3.83 3.766,-3.918 3.231,-4.007 2.671,-4.05 2.084,-4.05 c -0.607,0 -1.149,0.092 -1.629,0.278 -0.481,0.185 -0.888,0.453 -1.226,0.8 -0.337,0.346 -0.597,0.767 -0.777,1.262 -0.182,0.494 -0.274,1.05 -0.274,1.666 0,0.607 0.076,1.158 0.229,1.652 0.151,0.493 0.374,0.917 0.667,1.269 0.293,0.352 0.651,0.624 1.073,0.816 0.42,0.19 0.905,0.285 1.454,0.285 0.371,0 0.697,-0.045 0.98,-0.131 C 2.868,3.758 3.112,3.661 3.317,3.553 V 7.237 L 5.093,7.53" /></g><g
       transform="translate(57.491661,6.0493702)"
       id="g4765"><path
         id="path4767"
         style="fill:#0a3152;fill-opacity:1;fill-rule:nonzero;stroke:none"
         d="m 0,0 v 11.097 l 1.777,0.294 V 7.588 C 1.972,7.658 2.201,7.717 2.46,7.765 2.72,7.813 2.974,7.839 3.23,7.839 3.846,7.839 4.359,7.754 4.765,7.583 5.17,7.411 5.497,7.171 5.738,6.864 5.984,6.554 6.16,6.184 6.262,5.755 6.364,5.324 6.417,4.844 6.417,4.315 V 0 H 4.641 v 4.037 c 0,0.41 -0.03,0.762 -0.081,1.049 C 4.505,5.375 4.418,5.61 4.293,5.791 4.173,5.97 4.007,6.104 3.802,6.187 3.597,6.27 3.342,6.313 3.04,6.313 2.804,6.313 2.564,6.287 2.32,6.238 2.077,6.19 1.894,6.146 1.777,6.107 V 0" /></g><g
       transform="translate(67.783661,7.2973702)"
       id="g4769"><path
         id="path4771"
         style="fill:#0a3152;fill-opacity:1;fill-rule:nonzero;stroke:none"
         d="M 0,0 C 0.546,0 0.962,0.029 1.246,0.087 V 2.055 C 1.149,2.084 1.006,2.115 0.818,2.143 0.635,2.173 0.43,2.187 0.205,2.187 0.009,2.187 -0.189,2.173 -0.39,2.143 -0.591,2.115 -0.772,2.059 -0.933,1.98 -1.094,1.905 -1.223,1.793 -1.323,1.652 -1.421,1.51 -1.468,1.331 -1.468,1.115 -1.468,0.694 -1.337,0.404 -1.074,0.242 -0.807,0.083 -0.452,0 0,0 M -0.149,6.62 C 0.44,6.62 0.931,6.546 1.332,6.399 1.736,6.254 2.055,6.047 2.296,5.783 2.536,5.519 2.705,5.198 2.811,4.821 2.914,4.445 2.963,4.031 2.963,3.581 V -1.072 C 2.69,-1.131 2.275,-1.201 1.724,-1.286 1.171,-1.367 0.546,-1.409 -0.149,-1.409 c -0.46,0 -0.88,0.043 -1.262,0.133 -0.38,0.086 -0.707,0.228 -0.977,0.424 -0.268,0.197 -0.48,0.449 -0.629,0.764 -0.153,0.314 -0.229,0.699 -0.229,1.161 0,0.439 0.086,0.811 0.258,1.114 0.171,0.303 0.403,0.551 0.697,0.741 0.295,0.191 0.634,0.327 1.022,0.412 0.386,0.082 0.789,0.125 1.209,0.125 0.196,0 0.401,-0.013 0.616,-0.038 C 0.771,3.403 1,3.362 1.246,3.303 V 3.596 C 1.246,3.801 1.221,3.997 1.173,4.184 1.122,4.368 1.04,4.532 0.914,4.675 0.793,4.817 0.633,4.927 0.432,5.006 0.231,5.082 -0.021,5.123 -0.324,5.123 -0.736,5.123 -1.113,5.092 -1.455,5.034 -1.796,4.975 -2.075,4.908 -2.291,4.829 l -0.22,1.44 c 0.224,0.076 0.551,0.155 0.983,0.234 0.431,0.077 0.891,0.117 1.379,0.117" /></g><g
       transform="translate(71.963661,13.47737)"
       id="g4773"><path
         id="path4775"
         style="fill:#0a3152;fill-opacity:1;fill-rule:nonzero;stroke:none"
         d="m 0,0 c 0.344,0.098 0.788,0.19 1.337,0.279 0.548,0.087 1.154,0.131 1.82,0.131 0.626,0 1.151,-0.084 1.57,-0.256 0.42,-0.171 0.756,-0.412 1.008,-0.718 0.248,-0.311 0.423,-0.682 0.528,-1.118 0.102,-0.435 0.152,-0.912 0.152,-1.431 V -7.428 H 4.639 v 4.037 c 0,0.41 -0.026,0.762 -0.08,1.049 -0.055,0.289 -0.142,0.524 -0.264,0.705 -0.122,0.179 -0.288,0.313 -0.5,0.396 C 3.586,-1.158 3.328,-1.115 3.027,-1.115 2.801,-1.115 2.563,-1.13 2.321,-1.16 2.076,-1.19 1.895,-1.213 1.777,-1.233 V -7.428 H 0" /></g><g
       transform="translate(83.252661,10.93737)"
       id="g4777"><path
         id="path4779"
         style="fill:#0a3152;fill-opacity:1;fill-rule:nonzero;stroke:none"
         d="m 0,0 v -4.021 c 0.146,-0.022 0.366,-0.044 0.66,-0.067 0.295,-0.024 0.592,-0.038 0.895,-0.038 0.45,0 0.889,0.032 1.315,0.089 0.424,0.06 0.8,0.168 1.122,0.325 0.325,0.157 0.583,0.373 0.777,0.649 0.194,0.274 0.294,0.628 0.294,1.06 0,0.392 -0.068,0.719 -0.204,0.98 C 4.722,-0.764 4.525,-0.556 4.272,-0.405 4.016,-0.253 3.708,-0.147 3.34,-0.089 2.973,-0.03 2.564,0 2.114,0 Z m 0,0.851 h 1.938 c 0.36,0 0.704,0.026 1.026,0.08 C 3.288,0.985 3.568,1.082 3.809,1.224 4.05,1.365 4.238,1.555 4.375,1.794 4.511,2.033 4.58,2.338 4.58,2.708 4.58,3.039 4.506,3.319 4.358,3.55 4.213,3.777 4.004,3.966 3.735,4.113 3.467,4.258 3.146,4.363 2.773,4.425 2.402,4.488 1.991,4.522 1.541,4.522 1.18,4.522 0.872,4.511 0.623,4.491 0.373,4.472 0.164,4.448 0,4.419 Z m 1.438,-5.827 c -0.165,0 -0.357,0.007 -0.58,0.021 -0.221,0.016 -0.445,0.036 -0.673,0.06 -0.233,0.025 -0.451,0.054 -0.655,0.088 -0.203,0.035 -0.382,0.07 -0.527,0.111 v 9.79 c 0.176,0.048 0.371,0.09 0.587,0.124 0.213,0.035 0.437,0.062 0.669,0.089 0.229,0.023 0.453,0.04 0.673,0.051 0.219,0.01 0.422,0.014 0.609,0.014 0.548,0 1.068,-0.044 1.564,-0.131 C 3.599,5.153 4.031,5.006 4.405,4.802 4.775,4.596 5.071,4.325 5.294,3.987 5.511,3.65 5.62,3.232 5.62,2.734 5.62,2.187 5.482,1.72 5.204,1.334 4.923,0.951 4.549,0.682 4.081,0.534 4.375,0.467 4.643,0.369 4.889,0.241 5.132,0.115 5.347,-0.049 5.534,-0.251 5.72,-0.451 5.865,-0.695 5.967,-0.985 6.07,-1.274 6.119,-1.619 6.119,-2.022 6.119,-2.982 5.738,-3.713 4.977,-4.22 4.213,-4.724 3.033,-4.976 1.438,-4.976" /></g><g
       transform="translate(92.880661,6.7393702)"
       id="g4781"><path
         id="path4783"
         style="fill:#0a3152;fill-opacity:1;fill-rule:nonzero;stroke:none"
         d="M 0,0 C 0.374,0 0.7,0.012 0.977,0.036 1.256,0.059 1.493,0.094 1.689,0.132 V 2.803 C 1.583,2.851 1.41,2.904 1.176,2.957 0.941,3.011 0.616,3.037 0.207,3.037 -0.028,3.037 -0.275,3.022 -0.528,2.986 -0.782,2.953 -1.017,2.878 -1.232,2.767 -1.446,2.654 -1.623,2.501 -1.759,2.305 -1.898,2.109 -1.967,1.848 -1.967,1.526 -1.967,1.242 -1.92,1.002 -1.826,0.808 -1.733,0.611 -1.6,0.454 -1.43,0.335 -1.259,0.219 -1.054,0.133 -0.813,0.082 -0.575,0.027 -0.302,0 0,0 m -0.088,7.074 c 0.499,0 0.923,-0.07 1.271,-0.211 C 1.53,6.72 1.811,6.524 2.027,6.275 2.242,6.027 2.399,5.73 2.495,5.386 2.595,5.044 2.641,4.673 2.641,4.271 V -0.514 C 2.545,-0.544 2.404,-0.574 2.218,-0.609 2.032,-0.643 1.817,-0.681 1.571,-0.718 1.326,-0.759 1.055,-0.79 0.758,-0.815 c -0.3,-0.024 -0.604,-0.037 -0.919,-0.037 -0.401,0 -0.771,0.044 -1.109,0.134 -0.337,0.086 -0.631,0.226 -0.879,0.416 -0.249,0.192 -0.447,0.435 -0.587,0.734 -0.142,0.3 -0.214,0.663 -0.214,1.094 0,0.411 0.08,0.763 0.237,1.057 0.153,0.295 0.375,0.537 0.66,0.727 0.284,0.191 0.622,0.332 1.012,0.419 0.39,0.086 0.816,0.131 1.276,0.131 0.139,0 0.281,-0.006 0.434,-0.021 C 0.82,3.823 0.967,3.804 1.108,3.78 1.252,3.754 1.372,3.731 1.477,3.706 1.579,3.683 1.65,3.66 1.689,3.642 V 4.11 C 1.689,4.374 1.67,4.631 1.63,4.88 1.593,5.129 1.506,5.354 1.372,5.556 1.242,5.756 1.055,5.918 0.817,6.041 0.575,6.162 0.259,6.222 -0.13,6.222 -0.689,6.222 -1.105,6.185 -1.38,6.107 -1.653,6.027 -1.854,5.964 -1.98,5.914 l -0.134,0.838 c 0.168,0.079 0.425,0.15 0.771,0.22 0.348,0.067 0.767,0.102 1.255,0.102" /></g><g
       transform="translate(97.005661,13.37337)"
       id="g4785"><path
         id="path4787"
         style="fill:#0a3152;fill-opacity:1;fill-rule:nonzero;stroke:none"
         d="m 0,0 c 0.285,0.078 0.668,0.167 1.146,0.264 0.479,0.098 1.066,0.147 1.762,0.147 0.576,0 1.058,-0.083 1.444,-0.25 0.387,-0.166 0.695,-0.402 0.926,-0.711 0.228,-0.309 0.394,-0.677 0.489,-1.108 0.099,-0.431 0.15,-0.906 0.15,-1.424 V -7.324 H 4.962 v 3.934 c 0,0.538 -0.037,0.994 -0.11,1.364 -0.074,0.371 -0.197,0.677 -0.368,0.911 -0.17,0.234 -0.396,0.403 -0.675,0.508 -0.279,0.1 -0.629,0.154 -1.049,0.154 -0.45,0 -0.839,-0.025 -1.166,-0.074 C 1.267,-0.576 1.053,-0.62 0.954,-0.661 V -7.324 H 0" /></g><g
       transform="translate(106.30966,10.18137)"
       id="g4789"><path
         id="path4791"
         style="fill:#0a3152;fill-opacity:1;fill-rule:nonzero;stroke:none"
         d="M 0,0 C 0.346,-0.243 0.696,-0.526 1.05,-0.843 1.402,-1.162 1.749,-1.509 2.09,-1.879 2.434,-2.254 2.755,-2.633 3.059,-3.025 3.361,-3.419 3.62,-3.787 3.833,-4.132 H 2.686 c -0.229,0.386 -0.497,0.763 -0.8,1.135 -0.302,0.37 -0.622,0.722 -0.955,1.049 -0.331,0.327 -0.663,0.626 -0.999,0.895 -0.333,0.27 -0.629,0.474 -0.886,0.609 V -4.132 H -1.905 V 7.083 l 0.951,0.176 v -7.07 c 0.206,0.175 0.458,0.414 0.764,0.716 0.307,0.301 0.615,0.606 0.929,0.91 0.32,0.305 0.616,0.602 0.898,0.888 0.28,0.286 0.517,0.536 0.706,0.753 H 3.509 C 3.287,3.222 3.028,2.961 2.737,2.674 2.445,2.388 2.142,2.089 1.827,1.778 1.512,1.468 1.201,1.162 0.895,0.862 0.589,0.559 0.292,0.272 0,0" /></g></g></svg>