<?xml version="1.0" encoding="UTF-8" standalone="no"?>
<!-- Generator: Adobe Illustrator 15.0.0, SVG Export Plug-In  -->

<svg
   xmlns:dc="http://purl.org/dc/elements/1.1/"
   xmlns:cc="http://creativecommons.org/ns#"
   xmlns:rdf="http://www.w3.org/1999/02/22-rdf-syntax-ns#"
   xmlns:svg="http://www.w3.org/2000/svg"
   xmlns="http://www.w3.org/2000/svg"
   xmlns:sodipodi="http://sodipodi.sourceforge.net/DTD/sodipodi-0.dtd"
   xmlns:inkscape="http://www.inkscape.org/namespaces/inkscape"
   version="1.1"
   x="0px"
   y="0px"
   width="328"
   height="64.68"
   viewBox="-8.468 -6.737 328 64.68"
   enable-background="new -8.468 -6.737 300 64"
   xml:space="preserve"
   id="svg2"
   inkscape:version="0.47 r22583"
   sodipodi:docname="Canara_Bank_Logo.svg"><metadata
   id="metadata100"><rdf:RDF><cc:Work
       rdf:about=""><dc:format>image/svg+xml</dc:format><dc:type
         rdf:resource="http://purl.org/dc/dcmitype/StillImage" /></cc:Work></rdf:RDF></metadata><sodipodi:namedview
   pagecolor="#ffffff"
   bordercolor="#666666"
   borderopacity="1"
   objecttolerance="10"
   gridtolerance="10"
   guidetolerance="10"
   inkscape:pageopacity="0"
   inkscape:pageshadow="2"
   inkscape:window-width="1440"
   inkscape:window-height="844"
   id="namedview98"
   showgrid="false"
   inkscape:zoom="2"
   inkscape:cx="99.218787"
   inkscape:cy="25.414322"
   inkscape:window-x="-4"
   inkscape:window-y="-4"
   inkscape:window-maximized="1"
   inkscape:current-layer="svg2" />
<defs
   id="defs4" />
<path
   id="path2890_1_"
   d="m 120.88768,55.495659 8.88694,-11.733059 -6.68067,-0.917595 -3.75809,4.529497 c -0.81751,0.986188 -2.18153,0.393575 -2.89222,-0.11245 L 97.188783,33.527377 c -0.728678,-0.51952 -0.113575,-1.431492 0.642091,-1.556312 l 19.293096,-3.175594 2.30522,-3.926763 -30.123169,4.959056 c -1.122254,0.18217 -1.975752,1.464103 -0.951331,2.304106 l 28.252,23.195114 c 0.99857,0.819762 3.13849,1.682255 4.28099,0.168675"
   style="fill:#ffb600" />
<path
   id="path2892_1_"
   d="m 139.67811,-2.723214 23.18274,42.239691 c 2.36483,4.305721 -0.0113,8.790237 -4.06507,8.232484 l -26.87336,-3.690618 2.66507,-4.547488 19.39317,2.505392 c 2.01623,0.276627 1.80483,-1.108759 0.95471,-2.661698 L 138.5806,5.2573806 C 138.23537,4.6299081 137.06814,4.3026779 136.67231,4.9807529 L 118.56782,35.821362 c -0.53638,0.914221 -0.68594,1.522577 0.47904,1.682256 l 7.65786,0.989562 -3.6119,4.351825 -9.72245,-1.335908 c -1.81269,-0.249641 -2.60547,-1.881293 -1.53157,-3.710859 l 23.32106,-39.7298023 c 1.04916,-1.78571 3.05302,-3.4589698 4.51825,-0.7916497"
   style="fill:#019eec" />
<path
   id="path2894_1_"
   d="m 133.13688,39.324188 1.88017,-2.484026 8.2932,-10.948157 c 1.84531,-2.434548 1.45849,-5.192952 -1.04803,-4.78251 l -14.62753,2.408685 -1.86443,3.854795 7.84453,-1.292054 c 1.69125,-0.277752 2.02636,1.642899 0.70731,3.232945 l -5.31552,6.405166 -2.30298,2.774148 -6.36019,7.665735 5.23231,3.145233 7.56116,-9.97996"
   style="fill:#ffb500" />
<path
   d="m 182.18206,26.904057 h -0.63534 c -0.44419,-1.349402 -0.82764,-2.422178 -1.15487,-3.218326 -0.32723,-0.796148 -0.64996,-1.405628 -0.96819,-1.827317 -0.316,-0.421688 -0.66909,-0.698316 -1.05366,-0.829883 -0.38684,-0.130441 -0.858,-0.196787 -1.41576,-0.196787 -0.75116,0 -1.42924,0.154057 -2.03647,0.464419 -0.60611,0.309239 -1.12675,0.83438 -1.55969,1.574304 -0.43292,0.741047 -0.76578,1.724986 -0.99743,2.951819 -0.23052,1.226832 -0.34747,2.750533 -0.34747,4.567729 0,1.837437 0.1057,3.364511 0.31823,4.582348 0.21141,1.218961 0.53527,2.197278 0.96708,2.937201 0.43406,0.741047 0.97157,1.265065 1.61703,1.574303 0.64434,0.309238 1.41013,0.463295 2.29624,0.463295 0.59598,0 1.1065,-0.116948 1.53044,-0.351969 0.42394,-0.233897 0.80402,-0.618476 1.14138,-1.15149 0.33622,-0.535263 0.64434,-1.241451 0.92321,-2.123061 0.27888,-0.88161 0.58249,-1.976876 0.91085,-3.28917 h 0.63422 v 6.352314 c -0.80852,0.412693 -1.65077,0.712935 -2.52676,0.900727 -0.87599,0.186668 -1.74747,0.281126 -2.61334,0.281126 -1.23358,0 -2.38283,-0.239519 -3.4511,-0.717433 -1.0694,-0.477913 -1.99712,-1.157113 -2.78764,-2.038723 -0.79053,-0.88161 -1.41125,-1.948763 -1.86218,-3.205957 -0.45317,-1.254945 -0.6792,-2.660573 -0.6792,-4.216884 0,-1.555188 0.22603,-2.960816 0.6792,-4.216884 0.45093,-1.25607 1.07278,-2.323223 1.86218,-3.204833 0.7894,-0.880486 1.71711,-1.560809 2.78764,-2.038723 1.06827,-0.477914 2.21864,-0.717433 3.4511,-0.717433 0.98281,0 1.87792,0.09896 2.68643,0.295744 0.80852,0.196789 1.56981,0.454299 2.28162,0.773658 v 5.625886 z"
   id="path9"
   style="fill:#019eec;stroke:#019eec;stroke-opacity:1;stroke-width:0.23;stroke-miterlimit:4;stroke-dasharray:none" />
<path
   d="m 186.19428,30.952266 v -4.554235 c 0.69607,-0.299118 1.37527,-0.543135 2.03648,-0.730926 0.66008,-0.187793 1.34716,-0.281126 2.06234,-0.281126 0.83887,0 1.56305,0.107952 2.17029,0.323857 0.60723,0.215904 1.111,0.492532 1.51358,0.828758 0.40256,0.336226 0.69719,0.721931 0.88385,1.152615 0.1878,0.431809 0.28113,0.862494 0.28113,1.292053 v 10.515224 h 1.28643 v 0.618477 h -3.64226 v -2.473906 h -0.054 c -0.3216,0.88161 -0.84,1.588922 -1.55406,2.123061 -0.71519,0.534138 -1.55407,0.80177 -2.51776,0.80177 -1.21446,0 -2.19616,-0.342973 -2.9462,-1.026671 -0.75004,-0.683697 -1.12563,-1.644023 -1.12563,-2.8821 0,-0.82426 0.13832,-1.484343 0.41494,-1.982498 0.27664,-0.495905 0.64772,-0.889481 1.11214,-1.180727 0.46329,-0.290123 0.98619,-0.506027 1.56755,-0.64659 0.58025,-0.140562 1.17399,-0.266507 1.78121,-0.378957 0.60724,-0.113575 1.19985,-0.239519 1.78122,-0.380082 0.58024,-0.140563 1.09414,-0.351969 1.54057,-0.633095 v -2.950695 c 0,-0.899601 -0.21141,-1.540568 -0.62973,-1.925148 -0.42055,-0.38458 -0.98731,-0.57687 -1.70249,-0.57687 -0.46442,0 -0.85687,0.07422 -1.17848,0.2249 -0.32161,0.150684 -0.61173,0.408195 -0.87037,0.773658 -0.25863,0.364339 -0.51276,0.870366 -0.76354,1.518079 -0.25076,0.647713 -0.53638,1.457355 -0.85799,2.431174 h -0.58924 z m 6.59071,1.238077 c -0.75004,0.37446 -1.46072,0.628598 -2.13093,0.75904 -0.66908,0.131567 -1.25382,0.304741 -1.75423,0.520644 -0.50039,0.21478 -0.89847,0.547633 -1.19309,0.997435 -0.29462,0.4498 -0.44193,1.181851 -0.44193,2.192779 0,1.068277 0.18217,1.818321 0.54875,2.249006 0.36547,0.431809 0.90636,0.646588 1.62041,0.646588 1.01656,-0.03711 1.82957,-0.529641 2.4368,-1.476472 0.60723,-0.946831 0.91197,-2.197277 0.91197,-3.753589 v -2.135431 z"
   id="path11"
   style="fill:#019eec;stroke:#019eec;stroke-opacity:1;stroke-width:0.23;stroke-miterlimit:4;stroke-dasharray:none" />
<path
   d="m 198.11514,25.835779 h 3.75021 v 1.911655 h 0.054 c 0.32048,-0.59936 0.7939,-1.143619 1.42024,-1.630529 0.62523,-0.486909 1.41013,-0.730926 2.35696,-0.730926 0.53639,0 1.02217,0.07084 1.46073,0.211407 0.43744,0.140562 0.81751,0.374459 1.138,0.702813 0.3216,0.32723 0.57237,0.754542 0.75004,1.278559 0.17879,0.525143 0.26763,1.171732 0.26763,1.940892 v 9.979961 h 1.44723 v 0.618476 h -5.51905 v -0.618476 h 1.55406 V 29.182299 c 0,-1.050285 -0.15631,-1.775589 -0.46892,-2.179286 -0.31148,-0.402571 -0.7804,-0.604982 -1.40562,-0.604982 -0.37559,0 -0.73206,0.08434 -1.07166,0.254137 -0.3396,0.167552 -0.63872,0.430685 -0.89735,0.786028 -0.25864,0.356467 -0.46892,0.80177 -0.62973,1.335909 -0.16192,0.535263 -0.24176,1.167233 -0.24176,1.898161 v 8.828469 h 1.55406 v 0.618476 h -5.51793 v -0.618476 h 1.44611 V 26.454256 h -1.44611 v -0.618477 z"
   id="path13"
   style="fill:#019eec;stroke:#019eec;stroke-opacity:1;stroke-width:0.23;stroke-miterlimit:4;stroke-dasharray:none" />
<path
   d="m 214.48339,30.952266 v -4.554235 c 0.69607,-0.299118 1.37527,-0.543135 2.03648,-0.730926 0.66008,-0.187793 1.34716,-0.281126 2.06233,-0.281126 0.83888,0 1.56306,0.107952 2.1703,0.323857 0.60723,0.215904 1.11101,0.492532 1.51358,0.828758 0.40256,0.336226 0.69719,0.721931 0.88385,1.152615 0.1878,0.431809 0.28113,0.862494 0.28113,1.292053 v 10.515224 h 1.28643 v 0.618477 h -3.64227 v -2.473906 h -0.054 c -0.32161,0.88161 -0.84001,1.588922 -1.55407,2.123061 -0.71518,0.534138 -1.55406,0.80177 -2.51776,0.80177 -1.21446,0 -2.19616,-0.342973 -2.9462,-1.026671 -0.75004,-0.683697 -1.12563,-1.644023 -1.12563,-2.8821 0,-0.82426 0.13832,-1.484343 0.41494,-1.982498 0.27664,-0.495905 0.64772,-0.889481 1.11214,-1.180727 0.46329,-0.290123 0.98619,-0.506027 1.56756,-0.64659 0.58023,-0.140562 1.17398,-0.266507 1.78121,-0.378957 0.60723,-0.113575 1.19984,-0.239519 1.78121,-0.380082 0.58024,-0.140563 1.09414,-0.351969 1.54056,-0.633095 v -2.950695 c 0,-0.899601 -0.2114,-1.540568 -0.62971,-1.925148 -0.42056,-0.38458 -0.98732,-0.57687 -1.7025,-0.57687 -0.46442,0 -0.85687,0.07422 -1.17848,0.2249 -0.32161,0.150684 -0.61173,0.408195 -0.87037,0.773658 -0.25863,0.364339 -0.51276,0.870366 -0.76353,1.518079 -0.25077,0.647713 -0.53639,1.457355 -0.85799,2.431174 h -0.58925 z m 6.58959,1.238077 c -0.75004,0.37446 -1.46073,0.628598 -2.13093,0.75904 -0.66908,0.131567 -1.25382,0.304741 -1.75423,0.520644 -0.5004,0.21478 -0.89848,0.547633 -1.19309,0.997435 -0.29462,0.4498 -0.44193,1.181851 -0.44193,2.192779 0,1.068277 0.18217,1.818321 0.54876,2.249006 0.36546,0.431809 0.90634,0.646588 1.6204,0.646588 1.01655,-0.03711 1.82957,-0.529641 2.4368,-1.476472 0.60723,-0.946831 0.91197,-2.197277 0.91197,-3.753589 v -2.135431 z"
   id="path15"
   style="fill:#019eec;stroke:#019eec;stroke-opacity:1;stroke-width:0.23;stroke-miterlimit:4;stroke-dasharray:none" />
<path
   d="m 228.06401,26.454256 h -1.44611 v -0.618477 h 3.91102 v 2.081455 h 0.054 c 0.28562,-0.824261 0.68257,-1.452857 1.19309,-1.883542 0.50828,-0.430684 1.19197,-0.646589 2.04885,-0.646589 0.3396,0 0.68257,0.06072 1.03116,0.183294 0.3486,0.122571 0.62073,0.229399 0.81752,0.323857 v 5.510063 h -0.58924 l -0.93671,-2.895594 c -0.25076,-0.748919 -0.46555,-1.288681 -0.64321,-1.617036 -0.1788,-0.32723 -0.42844,-0.492531 -0.75005,-0.492531 -0.26763,0 -0.53639,0.121445 -0.80402,0.365462 -0.26763,0.244018 -0.49928,0.576871 -0.69606,0.998559 -0.1968,0.421689 -0.35759,0.909723 -0.48242,1.461853 -0.12482,0.553256 -0.18778,1.148118 -0.18778,1.785711 v 8.489994 h 1.76771 v 0.618476 h -5.73272 v -0.618476 h 1.44611 V 26.454256 z"
   id="path17"
   style="fill:#019eec;stroke:#019eec;stroke-opacity:1;stroke-width:0.23;stroke-miterlimit:4;stroke-dasharray:none" />
<path
   d="m 239.2888,30.952266 v -4.554235 c 0.69606,-0.299118 1.37526,-0.543135 2.03647,-0.730926 0.66009,-0.187793 1.34715,-0.281126 2.06234,-0.281126 0.83888,0 1.56306,0.107952 2.17029,0.323857 0.60722,0.215904 1.111,0.492532 1.51358,0.828758 0.40257,0.336226 0.69719,0.721931 0.88386,1.152615 0.18779,0.431809 0.28112,0.862494 0.28112,1.292053 v 10.515224 h 1.28644 v 0.618477 h -3.64227 v -2.473906 h -0.054 c -0.3216,0.88161 -0.83999,1.588922 -1.55406,2.123061 -0.71519,0.534138 -1.55406,0.80177 -2.51776,0.80177 -1.21446,0 -2.19615,-0.342973 -2.94619,-1.026671 -0.75005,-0.683697 -1.12563,-1.644023 -1.12563,-2.8821 0,-0.82426 0.13831,-1.484343 0.41494,-1.982498 0.27663,-0.495905 0.64771,-0.889481 1.11213,-1.180727 0.4633,-0.290123 0.98619,-0.506027 1.56755,-0.64659 0.58025,-0.140562 1.17398,-0.266507 1.78122,-0.378957 0.60723,-0.113575 1.19985,-0.239519 1.78121,-0.380082 0.58025,-0.140563 1.09414,-0.351969 1.54057,-0.633095 v -2.950695 c 0,-0.899601 -0.2114,-1.540568 -0.62972,-1.925148 -0.42056,-0.38458 -0.98732,-0.57687 -1.7025,-0.57687 -0.46442,0 -0.85687,0.07422 -1.17847,0.2249 -0.32162,0.150684 -0.61174,0.408195 -0.87037,0.773658 -0.25864,0.364339 -0.51278,0.870366 -0.76354,1.518079 -0.25076,0.647713 -0.53639,1.457355 -0.858,2.431174 h -0.58923 z m 6.58958,1.238077 c -0.75005,0.37446 -1.46073,0.628598 -2.13094,0.75904 -0.66907,0.131567 -1.25381,0.304741 -1.75421,0.520644 -0.50041,0.21478 -0.89848,0.547633 -1.19311,0.997435 -0.29461,0.4498 -0.44193,1.181851 -0.44193,2.192779 0,1.068277 0.18218,1.818321 0.54876,2.249006 0.36547,0.431809 0.90636,0.646588 1.62041,0.646588 1.01656,-0.03711 1.82957,-0.529641 2.4368,-1.476472 0.60723,-0.946831 0.91197,-2.197277 0.91197,-3.753589 v -2.135431 z"
   id="path19"
   style="fill:#019eec;stroke:#019eec;stroke-opacity:1;stroke-width:0.23;stroke-miterlimit:4;stroke-dasharray:none" />
<path
   d="m 260.53178,21.281545 h -1.60692 v -0.618477 h 7.66124 c 0.85799,0 1.63389,0.11245 2.33109,0.337351 0.69607,0.2249 1.28643,0.534138 1.76772,0.927714 0.48241,0.393576 0.85686,0.862494 1.1245,1.405629 0.26763,0.543135 0.40145,1.133498 0.40145,1.771091 0,0.730926 -0.12932,1.368519 -0.38908,1.911655 -0.25863,0.544259 -0.60161,0.998558 -1.03117,1.364021 -0.42843,0.365463 -0.91085,0.656709 -1.44611,0.871489 -0.53526,0.214781 -1.08065,0.369962 -1.6339,0.463295 v 0.05622 c 1.89254,0.187791 3.33977,0.712934 4.33945,1.574303 0.99969,0.862494 1.50009,1.939767 1.50009,3.232945 0,0.787152 -0.16193,1.518079 -0.48241,2.19278 -0.32161,0.674702 -0.81302,1.260567 -1.47422,1.757598 -0.66121,0.497029 -1.49559,0.884983 -2.50539,1.166109 -1.00981,0.281125 -2.20966,0.421689 -3.60291,0.421689 h -6.5626 V 39.49848 h 1.60691 V 21.281545 z m 2.89334,8.322443 h 1.52595 c 1.35727,0 2.39857,-0.323857 3.12049,-0.970446 0.72418,-0.645464 1.08515,-1.757597 1.08515,-3.330777 0,-1.424744 -0.28112,-2.450291 -0.84338,-3.078887 -0.56337,-0.627473 -1.37189,-0.941209 -2.42442,-0.941209 h -2.46379 v 8.321319 z m 0,9.895623 h 1.25832 c 1.91053,0 3.31278,-0.360966 4.20564,-1.082896 0.89285,-0.721931 1.33928,-1.982498 1.33928,-3.780578 0,-1.612537 -0.35759,-2.749409 -1.07165,-3.415115 -0.71406,-0.665705 -1.83069,-0.998558 -3.34877,-0.998558 h -2.38395 v 9.277147 z"
   id="path21"
   style="fill:#019eec;stroke-width:0.23;stroke-miterlimit:4;stroke-dasharray:none;stroke:#019eec;stroke-opacity:1" />
<path
   d="m 277.51514,30.952266 v -4.554235 c 0.69606,-0.299118 1.37526,-0.543135 2.03647,-0.730926 0.66009,-0.187793 1.34715,-0.281126 2.06234,-0.281126 0.83888,0 1.56306,0.107952 2.17029,0.323857 0.60722,0.215904 1.111,0.492532 1.51358,0.828758 0.40257,0.336226 0.69719,0.721931 0.88386,1.152615 0.18779,0.431809 0.28112,0.862494 0.28112,1.292053 v 10.515224 h 1.28643 v 0.618477 h -3.64226 v -2.473906 h -0.054 c -0.3216,0.88161 -0.84,1.588922 -1.55406,2.123061 -0.71519,0.534138 -1.55407,0.80177 -2.51776,0.80177 -1.21446,0 -2.19615,-0.342973 -2.94619,-1.026671 -0.75005,-0.683697 -1.12563,-1.644023 -1.12563,-2.8821 0,-0.82426 0.13831,-1.484343 0.41494,-1.982498 0.27663,-0.495905 0.64771,-0.889481 1.11213,-1.180727 0.4633,-0.290123 0.98619,-0.506027 1.56755,-0.64659 0.58025,-0.140562 1.17399,-0.266507 1.78122,-0.378957 0.60723,-0.113575 1.19985,-0.239519 1.78121,-0.380082 0.58024,-0.140563 1.09414,-0.351969 1.54057,-0.633095 v -2.950695 c 0,-0.899601 -0.2114,-1.540568 -0.62972,-1.925148 -0.42056,-0.38458 -0.98732,-0.57687 -1.7025,-0.57687 -0.46441,0 -0.85687,0.07422 -1.17848,0.2249 -0.32161,0.150684 -0.61173,0.408195 -0.87036,0.773658 -0.25864,0.364339 -0.51277,0.870366 -0.76354,1.518079 -0.25076,0.647713 -0.53639,1.457355 -0.858,2.431174 h -0.58923 z m 6.5907,1.238077 c -0.75004,0.37446 -1.46073,0.628598 -2.13093,0.75904 -0.66907,0.131567 -1.25382,0.304741 -1.75422,0.520644 -0.5004,0.21478 -0.89848,0.547633 -1.1931,0.997435 -0.29462,0.4498 -0.44193,1.181851 -0.44193,2.192779 0,1.068277 0.18217,1.818321 0.54876,2.249006 0.36546,0.431809 0.90634,0.646588 1.62041,0.646588 1.01655,-0.03711 1.82956,-0.529641 2.43679,-1.476472 0.60724,-0.946831 0.91198,-2.197277 0.91198,-3.753589 v -2.135431 z"
   id="path23"
   style="fill:#019eec;stroke:#019eec;stroke-opacity:1;stroke-width:0.23;stroke-miterlimit:4;stroke-dasharray:none" />
<path
   d="m 289.43711,25.835779 h 3.75022 v 1.911655 h 0.054 c 0.32048,-0.59936 0.79389,-1.143619 1.42024,-1.630529 0.62522,-0.486909 1.41012,-0.730926 2.35696,-0.730926 0.53638,0 1.02217,0.07084 1.46073,0.211407 0.43743,0.140562 0.81751,0.374459 1.13799,0.702813 0.32161,0.32723 0.57237,0.754542 0.75005,1.278559 0.17879,0.525143 0.26763,1.171732 0.26763,1.940892 v 9.979961 h 1.44723 v 0.618476 h -5.51906 v -0.618476 h 1.55407 V 29.182299 c 0,-1.050285 -0.15631,-1.775589 -0.46892,-2.179286 -0.31148,-0.402571 -0.78041,-0.604982 -1.40563,-0.604982 -0.37558,0 -0.73205,0.08434 -1.07165,0.254137 -0.3396,0.167552 -0.63872,0.430685 -0.89735,0.786028 -0.25864,0.356467 -0.46892,0.80177 -0.62972,1.335909 -0.16194,0.535263 -0.24178,1.167233 -0.24178,1.898161 v 8.828469 h 1.55407 v 0.618476 h -5.51793 v -0.618476 h 1.44611 V 26.454256 h -1.44611 v -0.618477 z"
   id="path25"
   style="fill:#019eec;stroke:#019eec;stroke-opacity:1;stroke-width:0.23;stroke-miterlimit:4;stroke-dasharray:none" />
<path
   d="m 303.98143,40.116963 v -0.618477 h 1.44611 V 21.281545 h -1.44611 v -0.618477 h 3.96386 V 32.41412 l 5.03666,-5.960989 h -1.71375 v -0.618476 h 3.85817 v 0.618476 h -1.28642 l -3.83006,4.638574 5.49207,8.406781 h 0.75004 v 0.618477 h -3.32178 l -4.92982,-7.477942 h -0.054 v 6.86059 h 1.71487 v 0.618476 h -5.67986 z"
   id="path27"
   style="fill:#019eec;stroke:#019eec;stroke-opacity:1;stroke-width:0.23;stroke-miterlimit:4;stroke-dasharray:none" />
<g
   id="XMLID_10_"
   transform="matrix(1.1245026,0,0,1.1245026,-5.4738024,-4.2053482)">
	<g
   id="g30">
		<path
   d="m 24.499014,33.452336 c 0,1.937 -1.666,3.503 -3.716,3.503 -2.06,0 -3.726,-1.566 -3.726,-3.503 0,-1.927 1.667,-3.493 3.726,-3.493 2.05,0 3.716,1.566 3.716,3.493 z m -2.222,0.082 c 0,-1.535 -0.707,-2.761 -1.565,-2.761 -0.858,0 -1.555,1.226 -1.555,2.761 0,1.525 0.697,2.751 1.555,2.751 0.858,0 1.565,-1.226 1.565,-2.751 z"
   id="path32"
   style="fill:#019eec;stroke:#019eec;stroke-opacity:1;stroke-width:0.11449507000000000;stroke-miterlimit:4;stroke-dasharray:none" />
	</g>
	<g
   id="g34">
	</g>
</g>
<line
   stroke-miterlimit="10"
   x1="16.853195"
   y1="29.995312"
   x2="24.565033"
   y2="29.995312"
   id="line36"
   style="stroke:#019eec;stroke-width:1.0675;stroke-miterlimit:10;stroke-dasharray:none" />
<line
   stroke-miterlimit="10"
   x1="25.369055"
   y1="26.598194"
   x2="25.369055"
   y2="40.11134"
   id="line38"
   style="stroke:#019eec;stroke-width:2.41875;stroke-miterlimit:10;stroke-dasharray:none" />
<line
   stroke-miterlimit="10"
   x1="22.909765"
   y1="40.019127"
   x2="27.640549"
   y2="40.019127"
   id="line40"
   style="stroke:#019eec;stroke-width:0.80289477;stroke-miterlimit:10" />
<line
   stroke-miterlimit="10"
   x1="42.401894"
   y1="26.598194"
   x2="42.401894"
   y2="40.11134"
   id="line42"
   style="stroke:#019eec;stroke-width:2.41875;stroke-miterlimit:10;stroke-dasharray:none" />
<line
   stroke-miterlimit="10"
   x1="39.942608"
   y1="40.019127"
   x2="44.673393"
   y2="40.019127"
   id="line44"
   style="stroke:#019eec;stroke-width:0.80289477;stroke-miterlimit:10" />
<g
   id="XMLID_9_"
   transform="matrix(1.1245026,0,0,1.1245026,-5.4738024,-4.1153482)">
	<g
   id="g47">
		<path
   d="m 75.687,31.696 c 0.808,2.441 -0.131,6.109 -3.201,5.872 -0.515,-0.041 -1.05,-0.175 -1.303,-0.381 v -2.833 h 0.05 c 0.727,0.659 0.616,2.957 1.757,2.441 1.081,-0.474 1.01,-3.05 0.939,-4.028 -0.232,-3.266 -2.777,-3.977 -4.382,-1.071 V 30.15 c 1.99,-1.844 5.251,-1.164 6.14,1.546 z"
   id="path49"
   style="fill:#019eec;stroke:#019eec;stroke-opacity:1;stroke-width:0.11449507000000000;stroke-miterlimit:4;stroke-dasharray:none" />
		<polygon
   points="67.861,35.982 67.79,30.789 67.78,29.758 67.74,26.884 69.547,26.884 69.547,30.15 69.547,31.696 69.547,38.856 70.678,38.856 70.678,39.537 66.962,39.537 66.962,38.774 67.649,38.815 67.901,38.733 67.871,36.507 "
   id="polygon51"
   style="fill:#019eec;stroke:#019eec;stroke-opacity:1;stroke-width:0.11116026000000000;stroke-miterlimit:4;stroke-dasharray:none" />
		<path
   d="m 67.861,35.982 0.01,0.525 c -0.444,0.938 -1.535,1.381 -2.535,1.318 -2.848,-0.165 -3.908,-3.41 -3.333,-5.831 0.667,-2.834 3.454,-3.606 5.736,-2.236 h 0.041 l 0.01,1.03 h -0.091 c -2.757,-2.473 -4.029,0.227 -3.797,3.091 0.151,1.886 2.343,4.719 3.918,2.103 h 0.041 z"
   id="path53"
   style="fill:#019eec;stroke:#019eec;stroke-opacity:1;stroke-width:0.11449507000000000;stroke-miterlimit:4;stroke-dasharray:none" />
	</g>
	<g
   id="g55">
	</g>
</g>
<g
   id="XMLID_8_"
   transform="matrix(1.1245026,0,0,1.1245026,-5.4738024,-4.1153482)">
	<g
   id="g58">
		<path
   d="m 14.089,31.696 c 0.808,2.441 -0.131,6.109 -3.201,5.872 -0.515,-0.041 -1.05,-0.175 -1.303,-0.381 v -2.833 h 0.05 c 0.727,0.659 0.616,2.957 1.757,2.441 1.081,-0.474 1.01,-3.05 0.939,-4.028 C 12.099,29.501 9.554,28.79 7.949,31.696 V 30.15 c 1.99,-1.844 5.252,-1.164 6.14,1.546 z"
   id="path60"
   style="fill:#019eec;stroke:#019eec;stroke-opacity:1;stroke-width:0.11449507000000000;stroke-miterlimit:4;stroke-dasharray:none" />
		<path
   d="M 6.273,36.507 6.263,35.982 6.192,30.789 6.182,29.759 6.141,26.885 3.364,23.062 H 1.638 v -1.03 h 3.029 l 3.282,4.853 v 3.266 1.546 7.243 H 9.08 v 0.68 H 5.364 v -0.68 h 0.687 0.252 l -0.03,-2.422 c 0,-10e-4 0,-10e-4 0,-0.011 z"
   id="path62"
   style="fill:#019eec;stroke:#019eec;stroke-opacity:1;stroke-width:0.11449507000000000;stroke-miterlimit:4;stroke-dasharray:none" />
		<path
   d="m 6.273,36.507 c 0,0.01 0,0.01 0,0.01 C 5.818,37.445 4.738,37.888 3.738,37.826 0.89,37.661 -0.17,34.416 0.405,31.995 1.072,29.161 3.859,28.389 6.141,29.759 h 0.041 l 0.01,1.03 h -0.09 c -2.757,-2.473 -4.029,0.227 -3.797,3.091 0.151,1.886 2.343,4.719 3.918,2.103 h 0.041 l 0.009,0.524 z"
   id="path64"
   style="fill:#019eec;stroke:#019eec;stroke-opacity:1;stroke-width:0.11449507000000000;stroke-miterlimit:4;stroke-dasharray:none" />
	</g>
	<g
   id="g66">
	</g>
</g>
<g
   id="XMLID_7_"
   transform="matrix(1.1245026,0,0,1.1245026,-5.4738024,-4.1153482)">
	<g
   id="g69">
		<polygon
   points="56.828,39.615 56.828,38.852 57.515,38.893 57.767,38.811 57.737,36.389 57.737,36.379 57.727,35.854 57.656,30.662 57.646,29.631 57.605,26.962 56.475,23.264 55.051,23.264 55.051,22.439 57.777,22.439 59.413,26.962 59.413,38.934 60.544,38.934 60.544,39.615 "
   id="polygon71"
   style="fill:#019eec;stroke:#019eec;stroke-opacity:1;stroke-width:0.00333481;stroke-miterlimit:4;stroke-dasharray:none" />
		<path
   d="m 57.737,36.379 v 0.01 c -0.464,0.928 -1.858,1.371 -2.999,1.309 -3.271,-0.164 -4.483,-3.41 -3.827,-5.831 0.768,-2.833 4.413,-3.606 6.695,-2.235 h 0.041 l 0.01,1.03 h -0.091 c -2.757,-2.474 -4.736,0.227 -4.474,3.091 -0.212,2.915 3.02,4.719 4.595,2.102 h 0.041 l 0.009,0.524 z"
   id="path73"
   style="fill:#019eec;stroke:#019eec;stroke-opacity:1;stroke-width:0.11449507000000000;stroke-miterlimit:4;stroke-dasharray:none" />
	</g>
	<g
   id="g75">
	</g>
</g>
<g
   id="XMLID_6_"
   transform="matrix(1.1245026,0,0,1.1245026,-5.4738024,-4.1153482)">
	<g
   id="g78">
		<polygon
   points="51.664,23.134 54.41,23.134 58.561,27.142 58.561,27.276 56.793,27.276 53.108,23.958 51.664,23.958 "
   id="polygon80"
   style="fill:#019eec;stroke:#019eec;stroke-width:0.00333481;stroke-miterlimit:4;stroke-opacity:1;stroke-dasharray:none"
   transform="translate(0.07860217,0.39301086)" />
		<path
   d="m 37.607,32.118 h -1.383 c 2.12,-1.071 0.858,-3.533 0.313,-4.801 h 1.625 c 0.919,0.793 1.525,1.515 1.383,2.782 -0.121,1.164 -0.737,2.308 -1.938,2.194 v -0.175 z"
   id="path82"
   style="fill:#019eec;stroke:#019eec;stroke-opacity:1;stroke-width:0.11449507000000000;stroke-miterlimit:4;stroke-dasharray:none" />
		<path
   d="m 38.577,36.033 v 2.524 c -0.182,0.145 -0.354,0.237 -0.545,0.351 -1.938,1.062 -5.372,0.546 -5.554,-2.235 v -4.555 h 2.101 v 5.461 c 0.141,2.029 3.877,1.854 3.877,-1.546 h 0.121 z"
   id="path84"
   style="fill:#019eec;stroke:#019eec;stroke-opacity:1;stroke-width:0.11449507000000000;stroke-miterlimit:4;stroke-dasharray:none" />
	</g>
	<g
   id="g86">
		<polyline
   points="31.134,32.118 32.478,32.118     34.578,32.118 36.224,32.118 37.607,32.118 37.779,32.118   "
   id="polyline88"
   style="fill:none;stroke:#019eec;stroke-width:0.40799999;stroke-linejoin:round" />
		<polyline
   points="1.254,27.317 36.537,27.317     38.163,27.317 45.271,27.317   "
   id="polyline90"
   style="fill:none;stroke:#019eec;stroke-width:1.05379925;stroke-linejoin:round;stroke-miterlimit:4;stroke-dasharray:none" />
		<polyline
   points="51.745,27.276 56.793,27.276     58.561,27.276 75.979,27.276   "
   id="polyline92"
   style="fill:none;stroke:#019eec;stroke-width:1.05379925;stroke-linejoin:round;stroke-miterlimit:4;stroke-dasharray:none" />
	</g>
</g>
<ellipse
   cx="61.488998"
   cy="24.823"
   rx="0.94499999"
   ry="0.96399999"
   id="ellipse94"
   sodipodi:cx="61.488998"
   sodipodi:cy="24.823"
   sodipodi:rx="0.94499999"
   sodipodi:ry="0.96399999"
   transform="matrix(1.229852,0,0,1.1245026,-12.442673,-3.7225111)"
   style="fill:#019eec;stroke:#019eec;stroke-opacity:1;stroke-width:0.10948146000000000;stroke-miterlimit:4;stroke-dasharray:none" />
<line
   stroke-miterlimit="10"
   x1="53.466999"
   y1="30.520458"
   x2="60.09819"
   y2="35.614456"
   id="line96"
   style="fill:none;stroke:#019eec;stroke-width:1.16;stroke-miterlimit:10;stroke-dasharray:none" />
</svg>