<?xml version="1.0" encoding="UTF-8" standalone="no"?>
<!-- Created with Inkscape (http://www.inkscape.org/) -->

<svg
   xmlns:dc="http://purl.org/dc/elements/1.1/"
   xmlns:cc="http://creativecommons.org/ns#"
   xmlns:rdf="http://www.w3.org/1999/02/22-rdf-syntax-ns#"
   xmlns:svg="http://www.w3.org/2000/svg"
   xmlns="http://www.w3.org/2000/svg"
   version="1.1"
   width="224.09"
   height="69.360001"
   id="svg6744">
  <defs
     id="defs6746" />
  <metadata
     id="metadata6749">
    <rdf:RDF>
      <cc:Work
         rdf:about="">
        <dc:format>image/svg+xml</dc:format>
        <dc:type
           rdf:resource="http://purl.org/dc/dcmitype/StillImage" />
        <dc:title></dc:title>
      </cc:Work>
    </rdf:RDF>
  </metadata>
  <g
     transform="translate(0,-983.0022)"
     id="layer1">
    <path
       d="m 3.8965497,987.30163 218.1625003,0 0,61.10497 -218.1625003,0 0,-61.10497 z"
       id="path3950"
       style="fill:#e7e514;fill-opacity:1;fill-rule:evenodd;stroke:none" />
    <g
       transform="matrix(1.25,0,0,-1.25,43.30955,1022.2556)"
       id="g3960">
      <path
         d="m 0,0 -2.9,6.727 c 0,0.004 -0.01,0.01 -0.01,0.014 l 0,0.017 -0.02,0.045 c -0.17,0.381 -0.37,0.643 -0.6,0.785 -0.02,0.014 -0.06,0.039 -0.12,0.065 -0.06,0.031 -0.1,0.053 -0.12,0.068 -0.12,0.033 -0.2,0.067 -0.24,0.106 -0.04,0.037 -0.06,0.091 -0.06,0.158 0,0.074 0.04,0.133 0.1,0.18 0.07,0.046 0.16,0.072 0.27,0.072 0.04,0 0.1,-0.006 0.19,-0.02 0.03,-0.002 0.06,-0.006 0.07,-0.006 l 0.02,-0.005 c 0.34,-0.038 0.64,-0.057 0.9,-0.057 0.18,0 0.36,0.004 0.55,0.012 0.19,0.007 0.41,0.019 0.65,0.033 0.07,0.004 0.17,0.012 0.33,0.023 0.15,0.014 0.26,0.02 0.33,0.02 0.11,0 0.19,-0.02 0.23,-0.053 0.04,-0.035 0.06,-0.094 0.06,-0.176 0,-0.07 -0.01,-0.127 -0.05,-0.164 C -0.44,7.807 -0.51,7.766 -0.62,7.721 -0.64,7.709 -0.65,7.704 -0.66,7.7 c 0,0 -0.01,-0.004 -0.02,-0.008 -0.26,-0.119 -0.4,-0.285 -0.4,-0.49 0,-0.067 0.02,-0.159 0.05,-0.276 0.04,-0.115 0.09,-0.25 0.15,-0.404 L 0.88,2.338 C 0.89,2.295 0.92,2.256 0.94,2.227 0.97,2.202 1.01,2.188 1.04,2.188 1.07,2.188 1.11,2.2 1.14,2.227 1.17,2.25 1.2,2.288 1.22,2.332 l 1.6,3.807 c 0.06,0.143 0.1,0.285 0.14,0.426 0.03,0.139 0.05,0.26 0.05,0.361 0,0.197 -0.05,0.358 -0.15,0.477 C 2.75,7.522 2.59,7.61 2.37,7.67 2.34,7.684 2.29,7.696 2.24,7.709 2.22,7.715 2.21,7.717 2.21,7.721 l -0.01,0 C 1.94,7.784 1.81,7.887 1.81,8.03 c 0,0.074 0.03,0.123 0.08,0.164 0.05,0.037 0.12,0.054 0.22,0.054 0.02,0 0.04,-10e-4 0.08,-0.007 C 2.23,8.239 2.27,8.237 2.3,8.237 2.32,8.233 2.34,8.229 2.37,8.223 2.76,8.184 3.12,8.161 3.45,8.161 c 0.14,0 0.29,0.002 0.43,0.011 0.14,0.012 0.29,0.028 0.46,0.051 0.02,0 0.05,0.004 0.08,0.008 C 4.45,8.235 4.48,8.237 4.48,8.237 4.58,8.233 4.64,8.215 4.67,8.186 4.7,8.157 4.72,8.106 4.72,8.03 4.72,7.911 4.63,7.793 4.45,7.688 L 4.44,7.682 C 4.44,7.678 4.43,7.67 4.41,7.657 4.34,7.618 4.29,7.582 4.25,7.553 4.1,7.42 3.91,7.108 3.69,6.618 3.67,6.565 3.65,6.528 3.64,6.5 3.63,6.485 3.63,6.469 3.62,6.446 3.61,6.43 3.6,6.401 3.58,6.358 L 1.06,0.704 C 1.05,0.684 1.04,0.659 1.03,0.629 1.01,0.602 0.99,0.559 0.97,0.504 0.8,0.116 0.67,-0.13 0.59,-0.232 0.51,-0.334 0.42,-0.384 0.33,-0.384 0.26,-0.384 0.21,-0.359 0.16,-0.308 0.11,-0.257 0.06,-0.154 0,0 m 9.61,8.282 0,-0.66 C 9.43,7.696 9.23,7.735 9,7.735 8.66,7.735 8.43,7.665 8.3,7.52 8.18,7.375 8.12,7.059 8.12,6.571 l 0,-1.184 C 8.12,5.09 8.19,4.889 8.34,4.772 8.48,4.653 8.74,4.596 9.09,4.596 c 0.19,0 0.36,0.016 0.52,0.045 l 0,-0.644 C 9.39,4.036 9.16,4.057 8.9,4.057 8.53,4.057 8.31,4.024 8.23,3.959 8.16,3.895 8.12,3.715 8.12,3.42 l 0,-2.033 C 8.12,0.963 8.19,0.688 8.35,0.567 8.5,0.444 8.8,0.381 9.23,0.381 c 0.13,0 0.26,0.008 0.38,0.024 l 0,-0.584 C 9.44,-0.185 9.27,-0.191 9.1,-0.191 c -0.29,0 -0.66,0.01 -1.11,0.023 -0.11,0.006 -0.19,0.014 -0.23,0.014 -0.03,0 -0.07,0 -0.11,0.004 C 7.44,-0.136 7.31,-0.13 7.24,-0.13 7.02,-0.13 6.8,-0.136 6.6,-0.154 6.39,-0.168 6.18,-0.185 5.96,-0.214 5.93,-0.218 5.9,-0.224 5.85,-0.226 5.75,-0.236 5.68,-0.24 5.64,-0.24 c -0.07,0 -0.13,0.028 -0.18,0.078 -0.05,0.049 -0.07,0.11 -0.07,0.174 0,0.067 0.02,0.125 0.06,0.17 0.04,0.047 0.13,0.104 0.26,0.166 L 5.73,0.36 C 5.92,0.454 6.04,0.543 6.11,0.635 6.19,0.737 6.24,0.872 6.27,1.03 6.31,1.19 6.33,1.479 6.33,1.899 l 0,4.408 C 6.33,6.67 6.3,6.94 6.25,7.116 6.2,7.291 6.11,7.428 6,7.53 5.88,7.622 5.71,7.69 5.48,7.739 c 0,0 -0.01,0.002 -0.02,0.006 L 5.28,7.782 C 5.24,7.79 5.21,7.821 5.17,7.864 5.15,7.911 5.13,7.956 5.13,8.008 c 0,0.063 0.03,0.119 0.07,0.164 0.05,0.051 0.11,0.076 0.17,0.076 0.03,0 0.06,0 0.08,-10e-4 C 5.47,8.245 5.5,8.241 5.52,8.237 5.78,8.209 6.04,8.19 6.3,8.18 6.55,8.165 6.82,8.161 7.09,8.161 c 0.16,0 0.32,0.002 0.5,0.011 0.17,0.012 0.37,0.03 0.59,0.051 0.06,0 0.16,0.008 0.28,0.018 0.43,0.029 0.75,0.043 0.97,0.043 0.06,0 0.12,0 0.18,-0.002 m -21.76,-6.383 0,4.408 c 0,0.363 -0.03,0.633 -0.08,0.809 -0.05,0.172 -0.13,0.312 -0.25,0.414 -0.06,0.049 -0.13,0.092 -0.2,0.121 -0.08,0.033 -0.19,0.064 -0.34,0.094 -0.01,0.005 -0.03,0.009 -0.06,0.011 -0.01,0.006 -0.05,0.014 -0.11,0.026 -0.04,0.008 -0.07,0.039 -0.11,0.082 -0.03,0.047 -0.05,0.093 -0.05,0.144 0,0.078 0.03,0.141 0.09,0.186 0.06,0.045 0.14,0.066 0.24,0.066 l 0.09,0 c 0.02,-0.004 0.05,-0.006 0.08,-0.012 0.01,-0.003 0.02,-0.007 0.03,-0.007 0.47,-0.045 0.92,-0.069 1.36,-0.069 0.46,0 0.93,0.026 1.42,0.076 0.05,0.006 0.08,0.008 0.1,0.012 0.03,0.004 0.05,0.006 0.08,0.006 0.02,0.004 0.04,0.006 0.07,0.006 0.09,0 0.17,-0.022 0.22,-0.068 0.06,-0.043 0.08,-0.1 0.08,-0.172 0,-0.106 -0.09,-0.196 -0.27,-0.276 C -9.78,7.75 -9.79,7.745 -9.79,7.745 -9.87,7.727 -9.93,7.704 -9.98,7.682 -10.03,7.657 -10.07,7.629 -10.1,7.6 -10.19,7.514 -10.26,7.411 -10.29,7.291 -10.33,7.172 -10.35,6.944 -10.35,6.594 l 0,-2.049 c 0,-0.06 0.01,-0.111 0.03,-0.152 0.03,-0.041 0.05,-0.061 0.08,-0.061 0.01,0 0.04,0.012 0.08,0.038 0.04,0.019 0.08,0.052 0.12,0.093 l 2.15,1.975 c 0.24,0.219 0.42,0.404 0.52,0.551 0.1,0.146 0.15,0.283 0.15,0.406 0,0.18 -0.12,0.295 -0.37,0.344 l -0.01,0.006 -0.03,0 -0.03,0 c 0,0 -0.01,0.003 -0.02,0.005 -0.19,0.049 -0.28,0.137 -0.28,0.258 0,0.082 0.02,0.141 0.06,0.172 0.04,0.035 0.11,0.053 0.22,0.057 0.05,0 0.09,0 0.13,-0.002 0.04,-0.002 0.08,-0.006 0.12,-0.012 0.02,-0.002 0.06,-0.006 0.1,-0.006 0.39,-0.021 0.72,-0.033 1.01,-0.033 0.33,0 0.68,0.012 1.04,0.033 l 0.03,0.006 c 0.02,0.006 0.05,0.01 0.07,0.012 0.02,0.002 0.04,0.002 0.07,0.002 0.12,0 0.22,-0.016 0.26,-0.047 C -4.81,8.159 -4.78,8.104 -4.78,8.02 -4.78,7.938 -4.8,7.879 -4.83,7.844 -4.85,7.809 -4.93,7.776 -5.06,7.739 -5.07,7.735 -5.09,7.727 -5.12,7.715 -5.22,7.674 -5.3,7.639 -5.35,7.612 -5.75,7.432 -6.26,7.067 -6.87,6.52 L -6.91,6.489 -6.94,6.45 -8.07,5.444 C -8.15,5.381 -8.2,5.331 -8.23,5.293 -8.25,5.25 -8.27,5.215 -8.27,5.18 c 0,-0.023 0.01,-0.055 0.03,-0.094 0.02,-0.041 0.05,-0.099 0.1,-0.181 l 2.65,-3.864 c 0.12,-0.166 0.23,-0.302 0.33,-0.398 0.11,-0.096 0.22,-0.17 0.34,-0.227 0.04,-0.019 0.08,-0.037 0.15,-0.05 L -4.66,0.36 c 0.09,-0.018 0.14,-0.045 0.16,-0.076 0.02,-0.036 0.03,-0.098 0.03,-0.19 0,-0.107 -0.02,-0.181 -0.07,-0.219 -0.05,-0.037 -0.15,-0.054 -0.29,-0.054 -0.07,0 -0.12,0.002 -0.16,0.002 -0.04,0.004 -0.07,0.006 -0.1,0.008 -0.11,0.007 -0.21,0.015 -0.3,0.019 -0.09,0.004 -0.18,0.006 -0.27,0.006 -0.24,0 -0.5,-0.01 -0.78,-0.035 l -0.02,0 c -0.03,-0.004 -0.05,-0.006 -0.07,-0.01 -0.02,-0.002 -0.04,-0.002 -0.06,-0.002 -0.12,0 -0.24,0.061 -0.37,0.18 -0.13,0.123 -0.29,0.336 -0.49,0.646 L -9.47,3.707 C -9.51,3.77 -9.55,3.813 -9.58,3.838 -9.61,3.862 -9.65,3.875 -9.67,3.875 -9.7,3.875 -9.73,3.87 -9.75,3.862 -9.77,3.852 -9.79,3.838 -9.81,3.817 L -10.18,3.473 C -10.25,3.403 -10.3,3.344 -10.32,3.299 -10.34,3.25 -10.35,3.178 -10.35,3.075 l 0,-1.508 c 0,-0.319 0.03,-0.547 0.09,-0.686 0.07,-0.136 0.18,-0.263 0.33,-0.371 0.09,-0.056 0.23,-0.113 0.41,-0.156 l 0.03,-0.006 c 0.16,-0.043 0.27,-0.084 0.32,-0.127 0.05,-0.045 0.08,-0.105 0.08,-0.183 0,-0.079 -0.03,-0.143 -0.08,-0.198 -0.05,-0.052 -0.1,-0.08 -0.17,-0.08 -0.08,0 -0.15,0.002 -0.21,0.008 -0.05,0.002 -0.11,0.008 -0.17,0.018 -0.25,0.035 -0.49,0.06 -0.71,0.078 -0.23,0.019 -0.46,0.025 -0.69,0.025 -0.21,0 -0.43,-0.006 -0.65,-0.023 -0.21,-0.014 -0.43,-0.037 -0.64,-0.071 -0.09,-0.009 -0.17,-0.019 -0.24,-0.025 -0.07,-0.008 -0.13,-0.01 -0.19,-0.01 -0.07,0 -0.12,0.028 -0.17,0.078 -0.05,0.049 -0.08,0.11 -0.08,0.174 0,0.111 0.11,0.219 0.31,0.328 l 0.01,0.008 c 0.1,0.037 0.18,0.08 0.24,0.125 0.06,0.049 0.12,0.1 0.16,0.162 0.08,0.098 0.13,0.229 0.17,0.385 0.03,0.154 0.05,0.449 0.05,0.879 m 21.76,-2.078 0,0.584 c 0.42,0.052 0.75,0.197 1,0.437 0.32,0.309 0.48,0.754 0.48,1.334 0,0.617 -0.18,1.088 -0.55,1.405 C 10.3,3.782 9.99,3.922 9.61,3.997 l 0,0.644 c 0.24,0.051 0.43,0.139 0.57,0.268 0.23,0.207 0.35,0.535 0.35,0.978 0,0.565 -0.14,1.014 -0.42,1.348 C 9.97,7.411 9.8,7.538 9.61,7.622 l 0,0.66 C 10.45,8.26 11.12,8.086 11.59,7.754 12.11,7.403 12.36,6.907 12.36,6.272 12.36,5.795 12.22,5.405 11.94,5.106 11.65,4.807 11.22,4.594 10.64,4.463 11.45,4.422 12.04,4.241 12.42,3.916 12.81,3.588 13,3.104 13,2.463 13,1.561 12.68,0.891 12.04,0.457 11.49,0.081 10.68,-0.13 9.61,-0.179"
         id="path3962"
         style="fill:#000000;fill-opacity:1;fill-rule:evenodd;stroke:none" />
    </g>
    <g
       transform="matrix(1.25,0,0,-1.25,33.48455,1000.5708)"
       id="g3964">
      <path
         d="m 0,0 c 6.95,5.406 17.03,4.149 22.44,-2.801 5.4,-6.951 4.15,-17.029 -2.81,-22.435 -0.2,-0.158 -0.41,-0.309 -0.61,-0.453 6.42,5.504 7.45,15.197 2.2,21.941 C 15.97,2.998 6.32,4.381 -0.59,-0.49 -0.4,-0.324 -0.2,-0.16 0,0"
         id="path3966"
         style="fill:#00854a;fill-opacity:1;fill-rule:evenodd;stroke:none" />
    </g>
    <g
       transform="matrix(1.25,0,0,-1.25,27.77193,998.1631)"
       id="g3968">
      <path
         d="M 0,0 C 7.51,5.842 17.95,5.387 24.82,-0.58 18.53,4.283 9.44,4.463 2.84,-0.68 c -7.82,-6.078 -9.28,-17.344 -3.26,-25.082 6.02,-7.738 17.3,-9.092 25.11,-3.015 3.05,2.371 5.13,5.535 6.18,8.966 -1.02,-4.152 -3.39,-8.011 -7.02,-10.841 -8.53,-6.629 -20.83,-5.151 -27.4,3.291 C -10.12,-18.92 -8.52,-6.629 0,0"
         id="path3970"
         style="fill:#00854a;fill-opacity:1;fill-rule:evenodd;stroke:none" />
    </g>
    <g
       transform="matrix(1.25,0,0,-1.25,3.7469297,1022.5044)"
       id="g3972">
      <path
         d="m 0,0 9.83,0 c 1.88,-9.89 10.6,-17.412 21.03,-17.412 8.09,0 15.16,4.535 18.79,11.193 l 125.01,0 0,-14.503 L 0,-20.722 0,0 z"
         id="path3974"
         style="fill:#00854a;fill-opacity:1;fill-rule:evenodd;stroke:none" />
    </g>
    <g
       transform="matrix(1.25,0,0,-1.25,130.32193,1025.9495)"
       id="g3976">
      <path
         d="m 0,0 0,1.928 0.74,0 c 0.25,0 0.43,0.043 0.54,0.129 0.12,0.086 0.17,0.227 0.17,0.42 0,0.084 -0.01,0.178 -0.03,0.281 C 1.4,2.862 1.36,2.979 1.31,3.11 l -2.17,5.949 2.62,0 L 2.89,5.12 4,9.059 6.43,9.059 4.32,2.596 C 4.09,1.871 3.9,1.375 3.77,1.106 3.64,0.836 3.5,0.631 3.36,0.493 3.16,0.299 2.92,0.159 2.65,0.077 2.38,-0.004 1.93,-0.045 1.31,-0.045 c -0.17,0 -0.38,0.004 -0.6,0.012 C 0.48,-0.023 0.25,-0.013 0,0"
         id="path3978"
         style="fill:#000000;fill-opacity:1;fill-rule:evenodd;stroke:none" />
    </g>
    <g
       transform="matrix(1.25,0,0,-1.25,147.94693,1025.9495)"
       id="g3980">
      <path
         d="m 0,0 0,1.928 0.74,0 c 0.25,0 0.43,0.043 0.54,0.129 0.11,0.086 0.17,0.227 0.17,0.42 0,0.084 -0.01,0.178 -0.03,0.281 C 1.39,2.862 1.36,2.979 1.31,3.11 l -2.17,5.949 2.61,0 L 2.89,5.12 4,9.059 6.43,9.059 4.32,2.596 C 4.09,1.871 3.9,1.375 3.77,1.106 3.64,0.836 3.5,0.631 3.35,0.493 3.16,0.299 2.92,0.159 2.65,0.077 2.38,-0.004 1.93,-0.045 1.31,-0.045 c -0.18,0 -0.38,0.004 -0.6,0.012 C 0.48,-0.023 0.25,-0.013 0,0"
         id="path3982"
         style="fill:#000000;fill-opacity:1;fill-rule:evenodd;stroke:none" />
    </g>
    <g
       transform="matrix(1.25,0,0,-1.25,72.50943,1022.7506)"
       id="g3984">
      <path
         d="m 0,0 0,8.805 2.81,0 0,-2.918 2.53,2.918 3.28,0 L 5.48,5.561 9.03,0 5.66,0 3.51,3.527 2.81,2.805 2.81,0 0,0 z"
         id="path3986"
         style="fill:#000000;fill-opacity:1;fill-rule:evenodd;stroke:none" />
    </g>
    <g
       transform="matrix(1.25,0,0,-1.25,88.08443,1014.3381)"
       id="g3988">
      <path
         d="M 0,0 0,-1.566 C -0.24,-1.574 -0.42,-1.627 -0.55,-1.722 -0.7,-1.828 -0.78,-1.992 -0.8,-2.211 l -2.52,0 c 0.01,0.733 0.3,1.282 0.89,1.657 C -1.87,-0.201 -1.06,-0.015 0,0 m 0,-4.128 -0.02,-0.004 c -0.65,-0.172 -0.97,-0.403 -0.97,-0.692 0,-0.179 0.06,-0.322 0.19,-0.428 0.13,-0.103 0.31,-0.154 0.54,-0.154 0.09,0 0.18,0.004 0.26,0.012 L 0,-6.742 -0.03,-6.75 c -0.38,-0.142 -0.81,-0.211 -1.29,-0.211 -0.73,0 -1.3,0.18 -1.7,0.54 -0.4,0.361 -0.6,0.869 -0.6,1.529 0,0.64 0.2,1.115 0.59,1.422 0.4,0.306 1.14,0.529 2.24,0.67 0.14,0.019 0.33,0.041 0.56,0.066 0.08,0.008 0.16,0.018 0.23,0.027 l 0,-1.421 z m 0.97,0.3 C 0.72,-3.925 0.4,-4.023 0,-4.128 l 0,1.421 c 0.66,0.102 1,0.303 1,0.608 0,0.183 -0.08,0.32 -0.23,0.406 -0.15,0.086 -0.38,0.129 -0.71,0.129 -0.02,0 -0.04,0 -0.06,-0.002 L 0,0 c 0.05,0.002 0.1,0.002 0.15,0.002 0.54,0 1.03,-0.048 1.48,-0.148 0.45,-0.098 0.81,-0.232 1.06,-0.402 0.3,-0.207 0.52,-0.44 0.64,-0.704 0.13,-0.259 0.19,-0.63 0.19,-1.119 l 0,-3.621 c 0,-0.121 0.02,-0.226 0.07,-0.32 0.05,-0.096 0.12,-0.172 0.21,-0.231 l 0,-0.187 -2.6,0 -0.15,0.623 C 0.72,-6.392 0.37,-6.603 0,-6.742 l 0,1.348 c 0.3,0.035 0.53,0.127 0.69,0.285 0.19,0.199 0.29,0.518 0.29,0.953 l 0,0.203 c 0,0.045 -0.01,0.088 -0.01,0.125"
         id="path3990"
         style="fill:#000000;fill-opacity:1;fill-rule:evenodd;stroke:none" />
    </g>
    <g
       transform="matrix(1.25,0,0,-1.25,93.65943,1022.7506)"
       id="g3992">
      <path
         d="m 0,0 0,6.5 2.38,0 0,-1.184 C 2.55,5.787 2.8,6.131 3.12,6.348 3.44,6.568 3.87,6.674 4.4,6.674 l 0.24,0 0,-2.578 C 4.54,4.105 4.45,4.113 4.36,4.119 4.27,4.125 4.19,4.127 4.11,4.127 3.59,4.127 3.2,4.012 2.96,3.773 2.71,3.541 2.59,3.17 2.59,2.668 L 2.59,0 0,0 z"
         id="path3994"
         style="fill:#000000;fill-opacity:1;fill-rule:evenodd;stroke:none" />
    </g>
    <g
       transform="matrix(1.25,0,0,-1.25,108.78455,1014.6256)"
       id="g3996">
      <path
         d="m 0,0 0,-6.5 -2.37,0 0,0.959 c -0.3,-0.383 -0.64,-0.668 -1.01,-0.854 -0.37,-0.187 -0.79,-0.277 -1.26,-0.277 -0.4,0 -0.75,0.065 -1.06,0.197 -0.31,0.131 -0.58,0.328 -0.79,0.588 -0.19,0.229 -0.33,0.51 -0.41,0.842 -0.08,0.334 -0.12,0.893 -0.12,1.678 l 0,3.367 2.59,0 0,-3.356 c 0,-0.492 0.06,-0.833 0.19,-1.025 0.13,-0.189 0.36,-0.283 0.69,-0.283 0.32,0 0.56,0.109 0.72,0.328 0.16,0.223 0.24,0.551 0.24,0.994 L -2.59,0 0,0 z"
         id="path3998"
         style="fill:#000000;fill-opacity:1;fill-rule:evenodd;stroke:none" />
    </g>
    <g
       transform="matrix(1.25,0,0,-1.25,109.97193,1022.7506)"
       id="g4000">
      <path
         d="m 0,0 0,6.5 2.39,0 0,-1.184 c 0.17,0.471 0.41,0.815 0.73,1.032 0.33,0.22 0.75,0.326 1.29,0.326 l 0.23,0 0,-2.578 C 4.54,4.105 4.45,4.113 4.36,4.119 4.28,4.125 4.19,4.127 4.11,4.127 3.59,4.127 3.21,4.012 2.96,3.773 2.72,3.541 2.6,3.17 2.6,2.668 L 2.6,0 0,0 z"
         id="path4002"
         style="fill:#000000;fill-opacity:1;fill-rule:evenodd;stroke:none" />
    </g>
    <g
       transform="matrix(1.25,0,0,-1.25,118.97193,1011.7444)"
       id="g4004">
      <path
         d="M 0,0 2.89,0 4.37,-5.684 5.97,0 8.75,0 5.78,-8.805 2.97,-8.805 0,0 z"
         id="path4006"
         style="fill:#000000;fill-opacity:1;fill-rule:evenodd;stroke:none" />
    </g>
    <g
       transform="matrix(1.25,0,0,-1.25,138.50943,1020.1944)"
       id="g4008">
      <path
         d="m 0,0 2.5,0 c 0,-0.274 0.07,-0.479 0.21,-0.613 0.15,-0.135 0.36,-0.204 0.64,-0.204 0.27,0 0.48,0.045 0.63,0.137 0.14,0.09 0.21,0.225 0.21,0.403 0,0.289 -0.32,0.505 -0.96,0.642 C 3.18,0.379 3.13,0.389 3.1,0.398 1.89,0.652 1.09,0.933 0.72,1.232 0.35,1.531 0.17,1.971 0.17,2.547 c 0,0.699 0.26,1.228 0.81,1.594 0.54,0.367 1.34,0.546 2.38,0.546 0.97,0 1.72,-0.17 2.25,-0.513 C 6.15,3.83 6.45,3.322 6.53,2.646 l -2.32,0 C 4.19,2.842 4.1,2.996 3.95,3.111 3.8,3.226 3.61,3.283 3.39,3.283 3.16,3.283 2.99,3.246 2.87,3.168 2.75,3.092 2.68,2.978 2.68,2.828 2.68,2.574 2.98,2.381 3.57,2.258 3.72,2.226 3.84,2.203 3.92,2.183 5.1,1.912 5.87,1.625 6.22,1.322 6.57,1.014 6.76,0.568 6.76,-0.022 6.76,-0.768 6.46,-1.33 5.88,-1.709 5.31,-2.086 4.45,-2.276 3.31,-2.276 c -1.05,0 -1.85,0.19 -2.4,0.567 C 0.35,-1.33 0.05,-0.76 0,0"
         id="path4010"
         style="fill:#000000;fill-opacity:1;fill-rule:evenodd;stroke:none" />
    </g>
    <g
       transform="matrix(1.25,0,0,-1.25,160.65955,1014.3381)"
       id="g4012">
      <path
         d="M 0,0 0,-1.566 C -0.24,-1.574 -0.42,-1.627 -0.55,-1.722 -0.7,-1.828 -0.78,-1.992 -0.8,-2.211 l -2.52,0 c 0.01,0.733 0.31,1.282 0.89,1.657 C -1.87,-0.201 -1.06,-0.015 0,0 m 0,-4.128 -0.02,-0.004 c -0.65,-0.172 -0.97,-0.403 -0.97,-0.692 0,-0.179 0.06,-0.322 0.19,-0.428 0.13,-0.103 0.31,-0.154 0.54,-0.154 0.1,0 0.18,0.004 0.26,0.012 L 0,-6.742 -0.03,-6.75 c -0.38,-0.142 -0.81,-0.211 -1.29,-0.211 -0.73,0 -1.3,0.18 -1.7,0.54 -0.4,0.361 -0.6,0.869 -0.6,1.529 0,0.64 0.2,1.115 0.59,1.422 0.4,0.306 1.14,0.529 2.24,0.67 0.14,0.019 0.33,0.041 0.56,0.066 0.08,0.008 0.16,0.018 0.23,0.027 l 0,-1.421 z m 0.97,0.3 C 0.72,-3.925 0.4,-4.023 0,-4.128 l 0,1.421 c 0.66,0.102 1,0.303 1,0.608 0,0.183 -0.08,0.32 -0.23,0.406 -0.15,0.086 -0.38,0.129 -0.71,0.129 -0.02,0 -0.04,0 -0.06,-0.002 L 0,0 c 0.05,0.002 0.1,0.002 0.15,0.002 0.54,0 1.03,-0.048 1.48,-0.148 0.46,-0.098 0.81,-0.232 1.06,-0.402 0.3,-0.207 0.52,-0.44 0.64,-0.704 0.13,-0.259 0.19,-0.63 0.19,-1.119 l 0,-3.621 c 0,-0.121 0.02,-0.226 0.07,-0.32 0.05,-0.096 0.12,-0.172 0.21,-0.231 l 0,-0.187 -2.59,0 -0.17,0.623 C 0.72,-6.392 0.37,-6.603 0,-6.742 l 0,1.348 c 0.3,0.035 0.53,0.127 0.69,0.285 0.19,0.199 0.3,0.518 0.3,0.953 0,0.092 0,0.16 -0.01,0.203 0,0.045 -0.01,0.088 -0.01,0.125"
         id="path4014"
         style="fill:#000000;fill-opacity:1;fill-rule:evenodd;stroke:none" />
    </g>
    <g
       transform="matrix(1.25,0,0,-1.25,173.30968,1020.1769)"
       id="g4016">
      <path
         d="m 0,0 1.25,0 0,-2.057 -0.1,-0.002 -3.89,0 0,8.805 3.61,0 c 0.13,0 0.26,0 0.38,-0.002 l 0,-2.006 C 1.11,4.744 0.96,4.75 0.78,4.75 l -0.78,0 0,-1.518 1.17,0 0.08,0 0,-1.607 L 0,1.625 0,0 z m 1.25,0 0.06,0 c 0.43,0 0.74,0.062 0.92,0.189 0.19,0.129 0.28,0.338 0.28,0.627 0,0.291 -0.1,0.5 -0.28,0.623 -0.19,0.125 -0.5,0.186 -0.95,0.186 l -0.03,0 0,1.607 C 1.6,3.24 1.84,3.298 1.99,3.406 2.15,3.521 2.23,3.714 2.23,3.992 2.23,4.283 2.14,4.48 1.97,4.587 1.85,4.666 1.61,4.716 1.25,4.738 l 0,2.006 C 1.83,6.74 2.27,6.72 2.56,6.687 2.92,6.648 3.22,6.584 3.48,6.49 3.92,6.324 4.27,6.064 4.5,5.707 4.74,5.353 4.86,4.921 4.86,4.414 4.86,4.017 4.77,3.668 4.59,3.373 4.42,3.074 4.15,2.832 3.79,2.642 4.26,2.472 4.61,2.222 4.83,1.886 5.05,1.554 5.16,1.117 5.16,0.585 5.16,0.062 5.06,-0.389 4.84,-0.776 4.62,-1.159 4.3,-1.456 3.89,-1.665 3.61,-1.807 3.29,-1.909 2.93,-1.969 2.59,-2.024 2.03,-2.055 1.25,-2.057 L 1.25,0 z"
         id="path4018"
         style="fill:#000000;fill-opacity:1;fill-rule:evenodd;stroke:none" />
    </g>
    <g
       transform="matrix(1.25,0,0,-1.25,185.04705,1014.3381)"
       id="g4020">
      <path
         d="m 0,0 0,-1.566 c -0.24,-0.008 -0.42,-0.061 -0.55,-0.156 -0.14,-0.106 -0.23,-0.27 -0.25,-0.489 l -2.52,0 c 0.01,0.733 0.3,1.282 0.89,1.657 C -1.87,-0.201 -1.06,-0.015 0,0 m 0,-4.128 -0.02,-0.004 c -0.65,-0.172 -0.97,-0.403 -0.97,-0.692 0,-0.179 0.06,-0.322 0.19,-0.428 0.13,-0.103 0.31,-0.154 0.55,-0.154 0.08,0 0.17,0.004 0.25,0.012 L 0,-6.742 -0.03,-6.75 c -0.38,-0.142 -0.81,-0.211 -1.29,-0.211 -0.73,0 -1.3,0.18 -1.7,0.54 -0.4,0.361 -0.6,0.869 -0.6,1.529 0,0.64 0.2,1.115 0.59,1.422 0.4,0.306 1.15,0.529 2.24,0.67 0.14,0.019 0.32,0.041 0.56,0.066 0.08,0.008 0.15,0.018 0.23,0.027 l 0,-1.421 z m 0.97,0.3 C 0.72,-3.925 0.4,-4.023 0,-4.128 l 0,1.421 c 0.67,0.102 1,0.303 1,0.608 0,0.183 -0.08,0.32 -0.23,0.406 -0.15,0.086 -0.39,0.129 -0.71,0.129 -0.02,0 -0.04,0 -0.06,-0.002 L 0,0 c 0.05,0.002 0.1,0.002 0.15,0.002 0.54,0 1.03,-0.048 1.48,-0.148 0.45,-0.098 0.81,-0.232 1.06,-0.402 0.3,-0.207 0.52,-0.44 0.64,-0.704 0.13,-0.259 0.19,-0.63 0.19,-1.119 l 0,-3.621 c 0,-0.121 0.02,-0.226 0.07,-0.32 0.05,-0.096 0.12,-0.172 0.21,-0.231 l 0,-0.187 -2.6,0 -0.16,0.623 C 0.72,-6.392 0.37,-6.603 0,-6.742 l 0,1.348 c 0.3,0.035 0.53,0.127 0.69,0.285 0.2,0.199 0.29,0.518 0.29,0.953 l 0,0.203 c 0,0.045 -0.01,0.088 -0.01,0.125"
         id="path4022"
         style="fill:#000000;fill-opacity:1;fill-rule:evenodd;stroke:none" />
    </g>
    <g
       transform="matrix(1.25,0,0,-1.25,190.60943,1022.7506)"
       id="g4024">
      <path
         d="m 0,0 0,6.5 2.34,0 0,-0.949 C 2.65,5.93 2.99,6.211 3.36,6.398 3.73,6.582 4.15,6.674 4.62,6.674 5.01,6.674 5.37,6.609 5.68,6.477 5.99,6.346 6.25,6.15 6.47,5.891 6.67,5.656 6.81,5.371 6.89,5.033 6.97,4.697 7.01,4.146 7.01,3.379 L 7.01,0 4.43,0 l 0,3.369 C 4.43,3.861 4.36,4.203 4.23,4.391 4.09,4.574 3.87,4.666 3.54,4.666 3.22,4.666 2.98,4.559 2.82,4.344 2.66,4.127 2.58,3.799 2.58,3.355 L 2.58,0 0,0 z"
         id="path4026"
         style="fill:#000000;fill-opacity:1;fill-rule:evenodd;stroke:none" />
    </g>
    <g
       transform="matrix(1.25,0,0,-1.25,200.63443,1022.7506)"
       id="g4028">
      <path
         d="m 0,0 0,8.805 2.58,0 0,-4.297 L 4.29,6.5 7.18,6.5 4.77,4.103 7.51,0 4.44,0 3.02,2.328 2.58,1.871 2.58,0 0,0 z"
         id="path4030"
         style="fill:#000000;fill-opacity:1;fill-rule:evenodd;stroke:none" />
    </g>
    <g
       transform="matrix(1.25,0,0,-1.25,204.4843,1042.7657)"
       id="g4032">
      <path
         d="m 0,0 c -0.02,-0.072 -0.06,-0.123 -0.1,-0.152 -0.05,-0.027 -0.13,-0.041 -0.23,-0.041 l -0.14,0 -0.05,0 c -0.1,0.004 -0.18,0.017 -0.24,0.047 -0.05,0.029 -0.08,0.07 -0.08,0.127 0,0.013 0.01,0.039 0.04,0.088 l 0,0.017 0.03,0.108 C -0.29,1.6 0.11,2.879 0.43,4.028 0.75,5.176 0.91,5.854 0.91,6.065 0.91,6.242 0.74,6.348 0.39,6.387 0.32,6.395 0.27,6.401 0.23,6.405 l 0.06,0.259 c 0.3,0.02 0.59,0.055 0.87,0.11 0.29,0.052 0.56,0.123 0.83,0.209 L 2.1,6.932 C 1.8,5.85 1.56,5.01 1.38,4.403 1.21,3.801 1.05,3.287 0.9,2.862 1.28,3.27 1.62,3.569 1.94,3.756 2.26,3.944 2.58,4.035 2.9,4.035 3.16,4.035 3.37,3.961 3.52,3.815 3.68,3.668 3.76,3.475 3.76,3.239 3.76,2.908 3.55,2.619 3.12,2.369 2.7,2.119 2.18,1.989 1.56,1.975 1.66,1.912 1.75,1.824 1.84,1.713 1.92,1.598 2.02,1.401 2.15,1.117 2.16,1.09 2.18,1.051 2.2,1.002 2.39,0.573 2.58,0.358 2.78,0.358 c 0.1,0 0.21,0.041 0.33,0.127 0.12,0.084 0.24,0.209 0.38,0.377 L 3.67,0.727 C 3.46,0.399 3.24,0.155 3.01,-0.015 2.78,-0.185 2.56,-0.269 2.33,-0.269 2.12,-0.269 1.95,-0.195 1.81,-0.047 1.67,0.1 1.51,0.41 1.34,0.875 1.33,0.916 1.31,0.973 1.28,1.051 1.08,1.606 0.86,1.899 0.63,1.93 L 0,0 z m 0.66,2.176 c 0.03,0 0.08,0 0.14,-0.004 C 0.86,2.168 0.91,2.168 0.94,2.168 1.58,2.168 2.07,2.25 2.43,2.414 2.78,2.58 2.96,2.807 2.96,3.096 2.96,3.225 2.92,3.324 2.84,3.399 2.76,3.473 2.64,3.51 2.5,3.51 2.22,3.51 1.91,3.395 1.59,3.16 1.26,2.928 0.95,2.6 0.66,2.176 m -7.97,0.527 -0.21,0.116 c 0.19,0.386 0.39,0.683 0.61,0.892 0.23,0.211 0.44,0.315 0.66,0.315 0.13,0 0.23,-0.045 0.32,-0.131 0.08,-0.09 0.12,-0.205 0.12,-0.348 0,-0.105 -0.02,-0.24 -0.05,-0.404 -0.03,-0.166 -0.07,-0.346 -0.12,-0.535 0.36,0.48 0.7,0.841 1.02,1.08 0.32,0.234 0.63,0.355 0.93,0.355 0.22,0 0.39,-0.056 0.52,-0.168 C -3.38,3.762 -3.32,3.608 -3.32,3.41 -3.32,3.313 -3.34,3.196 -3.37,3.069 -3.41,2.938 -3.48,2.733 -3.59,2.455 L -3.65,2.307 C -4,1.405 -4.17,0.895 -4.17,0.774 c 0,-0.061 0.01,-0.112 0.05,-0.151 0.03,-0.043 0.08,-0.062 0.13,-0.062 0.07,0 0.16,0.041 0.26,0.121 0.1,0.082 0.26,0.244 0.48,0.488 l 0.2,-0.187 C -3.39,0.561 -3.7,0.248 -3.97,0.043 -4.24,-0.158 -4.49,-0.26 -4.71,-0.26 c -0.15,0 -0.28,0.043 -0.36,0.131 -0.09,0.09 -0.13,0.209 -0.13,0.366 0,0.084 0.01,0.185 0.04,0.3 0.03,0.119 0.07,0.264 0.13,0.438 l 0.59,1.601 c 0.01,0.026 0.02,0.067 0.04,0.12 0.08,0.224 0.12,0.39 0.12,0.49 0,0.097 -0.03,0.172 -0.08,0.224 -0.05,0.055 -0.13,0.082 -0.22,0.082 -0.23,0 -0.49,-0.185 -0.78,-0.554 C -5.65,2.569 -5.91,2.074 -6.14,1.459 L -6.65,0.145 c -0.06,-0.147 -0.11,-0.239 -0.16,-0.276 -0.05,-0.035 -0.13,-0.052 -0.25,-0.052 l -0.08,0 -0.05,0.007 c -0.13,0.004 -0.23,0.022 -0.3,0.055 -0.06,0.037 -0.1,0.084 -0.1,0.147 0,0.011 0.01,0.029 0.01,0.047 0,0.015 0.01,0.035 0.02,0.052 l 0.04,0.094 c 0.31,0.752 0.54,1.334 0.68,1.746 0.15,0.414 0.22,0.693 0.22,0.846 0,0.105 -0.02,0.187 -0.07,0.242 -0.04,0.053 -0.11,0.08 -0.2,0.08 -0.05,0 -0.12,-0.035 -0.18,-0.102 C -7.13,2.965 -7.22,2.856 -7.31,2.703 m -2.73,-1.648 c -0.29,-0.42 -0.56,-0.734 -0.81,-0.947 -0.24,-0.215 -0.45,-0.321 -0.63,-0.321 -0.13,0 -0.24,0.045 -0.32,0.131 -0.07,0.082 -0.11,0.203 -0.11,0.356 0,0.109 0.04,0.3 0.12,0.57 0.08,0.273 0.19,0.6 0.34,0.982 l -0.03,0 c -0.38,-0.66 -0.76,-1.168 -1.12,-1.519 -0.37,-0.352 -0.71,-0.529 -1.01,-0.529 -0.2,0 -0.35,0.064 -0.46,0.197 -0.1,0.129 -0.16,0.316 -0.16,0.558 0,0.389 0.12,0.799 0.36,1.241 0.25,0.439 0.58,0.845 1,1.211 0.32,0.275 0.63,0.482 0.95,0.617 0.32,0.137 0.63,0.203 0.96,0.203 0.05,0 0.13,-0.006 0.24,-0.016 0.01,0 0.02,-0.004 0.02,-0.006 l 0.25,0.34 0.58,0 c -0.37,-0.883 -0.66,-1.613 -0.87,-2.185 -0.21,-0.571 -0.31,-0.932 -0.31,-1.076 0,-0.073 0.01,-0.129 0.04,-0.168 0.03,-0.041 0.06,-0.063 0.11,-0.063 0.08,0 0.17,0.037 0.25,0.104 0.09,0.07 0.23,0.226 0.43,0.468 l 0.18,-0.148 z m -3.3,-0.047 c 0,-0.156 0.03,-0.273 0.08,-0.346 0.05,-0.074 0.14,-0.111 0.25,-0.111 0.14,0 0.31,0.098 0.5,0.289 0.19,0.191 0.42,0.481 0.68,0.861 0.2,0.293 0.36,0.573 0.48,0.838 0.13,0.262 0.19,0.444 0.19,0.541 0,0.073 -0.03,0.131 -0.08,0.17 -0.06,0.039 -0.14,0.059 -0.25,0.059 -0.17,0 -0.34,-0.051 -0.52,-0.145 -0.19,-0.099 -0.35,-0.234 -0.52,-0.408 -0.23,-0.254 -0.43,-0.549 -0.58,-0.885 -0.15,-0.334 -0.23,-0.625 -0.23,-0.863 m -7.3,0.652 1.15,3.989 c 0.02,0.093 0.05,0.177 0.06,0.252 0.01,0.07 0.02,0.132 0.02,0.181 0,0.176 -0.21,0.282 -0.62,0.313 l 0.04,0.24 c 0.3,0.039 0.59,0.09 0.87,0.146 0.28,0.057 0.54,0.125 0.8,0.202 l 0.1,-0.061 -1.51,-4.799 c 0.47,0.641 0.91,1.119 1.32,1.438 0.41,0.314 0.8,0.474 1.16,0.474 0.24,0 0.43,-0.087 0.58,-0.265 0.15,-0.18 0.22,-0.412 0.22,-0.697 0,-0.313 -0.09,-0.645 -0.27,-0.997 -0.17,-0.353 -0.42,-0.695 -0.75,-1.029 -0.41,-0.42 -0.84,-0.746 -1.29,-0.973 -0.44,-0.23 -0.87,-0.343 -1.27,-0.343 -0.27,0 -0.49,0.07 -0.64,0.205 -0.15,0.14 -0.23,0.328 -0.23,0.568 0,0.092 0.02,0.225 0.05,0.395 0.04,0.166 0.11,0.422 0.21,0.761 m 2.79,1.739 C -18,3.399 -18.16,3.342 -18.33,3.231 -18.5,3.117 -18.71,2.93 -18.96,2.664 -19.28,2.328 -19.53,1.989 -19.72,1.645 -19.91,1.303 -20,1.02 -20,0.797 c 0,-0.182 0.05,-0.322 0.14,-0.416 0.09,-0.096 0.22,-0.144 0.39,-0.144 0.17,0 0.34,0.052 0.51,0.152 0.18,0.103 0.34,0.248 0.5,0.437 0.3,0.356 0.55,0.731 0.74,1.123 0.19,0.395 0.29,0.713 0.29,0.956 0,0.164 -0.04,0.287 -0.11,0.369 -0.07,0.084 -0.17,0.125 -0.31,0.125 m -13.17,0.636 c 0.44,0 0.79,-0.146 1.07,-0.441 0.27,-0.295 0.4,-0.684 0.4,-1.17 0,-0.289 -0.05,-0.584 -0.16,-0.887 -0.1,-0.298 -0.26,-0.584 -0.45,-0.849 -0.23,-0.307 -0.49,-0.541 -0.79,-0.707 -0.31,-0.168 -0.62,-0.25 -0.94,-0.25 -0.46,0 -0.82,0.148 -1.1,0.447 -0.28,0.301 -0.41,0.697 -0.41,1.193 0,0.293 0.05,0.59 0.16,0.885 0.11,0.293 0.27,0.576 0.47,0.842 0.24,0.31 0.51,0.539 0.81,0.701 0.29,0.156 0.61,0.236 0.94,0.236 m -0.06,-0.324 c -0.16,0 -0.3,-0.055 -0.43,-0.172 -0.13,-0.119 -0.26,-0.304 -0.39,-0.564 -0.18,-0.356 -0.33,-0.729 -0.43,-1.108 -0.1,-0.384 -0.15,-0.732 -0.15,-1.05 0,-0.243 0.05,-0.43 0.15,-0.565 0.1,-0.133 0.24,-0.197 0.43,-0.197 0.18,0 0.34,0.066 0.49,0.201 0.14,0.137 0.29,0.354 0.42,0.65 0.16,0.333 0.29,0.676 0.37,1.03 0.09,0.355 0.13,0.683 0.13,0.984 0,0.252 -0.05,0.447 -0.16,0.586 -0.1,0.139 -0.25,0.205 -0.43,0.205 m -4.95,-2.842 c -0.29,-0.404 -0.56,-0.695 -0.81,-0.871 -0.26,-0.177 -0.53,-0.267 -0.83,-0.267 -0.21,0 -0.37,0.054 -0.49,0.166 -0.12,0.111 -0.18,0.263 -0.18,0.461 0,0.064 0.01,0.131 0.02,0.205 0.02,0.072 0.04,0.152 0.06,0.238 l 0.76,2.588 -0.69,0 0,0.34 0.78,0 0.27,0.939 c 0.04,0.119 0.08,0.197 0.14,0.233 0.06,0.037 0.17,0.052 0.33,0.052 l 0.08,0 c 0.13,0 0.22,-0.013 0.28,-0.045 0.06,-0.033 0.09,-0.08 0.09,-0.146 0,-0.016 -0.01,-0.039 -0.01,-0.072 -0.01,-0.012 -0.01,-0.02 -0.01,-0.022 l -0.28,-0.939 0.91,0 0,-0.34 -1,0 -0.65,-2.301 C -37.27,1.01 -37.29,0.944 -37.3,0.887 -37.31,0.83 -37.32,0.785 -37.32,0.752 c 0,-0.111 0.03,-0.195 0.08,-0.258 0.06,-0.06 0.13,-0.091 0.23,-0.091 0.08,0 0.18,0.045 0.3,0.13 0.11,0.086 0.28,0.252 0.51,0.493 l 0.17,-0.157 z m -14.88,1.621 -0.25,0.083 c 0.15,0.48 0.33,0.841 0.55,1.089 0.22,0.25 0.47,0.373 0.74,0.373 0.38,0 0.67,-0.279 0.85,-0.839 0.19,-0.559 0.28,-1.428 0.28,-2.608 l 0,-0.367 c 0.36,0.478 0.64,0.93 0.84,1.348 0.19,0.421 0.29,0.787 0.29,1.095 0,0.133 -0.03,0.303 -0.1,0.504 -0.06,0.203 -0.09,0.342 -0.09,0.414 0,0.137 0.03,0.244 0.12,0.328 0.08,0.084 0.19,0.125 0.32,0.125 0.15,0 0.27,-0.05 0.36,-0.156 0.1,-0.099 0.14,-0.244 0.14,-0.422 0,-0.422 -0.18,-0.982 -0.53,-1.687 -0.36,-0.699 -0.85,-1.463 -1.48,-2.287 -0.56,-0.709 -1,-1.219 -1.35,-1.526 -0.35,-0.304 -0.64,-0.457 -0.89,-0.457 -0.13,0 -0.24,0.039 -0.33,0.121 -0.09,0.082 -0.14,0.188 -0.14,0.309 0,0.123 0.04,0.221 0.12,0.293 0.07,0.074 0.17,0.111 0.3,0.111 0.08,0 0.19,-0.023 0.32,-0.07 0.13,-0.045 0.22,-0.068 0.26,-0.068 0.09,0 0.2,0.056 0.33,0.169 0.13,0.116 0.26,0.264 0.39,0.45 0.12,0.158 0.2,0.334 0.25,0.523 0.05,0.192 0.08,0.455 0.08,0.797 0,1.061 -0.07,1.855 -0.19,2.375 -0.12,0.52 -0.3,0.781 -0.55,0.781 -0.13,0 -0.24,-0.058 -0.34,-0.179 -0.09,-0.12 -0.2,-0.327 -0.3,-0.622 M -53.4,1.055 c -0.29,-0.42 -0.56,-0.734 -0.81,-0.947 -0.24,-0.215 -0.46,-0.321 -0.64,-0.321 -0.13,0 -0.23,0.045 -0.31,0.131 -0.08,0.082 -0.12,0.203 -0.12,0.356 0,0.109 0.05,0.3 0.12,0.57 0.09,0.273 0.2,0.6 0.35,0.982 l -0.04,0 c -0.37,-0.66 -0.75,-1.168 -1.12,-1.519 -0.36,-0.352 -0.7,-0.529 -1.01,-0.529 -0.19,0 -0.35,0.064 -0.45,0.197 -0.11,0.129 -0.16,0.316 -0.16,0.558 0,0.389 0.12,0.799 0.36,1.241 0.24,0.439 0.58,0.845 1,1.211 0.31,0.275 0.63,0.482 0.95,0.617 0.31,0.137 0.63,0.203 0.95,0.203 0.06,0 0.14,-0.006 0.24,-0.016 0.01,0 0.02,-0.004 0.03,-0.006 l 0.24,0.34 0.58,0 C -53.61,3.24 -53.9,2.51 -54.1,1.938 c -0.21,-0.571 -0.31,-0.932 -0.31,-1.076 0,-0.073 0.01,-0.129 0.04,-0.168 0.02,-0.041 0.06,-0.063 0.1,-0.063 0.09,0 0.18,0.037 0.26,0.104 0.09,0.07 0.23,0.226 0.42,0.468 l 0.19,-0.148 z m -3.3,-0.047 c 0,-0.156 0.02,-0.273 0.08,-0.346 0.05,-0.074 0.13,-0.111 0.25,-0.111 0.13,0 0.3,0.098 0.5,0.289 0.19,0.191 0.42,0.481 0.68,0.861 0.19,0.293 0.35,0.573 0.48,0.838 0.13,0.262 0.19,0.444 0.19,0.541 0,0.073 -0.03,0.131 -0.08,0.17 -0.07,0.039 -0.15,0.059 -0.25,0.059 -0.17,0 -0.34,-0.051 -0.52,-0.145 C -55.56,3.065 -55.73,2.93 -55.89,2.756 -56.13,2.502 -56.32,2.207 -56.47,1.871 -56.62,1.537 -56.7,1.246 -56.7,1.008 m -7.85,2.301 -0.95,0 c -0.22,0 -0.39,-0.033 -0.51,-0.098 -0.11,-0.066 -0.17,-0.168 -0.17,-0.299 0,-0.056 0.06,-0.138 0.17,-0.254 0.1,-0.113 0.16,-0.205 0.16,-0.287 0,-0.117 -0.04,-0.216 -0.12,-0.3 -0.08,-0.081 -0.17,-0.123 -0.28,-0.123 -0.12,0 -0.21,0.046 -0.29,0.14 -0.07,0.092 -0.11,0.215 -0.11,0.369 0,0.129 0.06,0.326 0.19,0.596 0.13,0.27 0.29,0.512 0.47,0.732 0.07,0.086 0.15,0.151 0.23,0.19 0.09,0.043 0.19,0.06 0.3,0.06 0.05,0 0.16,-0.005 0.34,-0.011 0.19,-0.01 0.35,-0.014 0.49,-0.014 0.11,0 0.22,0.002 0.35,0.008 0.12,0.004 0.25,0.008 0.39,0.017 l 0.09,-0.093 c -0.41,-0.571 -0.72,-1.059 -0.93,-1.475 -0.2,-0.412 -0.3,-0.756 -0.3,-1.033 0,-0.262 0.07,-0.471 0.2,-0.623 0.14,-0.155 0.32,-0.231 0.55,-0.231 0.1,0 0.22,0.028 0.35,0.078 0.13,0.055 0.27,0.137 0.42,0.241 -0.01,0.07 -0.02,0.144 -0.02,0.22 l 0,0.223 c 0,0.293 0.02,0.586 0.09,0.873 0.07,0.289 0.17,0.572 0.3,0.858 0.14,0.306 0.29,0.546 0.46,0.716 0.17,0.17 0.33,0.256 0.49,0.256 0.14,0 0.26,-0.053 0.34,-0.158 0.09,-0.104 0.13,-0.25 0.13,-0.43 0,-0.334 -0.1,-0.701 -0.3,-1.113 -0.2,-0.41 -0.49,-0.82 -0.86,-1.23 0.04,-0.182 0.12,-0.319 0.23,-0.411 0.12,-0.093 0.25,-0.142 0.42,-0.142 0.22,0 0.44,0.08 0.68,0.24 0.23,0.164 0.44,0.389 0.63,0.676 0.14,0.199 0.24,0.4 0.31,0.599 0.07,0.2 0.1,0.383 0.1,0.551 0,0.096 -0.01,0.184 -0.02,0.252 -0.03,0.069 -0.06,0.129 -0.09,0.168 -0.03,0.029 -0.06,0.065 -0.11,0.115 -0.15,0.145 -0.22,0.28 -0.22,0.401 0,0.138 0.04,0.25 0.13,0.342 0.09,0.091 0.2,0.14 0.34,0.14 0.17,0 0.3,-0.064 0.39,-0.197 0.1,-0.133 0.15,-0.317 0.15,-0.557 0,-0.297 -0.07,-0.633 -0.2,-1.002 -0.12,-0.369 -0.3,-0.74 -0.53,-1.105 -0.29,-0.457 -0.6,-0.813 -0.92,-1.07 -0.32,-0.254 -0.63,-0.383 -0.93,-0.383 -0.23,0 -0.43,0.064 -0.58,0.197 -0.16,0.135 -0.27,0.328 -0.34,0.584 -0.22,-0.256 -0.44,-0.449 -0.65,-0.576 -0.21,-0.125 -0.43,-0.188 -0.65,-0.188 -0.3,0 -0.55,0.098 -0.74,0.295 -0.19,0.197 -0.28,0.455 -0.28,0.774 0,0.295 0.1,0.65 0.3,1.062 0.2,0.416 0.5,0.891 0.91,1.43 m 1.56,-1.899 c 0.26,0.293 0.46,0.584 0.6,0.873 0.14,0.288 0.21,0.54 0.21,0.752 0,0.092 -0.02,0.161 -0.06,0.211 -0.04,0.047 -0.1,0.071 -0.18,0.071 -0.16,0 -0.31,-0.137 -0.43,-0.409 -0.12,-0.271 -0.18,-0.607 -0.18,-1.005 0,-0.065 0,-0.137 0.01,-0.213 0,-0.078 0.02,-0.172 0.03,-0.28 M -75.06,0.869 c -0.29,-0.404 -0.56,-0.695 -0.81,-0.871 -0.26,-0.177 -0.53,-0.267 -0.82,-0.267 -0.22,0 -0.38,0.054 -0.5,0.166 -0.11,0.111 -0.17,0.263 -0.17,0.461 0,0.064 0,0.131 0.01,0.205 0.02,0.072 0.04,0.152 0.07,0.238 l 0.75,2.588 -0.69,0 0,0.34 0.79,0 0.26,0.939 c 0.04,0.119 0.08,0.197 0.14,0.233 0.06,0.037 0.17,0.052 0.33,0.052 l 0.08,0 c 0.13,0 0.22,-0.013 0.28,-0.045 0.06,-0.033 0.09,-0.08 0.09,-0.146 0,-0.016 -0.01,-0.039 -0.01,-0.072 -0.01,-0.012 -0.01,-0.02 -0.01,-0.022 l -0.28,-0.939 0.91,0 0,-0.34 -1,0 -0.64,-2.301 C -76.3,1.01 -76.32,0.944 -76.33,0.887 -76.34,0.83 -76.35,0.785 -76.35,0.752 c 0,-0.111 0.03,-0.195 0.08,-0.258 0.06,-0.06 0.14,-0.091 0.23,-0.091 0.08,0 0.18,0.045 0.3,0.13 0.11,0.086 0.28,0.252 0.51,0.493 l 0.17,-0.157 z m -6.34,1.51 c 0.29,0.58 0.55,1 0.79,1.258 0.23,0.262 0.47,0.389 0.71,0.389 0.15,0 0.26,-0.036 0.35,-0.11 0.08,-0.076 0.12,-0.179 0.12,-0.31 0,-0.153 -0.04,-0.289 -0.13,-0.405 -0.08,-0.115 -0.18,-0.175 -0.29,-0.175 -0.07,0 -0.16,0.027 -0.27,0.082 -0.11,0.054 -0.2,0.078 -0.25,0.078 -0.16,0 -0.33,-0.113 -0.49,-0.344 -0.16,-0.23 -0.37,-0.686 -0.64,-1.365 l -0.53,-1.326 c 0,-0.01 -0.01,-0.024 -0.02,-0.039 -0.08,-0.196 -0.23,-0.295 -0.44,-0.295 l -0.05,0 -0.06,0.007 c -0.13,0.004 -0.23,0.022 -0.29,0.055 -0.07,0.033 -0.1,0.08 -0.1,0.139 0,0.015 0,0.031 0.01,0.053 0,0.017 0.01,0.037 0.02,0.054 l 0.03,0.096 c 0.31,0.713 0.53,1.289 0.68,1.725 0.15,0.437 0.22,0.738 0.22,0.904 0,0.09 -0.02,0.16 -0.07,0.211 -0.04,0.049 -0.11,0.072 -0.19,0.072 -0.06,0 -0.12,-0.037 -0.19,-0.111 -0.08,-0.074 -0.15,-0.178 -0.23,-0.319 l -0.2,0.116 c 0.19,0.39 0.39,0.687 0.62,0.894 0.21,0.209 0.44,0.313 0.66,0.313 0.14,0 0.25,-0.041 0.33,-0.129 0.07,-0.088 0.11,-0.207 0.11,-0.358 0,-0.16 -0.02,-0.338 -0.06,-0.527 -0.04,-0.195 -0.11,-0.402 -0.19,-0.623 l 0.04,-0.01 z m -4.03,-1.324 c -0.29,-0.42 -0.56,-0.734 -0.81,-0.947 -0.24,-0.215 -0.45,-0.321 -0.63,-0.321 -0.14,0 -0.24,0.045 -0.32,0.131 -0.08,0.082 -0.12,0.203 -0.12,0.356 0,0.109 0.04,0.3 0.13,0.57 0.08,0.273 0.19,0.6 0.34,0.982 l -0.03,0 c -0.38,-0.66 -0.76,-1.168 -1.13,-1.519 -0.36,-0.352 -0.7,-0.529 -1.01,-0.529 -0.19,0 -0.34,0.064 -0.45,0.197 -0.11,0.129 -0.16,0.316 -0.16,0.558 0,0.389 0.12,0.799 0.36,1.241 0.24,0.439 0.58,0.845 1,1.211 0.32,0.275 0.63,0.482 0.95,0.617 0.31,0.137 0.63,0.203 0.95,0.203 0.06,0 0.14,-0.006 0.25,-0.016 0.01,0 0.01,-0.004 0.02,-0.006 l 0.24,0.34 0.58,0 c -0.37,-0.883 -0.66,-1.613 -0.86,-2.185 -0.21,-0.571 -0.31,-0.932 -0.31,-1.076 0,-0.073 0.01,-0.129 0.04,-0.168 0.02,-0.041 0.06,-0.063 0.11,-0.063 0.08,0 0.17,0.037 0.25,0.104 0.09,0.07 0.24,0.226 0.43,0.468 l 0.18,-0.148 z m -3.3,-0.047 c 0,-0.156 0.03,-0.273 0.08,-0.346 0.05,-0.074 0.14,-0.111 0.25,-0.111 0.14,0 0.3,0.098 0.49,0.289 0.2,0.191 0.43,0.481 0.69,0.861 0.2,0.293 0.36,0.573 0.48,0.838 0.13,0.262 0.19,0.444 0.19,0.541 0,0.073 -0.03,0.131 -0.09,0.17 -0.05,0.039 -0.13,0.059 -0.24,0.059 -0.17,0 -0.34,-0.051 -0.53,-0.145 -0.18,-0.099 -0.35,-0.234 -0.51,-0.408 -0.24,-0.254 -0.43,-0.549 -0.58,-0.885 -0.16,-0.334 -0.23,-0.625 -0.23,-0.863 m -9.67,-1.191 -0.07,0.007 c -0.11,0.004 -0.2,0.024 -0.26,0.059 -0.07,0.037 -0.1,0.084 -0.1,0.145 0,0.013 0,0.027 0.01,0.045 0,0.017 0.01,0.035 0.02,0.052 l 0.03,0.096 c 0.31,0.734 0.54,1.318 0.68,1.744 0.16,0.424 0.23,0.723 0.23,0.885 0,0.09 -0.03,0.16 -0.07,0.211 -0.05,0.049 -0.11,0.072 -0.2,0.072 -0.06,0 -0.13,-0.037 -0.2,-0.111 -0.07,-0.074 -0.15,-0.178 -0.23,-0.319 l -0.19,0.116 c 0.19,0.39 0.39,0.687 0.61,0.894 0.22,0.209 0.45,0.313 0.67,0.313 0.14,0 0.25,-0.045 0.33,-0.131 0.08,-0.09 0.12,-0.207 0.12,-0.356 0,-0.113 -0.01,-0.242 -0.04,-0.394 -0.03,-0.151 -0.07,-0.317 -0.12,-0.496 0.3,0.461 0.61,0.808 0.91,1.039 0.3,0.232 0.59,0.347 0.88,0.347 0.21,0 0.37,-0.062 0.5,-0.187 0.13,-0.125 0.2,-0.287 0.2,-0.484 0,-0.065 -0.01,-0.145 -0.03,-0.245 -0.02,-0.097 -0.06,-0.224 -0.1,-0.38 0.35,0.437 0.7,0.767 1.02,0.986 0.33,0.219 0.64,0.328 0.94,0.328 0.21,0 0.37,-0.059 0.5,-0.174 0.12,-0.113 0.18,-0.271 0.18,-0.469 0,-0.084 -0.01,-0.175 -0.04,-0.281 -0.03,-0.105 -0.06,-0.228 -0.12,-0.373 l -0.51,-1.361 0,-0.012 c -0.13,-0.348 -0.19,-0.555 -0.19,-0.619 0,-0.066 0.02,-0.121 0.06,-0.164 0.04,-0.043 0.09,-0.065 0.14,-0.065 0.09,0 0.19,0.045 0.3,0.137 0.11,0.092 0.25,0.236 0.41,0.442 l 0.19,-0.139 c -0.3,-0.395 -0.59,-0.697 -0.86,-0.904 -0.28,-0.209 -0.53,-0.313 -0.75,-0.313 -0.15,0 -0.28,0.049 -0.37,0.148 -0.09,0.098 -0.14,0.229 -0.14,0.395 0,0.121 0.08,0.391 0.25,0.818 0.08,0.213 0.15,0.387 0.19,0.516 0.18,0.479 0.3,0.832 0.37,1.061 0.08,0.23 0.11,0.38 0.11,0.457 0,0.109 -0.03,0.195 -0.09,0.257 -0.06,0.061 -0.14,0.09 -0.25,0.09 -0.29,0 -0.62,-0.244 -0.96,-0.732 -0.34,-0.49 -0.66,-1.17 -0.97,-2.041 l -0.2,-0.592 c -0.05,-0.133 -0.1,-0.217 -0.14,-0.258 -0.04,-0.039 -0.12,-0.06 -0.24,-0.06 l -0.14,0 -0.06,0 c -0.12,0.004 -0.21,0.017 -0.27,0.043 -0.05,0.025 -0.08,0.062 -0.08,0.115 0,0.035 0.01,0.08 0.02,0.133 0.01,0.054 0.03,0.113 0.05,0.175 l 0.79,2.207 c 0.04,0.104 0.07,0.206 0.09,0.303 0.02,0.102 0.03,0.196 0.03,0.28 0,0.117 -0.03,0.216 -0.1,0.291 -0.06,0.076 -0.16,0.111 -0.27,0.111 -0.23,0 -0.48,-0.188 -0.75,-0.565 -0.26,-0.373 -0.53,-0.912 -0.79,-1.617 L -97.9,0.145 c -0.06,-0.147 -0.11,-0.239 -0.16,-0.276 -0.04,-0.035 -0.13,-0.052 -0.25,-0.052 l -0.09,0 z m -7.28,0.375 c 0.05,0.142 0.1,0.302 0.15,0.478 0.05,0.174 0.13,0.44 0.23,0.797 l 0.31,-0.053 c -0.02,-0.101 -0.03,-0.191 -0.04,-0.269 -0.01,-0.078 -0.01,-0.143 -0.01,-0.196 0,-0.281 0.09,-0.496 0.28,-0.648 0.19,-0.152 0.46,-0.23 0.8,-0.23 0.35,0 0.64,0.103 0.86,0.308 0.22,0.207 0.33,0.471 0.33,0.787 0,0.358 -0.28,0.862 -0.84,1.514 -0.08,0.088 -0.13,0.154 -0.17,0.197 -0.36,0.416 -0.59,0.742 -0.7,0.975 -0.1,0.232 -0.15,0.476 -0.15,0.734 0,0.531 0.19,0.973 0.57,1.32 0.38,0.352 0.86,0.526 1.45,0.526 0.28,0 0.54,-0.041 0.8,-0.125 0.25,-0.08 0.51,-0.205 0.76,-0.379 -0.06,-0.17 -0.12,-0.348 -0.17,-0.529 -0.05,-0.18 -0.08,-0.369 -0.12,-0.565 l -0.31,0.072 c 0.01,0.073 0.01,0.124 0.02,0.155 l 0,0.095 c 0,0.288 -0.08,0.514 -0.25,0.678 -0.17,0.164 -0.4,0.248 -0.69,0.248 -0.33,0 -0.6,-0.105 -0.82,-0.308 -0.21,-0.203 -0.32,-0.461 -0.32,-0.774 0,-0.205 0.05,-0.406 0.16,-0.609 0.1,-0.199 0.32,-0.486 0.65,-0.854 0.03,-0.033 0.08,-0.084 0.13,-0.152 0.67,-0.738 1,-1.359 1,-1.867 0,-0.537 -0.19,-0.969 -0.59,-1.305 -0.4,-0.334 -0.92,-0.5 -1.57,-0.5 -0.3,0 -0.59,0.039 -0.88,0.119 -0.29,0.078 -0.58,0.198 -0.87,0.36"
         id="path4034"
         style="fill:#ffffff;fill-opacity:1;fill-rule:evenodd;stroke:none" />
    </g>
  </g>
</svg>
