<?xml version="1.0" encoding="UTF-8" standalone="no"?>
<!-- Created with Inkscape (http://www.inkscape.org/) -->

<svg
   xmlns:dc="http://purl.org/dc/elements/1.1/"
   xmlns:cc="http://creativecommons.org/ns#"
   xmlns:rdf="http://www.w3.org/1999/02/22-rdf-syntax-ns#"
   xmlns:svg="http://www.w3.org/2000/svg"
   xmlns="http://www.w3.org/2000/svg"
   version="1.1"
   width="700.09003"
   height="130"
   id="svg11934">
  <defs
     id="defs11936">
    <clipPath
       id="clipPath44">
      <path
         d="m 0,742.006 558.234,0 0,-101.526 -558.234,0 0,101.526 z"
         id="path46" />
    </clipPath>
  </defs>
  <metadata
     id="metadata11939">
    <rdf:RDF>
      <cc:Work
         rdf:about="">
        <dc:format>image/svg+xml</dc:format>
        <dc:type
           rdf:resource="http://purl.org/dc/dcmitype/StillImage" />
        <dc:title></dc:title>
      </cc:Work>
    </rdf:RDF>
  </metadata>
  <g
     transform="translate(0,-922.3622)"
     id="layer1">
    <path
       d="m 1.9982414,924.84867 697.7924986,0 0,126.90753 -697.7924986,0 0,-126.90753 z"
       id="path38"
       style="fill:#ed1c24;fill-opacity:1;fill-rule:evenodd;stroke:none" />
    <g
       transform="matrix(1.6175613,0,0,-2.5698561,102.14395,1007.1021)"
       id="g94">
      <path
         d="m 0,0 -9.676,0 c 0.096,0.181 0.15,0.434 0.158,0.765 l 0,13.845 c -0.008,0.331 -0.062,0.584 -0.158,0.765 l 5.517,0 C -4.248,15.194 -4.298,14.941 -4.305,14.61 l 0,-12.288 3.221,0 C -0.571,2.33 -0.212,2.388 0,2.491 L 0,0 z M 5.383,3.887 4.298,0.765 C 4.21,0.504 4.163,0.307 4.163,0.181 4.163,0.15 4.175,0.089 4.198,0 L 1.405,0 c 0.173,0.181 0.32,0.434 0.439,0.765 l 4.85,13.845 c 0.097,0.269 0.146,0.469 0.146,0.596 0,0.031 -0.007,0.088 -0.023,0.169 l 4.376,0 c -0.008,-0.069 -0.012,-0.111 -0.012,-0.135 0,-0.119 0.054,-0.329 0.159,-0.63 L 16.301,0.765 C 16.428,0.434 16.591,0.181 16.787,0 l -5.945,0 c 0.015,0.089 0.023,0.15 0.023,0.181 0,0.15 -0.039,0.346 -0.112,0.584 l -1.018,3.122 -4.352,0 z M 6.208,6.21 8.967,6.21 7.62,10.658 6.208,6.21 z m 17.705,0.13 0,-5.575 C 23.921,0.434 23.975,0.181 24.071,0 l -5.528,0 c 0.096,0.181 0.15,0.434 0.158,0.765 l 0,13.845 c -0.008,0.339 -0.062,0.592 -0.158,0.765 l 5.528,0 c -0.096,-0.181 -0.15,-0.434 -0.158,-0.765 l 0,-6.117 3.538,6.117 c 0.151,0.269 0.251,0.527 0.305,0.765 l 3.889,0 C 31.426,15.187 31.221,14.933 31.024,14.61 L 27.756,9.089 31.757,0.777 C 31.915,0.454 32.089,0.196 32.278,0 l -6.092,0 c -0.008,0.188 -0.073,0.446 -0.193,0.777 l -2.08,5.563 z m 9.758,-5.348 0.779,3.087 c 0.56,-0.446 0.972,-0.757 1.243,-0.938 0.89,-0.607 1.793,-0.911 2.711,-0.911 0.568,0 1.015,0.13 1.347,0.396 0.375,0.284 0.563,0.665 0.563,1.146 0,0.519 -0.235,0.919 -0.702,1.195 -0.193,0.112 -0.934,0.431 -2.214,0.958 -1.393,0.569 -2.338,1.218 -2.836,1.949 -0.521,0.765 -0.779,1.638 -0.779,2.622 0,1.023 0.27,1.946 0.814,2.772 1.041,1.592 2.839,2.388 5.405,2.388 1.482,0 2.944,-0.319 4.383,-0.957 l -0.664,-2.926 c -1.42,1.065 -2.612,1.595 -3.584,1.595 -0.447,0 -0.81,-0.123 -1.092,-0.373 -0.281,-0.246 -0.424,-0.565 -0.424,-0.957 0,-0.411 0.147,-0.715 0.436,-0.911 0.289,-0.196 1.15,-0.565 2.581,-1.115 1.47,-0.562 2.45,-1.257 2.94,-2.084 0.413,-0.688 0.621,-1.507 0.621,-2.453 0,-1.165 -0.262,-2.207 -0.79,-3.134 -1.004,-1.749 -2.863,-2.622 -5.584,-2.622 -0.941,0 -1.79,0.093 -2.55,0.281 -0.756,0.188 -1.625,0.519 -2.604,0.992 z m 19.434,5.698 0,-5.925 C 53.112,0.419 53.166,0.165 53.262,0 l -5.528,0 c 0.096,0.165 0.15,0.419 0.158,0.765 l 0,13.845 c -0.008,0.339 -0.062,0.592 -0.158,0.765 l 5.528,0 c -0.096,-0.219 -0.15,-0.472 -0.157,-0.765 l 0,-5.598 3.522,0 0,5.598 c -0.007,0.277 -0.062,0.531 -0.158,0.765 l 5.529,0 C 61.901,15.202 61.848,14.949 61.84,14.61 l 0,-13.845 C 61.848,0.419 61.901,0.165 61.998,0 l -5.529,0 c 0.096,0.173 0.151,0.426 0.158,0.765 l 0,5.925 -3.522,0 z M 67.935,8.47 67.033,0.765 C 67.025,0.707 67.021,0.646 67.021,0.584 67.021,0.4 67.067,0.204 67.156,0 l -2.859,0 c 0.127,0.181 0.216,0.434 0.27,0.765 l 1.945,13.845 c 0.023,0.166 0.034,0.315 0.034,0.45 0,0.054 -0.011,0.157 -0.034,0.315 l 4.599,0 c -0.015,-0.096 -0.023,-0.165 -0.023,-0.204 0,-0.149 0.038,-0.338 0.111,-0.561 l 2.898,-8.754 2.928,8.754 c 0.089,0.269 0.136,0.477 0.136,0.619 0,0.031 -0.005,0.077 -0.012,0.146 l 4.487,0 c -0.023,-0.158 -0.035,-0.261 -0.035,-0.315 0,-0.104 0.012,-0.254 0.035,-0.45 L 83.465,0.765 C 83.519,0.434 83.611,0.181 83.75,0 l -5.563,0 c 0.015,0.158 0.023,0.261 0.023,0.315 0,0.119 -0.008,0.269 -0.023,0.45 L 77.442,8.47 74.853,0.765 C 74.772,0.527 74.73,0.327 74.73,0.169 74.73,0.138 74.734,0.08 74.741,0 L 70.59,0 c 0.008,0.069 0.011,0.115 0.011,0.146 0,0.135 -0.046,0.342 -0.134,0.619 L 67.935,8.47 z m 18.303,6.905 5.529,0 C 91.671,15.194 91.617,14.941 91.61,14.61 l 0,-13.845 C 91.617,0.434 91.671,0.181 91.767,0 l -5.529,0 c 0.097,0.181 0.151,0.434 0.159,0.765 l 0,13.845 c -0.008,0.331 -0.062,0.584 -0.159,0.765 z m 15.094,0 5.915,0 c -0.054,-0.165 -0.081,-0.284 -0.081,-0.361 0,-0.096 0.027,-0.231 0.081,-0.404 l 2.766,-9.373 3.01,9.361 c 0.05,0.174 0.077,0.313 0.077,0.416 0,0.077 -0.027,0.196 -0.077,0.361 l 2.836,0 c -0.174,-0.188 -0.317,-0.442 -0.429,-0.765 L 111.055,0.765 c -0.081,-0.254 -0.124,-0.454 -0.124,-0.596 0,-0.031 0.004,-0.089 0.012,-0.169 l -4.896,0 c 0.015,0.104 0.023,0.173 0.023,0.204 0,0.134 -0.039,0.323 -0.112,0.561 l -4.228,13.833 c -0.105,0.323 -0.24,0.581 -0.398,0.777 z m 16.135,0 5.529,0 c -0.096,-0.181 -0.15,-0.434 -0.158,-0.765 l 0,-13.845 C 122.846,0.434 122.9,0.181 122.996,0 l -5.529,0 c 0.097,0.181 0.151,0.434 0.158,0.765 l 0,13.845 c -0.007,0.331 -0.061,0.584 -0.158,0.765 z M 136.098,0 126.422,0 c 0.096,0.181 0.151,0.434 0.158,0.765 l 0,13.845 c -0.007,0.331 -0.062,0.584 -0.158,0.765 l 5.517,0 C 131.85,15.194 131.8,14.941 131.793,14.61 l 0,-12.288 3.221,0 c 0.514,0.008 0.872,0.066 1.084,0.169 l 0,-2.491 z m 5.382,3.887 -1.084,-3.122 c -0.089,-0.261 -0.135,-0.458 -0.135,-0.584 0,-0.031 0.012,-0.092 0.035,-0.181 l -2.793,0 c 0.173,0.181 0.32,0.434 0.439,0.765 l 4.85,13.845 c 0.097,0.269 0.147,0.469 0.147,0.596 0,0.031 -0.008,0.088 -0.023,0.169 l 4.375,0 c -0.008,-0.069 -0.012,-0.111 -0.012,-0.135 0,-0.119 0.055,-0.329 0.158,-0.63 l 4.962,-13.845 c 0.127,-0.331 0.29,-0.584 0.486,-0.765 l -5.945,0 c 0.016,0.089 0.023,0.15 0.023,0.181 0,0.15 -0.039,0.346 -0.112,0.584 l -1.018,3.122 -4.353,0 z m 0.826,2.323 2.759,0 -1.346,4.448 -1.413,-4.448 z m 11.532,-5.218 0.78,3.087 c 0.559,-0.446 0.972,-0.757 1.242,-0.938 0.891,-0.607 1.794,-0.911 2.712,-0.911 0.567,0 1.015,0.13 1.347,0.396 0.374,0.284 0.563,0.665 0.563,1.146 0,0.519 -0.235,0.919 -0.702,1.195 -0.193,0.112 -0.934,0.431 -2.214,0.958 -1.393,0.569 -2.339,1.218 -2.836,1.949 -0.521,0.765 -0.78,1.638 -0.78,2.622 0,1.023 0.27,1.946 0.814,2.772 1.042,1.592 2.84,2.388 5.406,2.388 1.481,0 2.943,-0.319 4.382,-0.957 l -0.663,-2.926 c -1.42,1.065 -2.612,1.595 -3.584,1.595 -0.448,0 -0.81,-0.123 -1.092,-0.373 -0.282,-0.246 -0.425,-0.565 -0.425,-0.957 0,-0.411 0.147,-0.715 0.437,-0.911 0.289,-0.196 1.149,-0.565 2.581,-1.115 1.469,-0.562 2.45,-1.257 2.939,-2.084 0.413,-0.688 0.622,-1.507 0.622,-2.453 0,-1.165 -0.263,-2.207 -0.791,-3.134 -1.003,-1.749 -2.863,-2.622 -5.583,-2.622 -0.941,0 -1.791,0.093 -2.55,0.281 -0.757,0.188 -1.625,0.519 -2.605,0.992 z m 22,14.383 8.006,0 c 1.296,0 2.311,-0.338 3.052,-1.015 0.714,-0.661 1.072,-1.63 1.072,-2.906 0,-1.365 -0.417,-2.319 -1.254,-2.861 -0.266,-0.165 -0.717,-0.358 -1.358,-0.577 0.83,-0.184 1.466,-0.495 1.91,-0.934 0.641,-0.638 0.961,-1.557 0.961,-2.757 0,-1.684 -0.575,-2.891 -1.729,-3.626 C 185.762,0.234 184.889,0 183.886,0 l -8.048,0 c 0.096,0.196 0.15,0.454 0.158,0.777 l 0,13.833 c -0.008,0.346 -0.062,0.6 -0.158,0.765 z m 5.371,-6.624 0.428,0 c 0.483,0 0.821,0.169 1.011,0.507 0.193,0.338 0.289,0.931 0.289,1.781 0,0.746 -0.104,1.287 -0.316,1.629 -0.212,0.343 -0.548,0.512 -1.015,0.512 l -0.397,0 0,-4.429 z m 0,-6.598 0.563,0 c 0.424,0 0.733,0.165 0.93,0.496 0.197,0.33 0.293,0.854 0.293,1.573 0,0.849 -0.093,1.453 -0.278,1.818 -0.185,0.365 -0.49,0.546 -0.922,0.546 l -0.586,0 0,-4.433 z m 12.165,1.734 -1.085,-3.122 c -0.088,-0.261 -0.135,-0.458 -0.135,-0.584 0,-0.031 0.012,-0.092 0.035,-0.181 l -2.793,0 c 0.173,0.181 0.32,0.434 0.439,0.765 l 4.85,13.845 c 0.097,0.269 0.147,0.469 0.147,0.596 0,0.031 -0.008,0.088 -0.023,0.169 l 4.375,0 c -0.008,-0.069 -0.012,-0.111 -0.012,-0.135 0,-0.119 0.055,-0.329 0.159,-0.63 L 204.293,0.765 C 204.42,0.434 204.581,0.181 204.779,0 l -5.946,0 c 0.015,0.089 0.023,0.15 0.023,0.181 0,0.15 -0.039,0.346 -0.112,0.584 l -1.019,3.122 -4.351,0 z m 0.825,2.323 2.759,0 -1.347,4.448 -1.412,-4.448 z m 14.812,2.902 0,-8.347 C 209.018,0.434 209.072,0.181 209.169,0 l -2.647,0 c 0.096,0.196 0.151,0.45 0.158,0.765 l 0,13.845 c -0.007,0.346 -0.062,0.6 -0.158,0.765 l 4.468,0 c 0.035,-0.188 0.177,-0.446 0.428,-0.777 l 6.509,-8.516 0,8.516 c -0.008,0.323 -0.062,0.581 -0.158,0.777 l 2.635,0 c -0.077,-0.096 -0.119,-0.184 -0.135,-0.257 -0.015,-0.077 -0.023,-0.246 -0.023,-0.508 l 0,-13.833 c 0,-0.246 0.054,-0.508 0.158,-0.777 l -4.533,0 c -0.062,0.188 -0.212,0.446 -0.452,0.777 l -6.408,8.335 z m 20.066,-2.772 0,-5.575 C 229.085,0.434 229.139,0.181 229.235,0 l -5.529,0 c 0.097,0.181 0.151,0.434 0.159,0.765 l 0,13.845 c -0.008,0.339 -0.062,0.592 -0.159,0.765 l 5.529,0 c -0.096,-0.181 -0.15,-0.434 -0.158,-0.765 l 0,-6.117 3.538,6.117 c 0.151,0.269 0.251,0.527 0.305,0.765 l 3.889,0 c -0.22,-0.188 -0.424,-0.442 -0.621,-0.765 L 232.92,9.089 236.921,0.777 C 237.079,0.454 237.253,0.196 237.442,0 l -6.092,0 c -0.008,0.188 -0.073,0.446 -0.193,0.777 l -2.08,5.563 z"
         id="path96"
         style="fill:#ffffff;fill-opacity:1;fill-rule:evenodd;stroke:none" />
    </g>
    <g
       transform="matrix(1.25,0,0,-1.25,54.497975,964.84679)"
       id="g98">
      <path
         d="M 0,0 C 9.165,0 16.64,-8.43 16.64,-18.765 16.64,-29.1 9.165,-37.529 0,-37.529 c -9.165,0 -16.639,8.429 -16.639,18.764 C -16.639,-8.43 -9.165,0 0,0"
         id="path100"
         style="fill:#f47216;fill-opacity:1;fill-rule:evenodd;stroke:none" />
    </g>
    <g
       transform="matrix(1.25,0,0,-1.25,362.78919,961.84844)"
       id="g102">
      <path
         d="m -239.41139,-17.59253 c 0.302,0.129 -0.135,0.232 -0.01,0.206 0.122,0.038 0.13,0.094 0.04,0.186 -0.084,0.12 -0.592,0.267 -0.837,0.26 0.006,0.039 0.066,0.077 0.038,0.116 -0.053,0.084 -0.019,0.124 -0.433,-0.031 -0.273,-0.102 -0.528,-0.23 -0.755,-0.351 -0.059,0.148 -0.169,0.067 -0.305,0.116 -0.192,0.069 -0.18,0.163 -0.446,0.076 -0.175,0.13 -0.24,0.425 -0.365,0.604 0.191,0.27 0.425,0.642 0.534,0.976 0.177,0.031 0.4,0.012 0.436,0.177 -0.002,0.042 -0.005,0.083 -0.009,0.125 0.024,0.02 0.048,0.041 0.072,0.062 0.102,0.198 0.013,0.337 -0.024,0.393 -0.034,0.049 0.028,0.127 0.185,0.781 0.033,0.135 0.138,0.267 0.039,0.392 -0.077,0.074 0.093,0.17 0.022,0.333 -0.026,0.024 -0.111,-10e-4 -0.138,0.022 -0.002,0.047 0.035,0.108 0.005,0.156 -0.019,0.112 -0.135,-0.039 -0.142,0.132 -0.005,0.103 -0.105,0.138 -0.139,0.143 -0.168,0.03 -0.016,0.145 -0.151,0.204 0.221,-0.036 0.483,0 0.459,0.017 10e-4,0.007 0.006,0.041 -0.018,0.089 0.353,0.161 0.4,0.24 0.421,0.323 -0.043,0.057 -0.148,0.055 -0.172,0.068 0.159,0.126 0.302,0.515 0.194,0.826 -0.064,0.019 -0.205,-0.101 -0.267,-0.086 -0.062,0.015 -0.134,0.172 -0.194,0.183 -0.104,0.02 -0.104,-0.122 -0.2,-0.112 -0.095,0.008 -0.14,0.255 -0.23,0.215 -0.052,-0.023 -0.109,-0.133 -0.163,-0.145 -0.059,-0.014 -0.122,0.142 -0.162,0.139 -0.064,-0.004 -0.111,-0.135 -0.171,-0.143 -0.046,-0.005 -0.106,0.112 -0.149,0.105 -0.06,-0.011 -0.101,-0.124 -0.155,-0.137 -0.112,-0.027 -0.165,0.113 -0.25,0.083 -0.035,-0.013 -0.029,-0.073 -0.073,-0.123 -0.039,-0.043 -0.122,0.033 -0.144,0.024 -0.036,-0.016 -0.009,-0.105 -0.047,-0.123 -0.045,-0.022 -0.214,0.049 -0.222,0.036 -0.153,-0.524 0.259,-0.763 0.212,-0.751 -0.046,-0.023 -0.281,-0.03 -0.121,-0.204 0.109,-0.15 0.15,-0.176 0.37,-0.178 0,-0.012 -0.013,-0.038 -0.027,-0.08 -0.034,-10e-4 0.153,-0.099 0.624,-0.035 -0.161,-0.354 -0.308,-0.975 -0.033,-1.548 -0.027,-0.043 -0.078,-0.042 -0.122,-0.067 -0.067,-0.04 -0.054,-0.164 -0.092,-0.234 -0.015,-0.016 -0.056,-0.033 -0.077,-0.043 -0.098,-0.058 -0.139,-0.215 -0.111,-0.329 -0.096,-0.12 -0.226,-0.245 -0.358,-0.328 0.055,0.356 0.155,0.753 0.169,1.102 -0.56,0.493 -0.623,0.961 -1.264,1.287 -0.062,0.067 0.085,0.326 -0.098,0.408 -0.009,0.012 -0.018,0.024 -0.027,0.036 0.256,0.268 1.804,3.1009997 -1.158,4.6059997 0.115,0.153 0.364,0.259 0.009,0.55 -0.529,0.55 -0.533,0.627 -0.533,0.626 -0.027,0.05 0.103,0.21 -0.066,0.372 -0.257,0.351 -0.313,0.402 -0.487,0.626 -0.042,0 -0.051,0.104 -0.125,0 -0.123,-0.09 -0.381,-0.48 -0.499,-0.603 -0.194,-0.204 -0.068,-0.354 -0.037,-0.404 -0.003,-0.01 -0.604,-0.584 -0.604,-0.584 -0.387,-0.398 -0.026,-0.483 0.036,-0.583 -0.087,-0.075 -3.019,-1.162 -1.238,-4.5969997 -0.061,-0.081 -0.162,-0.172 -0.125,-0.347 0.012,-0.046 0.184,-0.165 0.196,-0.212 -0.062,-0.086 -0.232,-0.136 -0.294,-0.222 -0.271,-0.253 -0.293,-0.445 -0.374,-0.701 -0.099,-0.312 -0.148,-0.666 -0.223,-1.003 -0.02,-0.116 -0.041,-0.231 -0.062,-0.346 0,-0.006 -0.05,-0.146 -0.05,-0.152 -0.243,0.125 -0.282,0.195 -0.484,0.36 0.029,0.141 -0.036,0.418 -0.207,0.419 0.003,0.133 -0.132,0.215 -0.259,0.217 0.294,0.723 0.187,1.267 -0.024,1.588 0,0.09 0.166,-0.124 0.623,0.097 0.01,0.046 -0.003,0.056 -0.027,0.089 0.288,0.061 0.519,0.27 0.523,0.282 0,0 -0.174,0.118 -0.2,0.135 -0.021,0.068 0.101,0.161 0.145,0.257 0.153,0.328 -0.034,0.607 -0.034,0.607 -0.096,-0.011 -0.263,-0.185 -0.263,-0.185 0.011,0.1 -0.219,0.242 -0.219,0.242 l -0.188,-0.16 c -0.028,0.172 -0.241,0.215 -0.241,0.215 -0.078,-0.055 -0.148,-0.154 -0.148,-0.154 -0.086,0.132 -0.125,0.161 -0.125,0.161 -0.078,-0.039 -0.168,-0.172 -0.168,-0.172 -0.078,0.109 -0.146,0.161 -0.146,0.161 -0.07,-0.054 -0.217,-0.199 -0.217,-0.199 l -0.228,0.161 c -0.069,-0.053 -0.166,-0.17 -0.166,-0.17 -0.023,0.063 -0.264,0.072 -0.264,0.072 0,0 -0.026,-0.144 -0.02,-0.295 -0.044,-0.346 0.189,-0.573 0.192,-0.577 -0.085,-0.013 -0.405,0.012 -0.094,-0.213 0.113,-0.107 0.158,-0.159 0.321,-0.155 -0.012,-0.026 -0.051,-0.08 -0.062,-0.107 0.057,-0.027 0.387,-0.031 0.464,-0.04 -0.28,-0.142 -0.154,-0.297 -0.206,-0.354 -0.052,-0.057 -0.115,-0.055 -0.143,-0.142 -0.03,-0.106 -0.015,-0.077 -0.017,-0.107 -0.058,-0.019 -0.132,-0.109 -0.107,-0.082 -0.043,-0.135 0.009,-0.188 0.053,-0.246 -0.1,-0.004 -0.138,-0.107 -0.133,-0.177 0.017,-0.282 0.091,-0.424 0.134,-0.579 0.087,-0.317 0.082,-0.34 0.16,-0.424 0.011,-0.044 -0.035,-0.112 -0.045,-0.178 -0.025,-0.162 0.043,-0.124 0.1,-0.227 -0.115,-0.21 0.238,-0.374 0.414,-0.373 0.183,-0.455 0.449,-0.837 0.724,-1.202 -0.11,-0.174 -0.122,-0.5 -0.232,-0.675 -0.036,-0.076 -0.058,-0.172 -0.078,-0.213 -0.07,-0.018 -0.137,-0.018 -0.205,-0.078 -0.117,-0.11 -0.05,-0.173 -0.153,-0.229 -0.163,-0.088 -0.206,-0.304 -0.187,-0.472 -0.108,-0.135 -0.118,-0.079 -0.162,-0.154 -0.287,-0.491 -0.311,-0.918 -0.325,-1.216 0.134,-0.201 0.118,-0.044 0.282,0.028 0.001,0.031 0.036,-0.494 -0.013,-0.724 0.014,-0.058 0.061,-0.136 0.155,-0.075 0.031,0.019 0.013,-0.12 0.047,-0.152 0.133,-0.106 0.225,-0.037 0.265,0.091 0.042,-0.028 0.073,-0.039 0.152,-0.036 0.05,0.036 0.074,0.068 0.088,0.142 0.037,-0.022 0.043,-0.05 0.143,-0.026 0.283,0.267 0.295,0.879 0.285,1.411 0.275,-0.007 0.532,0.394 0.526,0.684 0.374,0.241 0.709,0.695 0.908,1.108 0.048,0.102 0.128,0.233 0.187,0.338 0.164,0.289 0.167,0.217 0.307,0.346 0.372,-0.844 -0.182,-0.93 -0.512,-1.491 -0.284,-0.483 -0.384,-1.098 -0.49,-1.775 -0.049,-0.434 -0.018,-1.22 -0.017,-1.207 0.008,-0.081 0.244,-1.404 0.338,-1.997 0.083,-0.379 0.166,-0.758 0.249,-1.136 -0.009,-0.112 -0.018,-0.225 -0.026,-0.337 -0.01,-0.334 -0.018,-0.668 -0.027,-1.003 -0.004,0.101 -0.008,-2.038 0.338,-3.08 -0.12,0.082 -0.347,0.223 -0.543,0.222 -0.134,-0.098 -0.222,-0.512 -0.258,-0.692 -0.927,0.639 -0.668,0.476 -0.775,0.488 -0.192,-0.286 -0.493,-0.58 -0.49,-1.047 -0.072,0.068 -0.315,0.154 -0.463,0.151 -0.703,-0.51 -0.417,-1.442 0.018,-2.166 -0.458,0 -0.642,0 -0.935,-0.133 -0.085,-0.169 0.126,-0.506 0.587,-0.781 0.007,-0.009 0.012,-0.018 0.018,-0.027 -0.258,-0.125 -0.862,-0.537 -0.926,-0.825 0.578,-0.091 1.118,-0.352 1.763,-0.355 -0.116,-0.192 -0.278,-0.358 -0.383,-0.577 0.114,-0.101 0.331,-0.138 0.49,-0.186 0.426,-0.131 1.122,-0.201 1.586,-0.036 0.176,0.063 0.351,0.166 0.516,0.231 -0.027,-0.103 -0.01,-0.216 -0.027,-0.298 -0.198,-0.98 1.309,-1.348 1.283,-1.335 0.17,-0.161 0.301,-0.645 0.281,-0.95 0.029,-0.003 0.076,0.008 0.106,0.005 0.064,0.176 0.131,0.536 0.076,0.697 0.305,-0.054 0.167,-0.092 0.481,0.031 -0.025,-0.235 0.074,-0.467 0.098,-0.715 0.029,-0.003 0.06,-0.006 0.089,-0.009 0,0.051 -0.029,0.522 0.134,0.888 0.49,0.116 1.154,0.544 1.398,0.932 0.166,0.265 -0.045,0.407 0.018,0.55 l 0,0.018 c 0.218,-0.048 0.418,-0.152 0.676,-0.196 0.544,-0.091 1.331,0.135 1.719,0.258 0.106,0.041 0.214,0.083 0.321,0.124 -0.158,0.334 -0.342,0.549 -0.544,0.755 l -0.017,0 c 0.174,0.011 0.35,0.023 0.525,0.035 0.205,0.026 0.41,0.054 0.614,0.08 0.095,0.027 0.191,0.053 0.285,0.08 -0.046,0.33 -0.329,0.665 -0.596,0.763 0.199,0.258 0.495,0.396 0.578,0.719 -0.29,0.099 -0.519,0.283 -0.907,0.301 0.266,0.646 0.339,1.371 0.044,1.873 -0.065,0.11 -0.115,0.272 -0.232,0.329 -0.093,-0.031 -0.364,-0.104 -0.436,-0.151 -0.007,0.236 -0.233,0.626 -0.401,0.852 -0.298,-0.001 -0.568,-0.366 -0.561,-0.338 -0.075,0.147 -0.093,0.304 -0.187,0.426 -0.359,0.468 -0.687,-0.126 -0.846,-0.23 0.062,0.093 0.097,0.385 0.151,0.496 0.032,0.096 0.212,0.528 0.009,0.746 -0.082,0.082 -0.159,0.128 -0.2,0.218 0.026,0.299 0.307,0.515 0.379,0.834 0.037,0.169 0.047,0.375 0.026,0.625 -0.019,0.23 -0.144,0.271 -0.187,0.409 -0.067,0.216 -0.075,0.464 -0.035,0.719 l 0,0.151 c 0.032,0.076 0.383,0.14 0.463,0.204 0.042,0.034 0.055,0.596 0.062,0.701 0.119,0.059 0.237,0.118 0.356,0.177 0.076,0.049 0.116,0.136 0.196,0.178 0.003,0.21 0.006,0.42 0.009,0.63 0.19,0.044 0.484,-0.126 0.85,0.009 -0.127,1.168 -0.438,2.461 -0.565,3.63 -0.038,0.402 -0.099,0.867 -0.138,1.269 0.171,-0.138 0.337,-0.209 0.494,-0.288 0.057,-0.015 0.113,-0.043 0.17,-0.058 0.061,-0.048 0.077,-0.164 0.142,-0.213 0.112,-0.086 0.168,-0.027 0.303,-0.062 0.041,-0.027 0.083,-0.054 0.125,-0.08 0.184,-0.075 0.497,-0.063 0.516,0.142 0.481,-0.046 0.749,0.144 1.104,0.239 0.205,0.055 0.401,0.037 0.578,0.089 0.108,0.061 0.145,0.115 0.09,0.195 0.079,0.023 0.132,0.034 0.187,0.072 0.066,0.094 -0.069,0.185 -0.008,0.211"
         id="path104"
         style="fill:#ffffff;fill-opacity:1;fill-rule:evenodd;stroke:none" />
    </g>
    <g
       transform="matrix(1.25,0,0,-1.25,1.6420254,1851.9589)"
       id="g40">
      <g
         clip-path="url(#clipPath44)"
         id="g42">
        <g
           transform="translate(518.64211,710.29131)"
           id="g48">
          <path
             d="m 0,0 c 13.046,0 23.622,-10.578 23.622,-23.627 0,-13.049 -10.576,-23.627 -23.622,-23.627 -13.046,0 -23.622,10.578 -23.622,23.627 C -23.622,-10.578 -13.046,0 0,0"
             id="path50"
             style="fill:#f47216;fill-opacity:1;fill-rule:evenodd;stroke:none" />
        </g>
        <g
           transform="translate(517.0374,673.00529)"
           id="g52">
          <path
             d="m 0,0 c 13.046,0 23.622,-10.578 23.622,-23.627 0,-13.049 -10.576,-23.627 -23.622,-23.627 -13.046,0 -23.622,10.578 -23.622,23.627 C -23.622,-10.578 -13.046,0 0,0"
             id="path54"
             style="fill:#f47216;fill-opacity:1;fill-rule:evenodd;stroke:none" />
        </g>
        <g
           transform="translate(485.98531,734.1001)"
           id="g56">
          <path
             d="m 0,0 c 13.046,0 23.622,-10.578 23.622,-23.627 0,-13.049 -10.576,-23.627 -23.622,-23.627 -13.046,0 -23.622,10.578 -23.622,23.627 C -23.622,-10.578 -13.046,0 0,0"
             id="path58"
             style="fill:#f47216;fill-opacity:1;fill-rule:evenodd;stroke:none" />
        </g>
        <g
           transform="translate(542.4523,735.25121)"
           id="g60">
          <path
             d="m 0,0 c 12.665,0 22.931,-10.269 22.931,-22.935 0,-12.667 -10.266,-22.936 -22.931,-22.936 -12.664,0 -22.931,10.269 -22.931,22.936 C -22.931,-10.269 -12.664,0 0,0"
             id="path62"
             style="fill:#f47216;fill-opacity:1;fill-rule:evenodd;stroke:none" />
        </g>
        <g
           transform="translate(518.5769,710.88181)"
           id="g64">
          <path
             d="m 0,0 c -3.018,0 -5.908,-0.56 -8.573,-1.581 -0.352,-9.799 -6.662,-18.126 -15.416,-21.479 -0.011,-0.288 -0.018,-0.577 -0.018,-0.867 -10e-4,-7.514 3.507,-14.236 8.974,-18.628 -6.089,-4.347 -10.071,-11.458 -10.07,-19.465 -10e-4,-3.511 0.766,-6.85 2.139,-9.858 l 40.29,0 0,25.162 c -1.02,1.217 -2.156,2.331 -3.395,3.327 l 3.395,2.938 0,19.665 C 8.638,-17.631 2.265,-9.607 1.566,-0.052 1.047,-0.018 0.526,0 0,0 z M 7.813,17.842 C 3.896,13.581 1.502,7.912 1.502,1.701 c 0,-0.59 0.023,-1.174 0.065,-1.753 6.174,-0.4 11.723,-3.143 15.759,-7.344 l 0,25.238 -9.513,0 z m -22.846,-60.397 c 3.932,2.808 8.743,4.463 13.931,4.462 5.682,0 10.913,-1.986 15.033,-5.296 -3.934,-2.808 -8.745,-4.464 -13.932,-4.463 -5.684,-0.001 -10.914,1.987 -15.032,5.297 z M -47.68,17.842 c -5.415,-4.394 -8.884,-11.084 -8.885,-18.557 0,-6.033 2.261,-11.553 5.978,-15.769 0.653,0.053 1.312,0.081 1.978,0.081 7.17,0 13.621,-3.161 18.025,-8.157 -0.652,-0.053 -1.311,-0.084 -1.978,-0.084 -7.17,10e-4 -13.621,3.164 -18.026,8.16 -6.439,-0.528 -12.17,-3.608 -16.172,-8.219 1.376,-3.012 2.144,-6.356 2.144,-9.872 0,-5.965 -2.207,-11.431 -5.851,-15.629 3.784,-8.275 12.165,-14.053 21.856,-14.054 13.223,0 24.006,10.75 24.007,23.925 -0.001,6.033 -2.261,11.557 -5.979,15.773 2.304,0.189 4.516,0.706 6.592,1.501 0.353,9.799 6.664,18.126 15.418,21.479 0.009,0.287 0.017,0.574 0.017,0.865 0,7.473 -3.468,14.163 -8.883,18.557 -13.352,-7.901 -19.57,-14.618 -30.241,0 z m -40.94,-28.491 c -13.22,-0.001 -24.006,-10.748 -24.006,-23.927 0,-1.105 0.079,-2.192 0.226,-3.259 10.39,-1.633 18.6,-9.951 20.036,-20.373 1.221,-0.193 2.471,-0.294 3.745,-0.294 7.238,0 13.743,3.223 18.149,8.3 -1.377,3.013 -2.144,6.354 -2.145,9.871 0,5.965 2.208,11.433 5.852,15.63 -3.784,8.277 -12.165,14.053 -21.857,14.052 z m -27.525,-26.894 c -13.219,-10e-4 -24.005,-10.748 -24.005,-23.926 0.001,-3.728 0.865,-7.259 2.402,-10.409 l 43.211,0 c 1.536,3.15 2.397,6.681 2.396,10.409 0,1.105 -0.078,2.195 -0.225,3.261 -10.39,1.634 -18.6,9.953 -20.037,20.373 -1.219,0.192 -2.469,0.292 -3.742,0.292"
             id="path66"
             style="fill:#f47216;fill-opacity:1;fill-rule:evenodd;stroke:none" />
        </g>
        <g
           transform="translate(517.47479,672.78841)"
           id="g68">
          <path
             d="m 0,0 c -5.188,0.001 -9.998,-1.653 -13.931,-4.462 4.119,-3.31 9.348,-5.297 15.032,-5.296 5.187,-0.002 9.998,1.654 13.932,4.463 C 10.913,-1.985 5.683,0 0,0"
             id="path70"
             style="fill:#f8a45d;fill-opacity:1;fill-rule:evenodd;stroke:none" />
        </g>
        <g
           transform="translate(494.5864,687.8217)"
           id="g72">
          <path
             d="M 0,0 C 8.753,3.354 15.065,11.681 15.417,21.48 6.663,18.127 0.352,9.799 0,0"
             id="path74"
             style="fill:#f8a45d;fill-opacity:1;fill-rule:evenodd;stroke:none" />
        </g>
        <g
           transform="translate(469.9675,694.47861)"
           id="g76">
          <path
             d="M 0,0 C -0.666,0 -1.326,-0.028 -1.978,-0.081 2.427,-5.077 8.878,-8.24 16.048,-8.24 c 0.667,0 1.326,0.03 1.977,0.083 C 13.621,-3.16 7.17,0 0,0"
             id="path78"
             style="fill:#f8a45d;fill-opacity:1;fill-rule:evenodd;stroke:none" />
        </g>
        <g
           transform="translate(448.10761,660.67909)"
           id="g80">
          <path
             d="m 0,0 c 3.643,4.198 5.854,9.663 5.853,15.628 0,3.517 -0.769,6.862 -2.147,9.874 C 0.062,21.305 -2.146,15.837 -2.146,9.872 -2.145,6.355 -1.378,3.013 0,0"
             id="path82"
             style="fill:#f8a45d;fill-opacity:1;fill-rule:evenodd;stroke:none" />
        </g>
        <g
           transform="translate(426.2108,652.67349)"
           id="g84">
          <path
             d="M 0,0 C -1.436,10.423 -9.646,18.741 -20.037,20.373 -18.6,9.953 -10.39,1.634 0,0"
             id="path86"
             style="fill:#f8a45d;fill-opacity:1;fill-rule:evenodd;stroke:none" />
        </g>
        <g
           transform="translate(534.02229,704.61301)"
           id="g88">
          <path
             d="m 0,0 c -4.199,3.685 -9.269,5.762 -14.447,6.282 0.985,-5.606 3.808,-10.929 8.41,-14.965 4.199,-3.685 9.27,-5.761 14.449,-6.281 C 7.427,-9.358 4.601,-4.036 0,0"
             id="path90"
             style="fill:#f8a45d;fill-opacity:1;fill-rule:evenodd;stroke:none" />
        </g>
      </g>
    </g>
  </g>
</svg>
