<?xml version="1.0" encoding="UTF-8" standalone="no"?>
<!-- Created with Inkscape (http://www.inkscape.org/) -->

<svg
   xmlns:dc="http://purl.org/dc/elements/1.1/"
   xmlns:cc="http://creativecommons.org/ns#"
   xmlns:rdf="http://www.w3.org/1999/02/22-rdf-syntax-ns#"
   xmlns:svg="http://www.w3.org/2000/svg"
   xmlns="http://www.w3.org/2000/svg"
   xmlns:sodipodi="http://sodipodi.sourceforge.net/DTD/sodipodi-0.dtd"
   xmlns:inkscape="http://www.inkscape.org/namespaces/inkscape"
   width="180.35875"
   height="35.355003"
   id="svg2"
   version="1.1"
   inkscape:version="0.47 r22583"
   sodipodi:docname="New document 1">
  <defs
     id="defs4">
    <inkscape:perspective
       sodipodi:type="inkscape:persp3d"
       inkscape:vp_x="0 : 526.18109 : 1"
       inkscape:vp_y="0 : 1000 : 0"
       inkscape:vp_z="744.09448 : 526.18109 : 1"
       inkscape:persp3d-origin="372.04724 : 350.78739 : 1"
       id="perspective10" />
    <clipPath
       id="clipPath2894"
       clipPathUnits="userSpaceOnUse">
      <path
         id="path2896"
         d="m 407.055,734.35 144.567,0 0,28.737 -144.567,0 0,-28.737 z" />
    </clipPath>
    <clipPath
       id="clipPath2840"
       clipPathUnits="userSpaceOnUse">
      <path
         id="path2842"
         d="m 407.48,734.492 144.567,0 0,28.737 -144.567,0 0,-28.737 z" />
    </clipPath>
    <clipPath
       id="clipPath2832"
       clipPathUnits="userSpaceOnUse">
      <path
         id="path2834"
         d="m 0,0 595.276,0 0,793.701 L 0,793.701 0,0 z" />
    </clipPath>
    <inkscape:perspective
       id="perspective2824"
       inkscape:persp3d-origin="0.5 : 0.33333333 : 1"
       inkscape:vp_z="1 : 0.5 : 1"
       inkscape:vp_y="0 : 1000 : 0"
       inkscape:vp_x="0 : 0.5 : 1"
       sodipodi:type="inkscape:persp3d" />
  </defs>
  <sodipodi:namedview
     id="base"
     pagecolor="#ffffff"
     bordercolor="#666666"
     borderopacity="1.0"
     inkscape:pageopacity="0.0"
     inkscape:pageshadow="2"
     inkscape:zoom="4.1179688"
     inkscape:cx="87.551962"
     inkscape:cy="12.895388"
     inkscape:document-units="px"
     inkscape:current-layer="layer1"
     showgrid="false"
     inkscape:window-width="1680"
     inkscape:window-height="1000"
     inkscape:window-x="-8"
     inkscape:window-y="-8"
     inkscape:window-maximized="1" />
  <metadata
     id="metadata7">
    <rdf:RDF>
      <cc:Work
         rdf:about="">
        <dc:format>image/svg+xml</dc:format>
        <dc:type
           rdf:resource="http://purl.org/dc/dcmitype/StillImage" />
        <dc:title></dc:title>
      </cc:Work>
    </rdf:RDF>
  </metadata>
  <g
     inkscape:label="Layer 1"
     inkscape:groupmode="layer"
     id="layer1"
     transform="translate(-520.75575,-88.936485)">
    <path
       d="m 520.75575,88.936485 180.35875,0 0,35.355005 -180.35875,0 0,-35.355005 z"
       style="fill:#a20e37;fill-opacity:1;fill-rule:evenodd;stroke:none"
       id="path2898" />
    <path
       d="m 598.5845,115.15524 0.82125,0 -0.16375,0.89 -0.82,0 0.1625,-0.89 z"
       style="fill:#ffffff;fill-opacity:1;fill-rule:nonzero;stroke:none"
       id="path2900" />
    <path
       d="m 600.0995,115.15524 0.82125,0 -0.1625,0.89 -0.82125,0 0.1625,-0.89 z"
       style="fill:#ffffff;fill-opacity:1;fill-rule:nonzero;stroke:none"
       id="path2902" />
    <path
       d="m 601.61575,115.15524 0.82,0 -0.1625,0.89 -0.82125,0 0.16375,-0.89 z"
       style="fill:#ffffff;fill-opacity:1;fill-rule:nonzero;stroke:none"
       id="path2904" />
    <path
       d="m 604.2995,116.06899 c -0.12375,0.01 -0.28,0.015 -0.47,0.015 -0.2775,0 -0.46375,-0.0525 -0.55875,-0.1575 -0.095,-0.10375 -0.12,-0.28375 -0.0738,-0.53875 l 0.365,-1.98 -0.39625,0 0.11375,-0.6125 0.3975,0 0.15875,-0.875 0.765,0 -0.16,0.875 0.46125,0 -0.115,0.6125 -0.46125,0 -0.3375,1.83375 c -0.0125,0.0675 10e-4,0.11625 0.04,0.14875 0.0387,0.03 0.1075,0.045 0.205,0.045 l 0.18375,-0.0112 -0.1175,0.645 z"
       style="fill:#ffffff;fill-opacity:1;fill-rule:nonzero;stroke:none"
       id="path2906" />
    <path
       d="m 604.7895,116.04524 0.81,-4.39125 0.38125,0 0.3825,0 -0.28625,1.55625 0.0738,-0.0838 c 0.24125,-0.27875 0.535,-0.4175 0.88,-0.4175 0.3125,0 0.53875,0.0987 0.68,0.2975 0.14,0.1975 0.17625,0.47125 0.11125,0.8225 l -0.40875,2.21625 -0.38,0 -0.3825,0 0.37,-2.0075 c 0.0362,-0.20625 0.0263,-0.36125 -0.0325,-0.46 -0.0587,-0.1 -0.1675,-0.15 -0.32875,-0.15 -0.19625,0 -0.36125,0.0662 -0.49625,0.19875 -0.13625,0.1325 -0.225,0.31625 -0.2675,0.5525 l -0.3425,1.86625 -0.38,0 -0.38375,0 z"
       style="fill:#ffffff;fill-opacity:1;fill-rule:nonzero;stroke:none"
       id="path2908" />
    <path
       d="m 609.32075,116.13149 c -0.37875,0 -0.66875,-0.1 -0.87,-0.29875 -0.20125,-0.20125 -0.3025,-0.49 -0.3025,-0.86625 0.002,-0.08 0.007,-0.165 0.0163,-0.25625 0.009,-0.0925 0.0212,-0.18375 0.0375,-0.2775 0.0987,-0.54125 0.29875,-0.9625 0.5975,-1.2675 0.3,-0.305 0.665,-0.45625 1.09625,-0.45625 0.36375,0 0.63875,0.0987 0.82625,0.29875 0.18625,0.19875 0.28,0.4925 0.28,0.87875 0,0.0937 -0.006,0.1975 -0.0163,0.30625 -0.0113,0.11 -0.0288,0.22375 -0.0525,0.34125 l -0.02,0.10375 -1.985,0 -0.004,0.0425 c -0.008,0.06 -0.0113,0.11625 -0.0113,0.17 10e-4,0.1975 0.0475,0.345 0.135,0.44375 0.09,0.0987 0.2225,0.1475 0.4025,0.1475 0.13,0 0.2475,-0.0312 0.35375,-0.0937 0.1075,-0.0625 0.1825,-0.145 0.2275,-0.24625 l 0.7725,0 c -0.135,0.31625 -0.33625,0.5675 -0.60375,0.7525 -0.2675,0.185 -0.56,0.2775 -0.88,0.2775 m 0.9175,-2.05125 0,0 0.003,-0.11375 c 0,-0.1875 -0.0388,-0.3275 -0.11875,-0.4175 -0.0788,-0.0913 -0.19875,-0.13625 -0.36,-0.13625 -0.20375,0 -0.37375,0.0888 -0.5075,0.26625 -0.0788,0.10375 -0.145,0.2375 -0.2,0.40125 l 1.18375,0 z"
       style="fill:#ffffff;fill-opacity:1;fill-rule:nonzero;stroke:none"
       id="path2910" />
    <path
       d="m 612.672,116.04524 0.59875,-3.25 0.37125,0 0.37125,0 -0.085,0.46625 0.10625,-0.135 c 0.24125,-0.27875 0.535,-0.4175 0.8775,-0.4175 0.31375,0 0.54,0.0987 0.68,0.2975 0.14,0.1975 0.1775,0.47125 0.11125,0.8225 l -0.40875,2.21625 -0.38,0 -0.3825,0 0.37,-2.0075 c 0.0375,-0.20625 0.0263,-0.36125 -0.0325,-0.46 -0.0588,-0.1 -0.1675,-0.15 -0.32875,-0.15 -0.195,0 -0.36125,0.0662 -0.49625,0.19875 -0.135,0.1325 -0.225,0.31625 -0.2675,0.5525 l -0.34125,1.86625 -0.38,0 -0.38375,0 z"
       style="fill:#ffffff;fill-opacity:1;fill-rule:nonzero;stroke:none"
       id="path2912" />
    <path
       d="m 616.71325,116.13149 c -0.23625,0 -0.42375,-0.0625 -0.56,-0.18875 -0.135,-0.12625 -0.20375,-0.3025 -0.20375,-0.5275 0,-0.0362 0.002,-0.0762 0.007,-0.1225 0.004,-0.0462 0.0113,-0.09 0.0188,-0.135 0.0512,-0.27125 0.17,-0.4975 0.35875,-0.68 0.1875,-0.18375 0.41875,-0.29625 0.6925,-0.3375 l 0.64375,-0.1025 c 0.06,-0.01 0.1175,-0.0263 0.17,-0.0512 0.0675,-0.0288 0.12,-0.0725 0.155,-0.12875 0.035,-0.0575 0.0525,-0.12375 0.0512,-0.19875 -0.002,-0.08 -0.0263,-0.14125 -0.0725,-0.1825 -0.0662,-0.0588 -0.18375,-0.0875 -0.3575,-0.0875 -0.13,0 -0.2425,0.0387 -0.335,0.11625 -0.0925,0.0763 -0.16375,0.19 -0.215,0.34125 l -0.7225,0 c 0.075,-0.3725 0.23875,-0.655 0.49,-0.84875 0.2525,-0.1925 0.5825,-0.28875 0.9925,-0.28875 0.37625,0 0.64625,0.0812 0.81375,0.24375 0.12375,0.12125 0.185,0.28125 0.18375,0.485 0.001,0.0687 -0.006,0.145 -0.0213,0.22375 l -0.32875,1.77125 c -0.0263,0.14375 -0.0337,0.25375 -0.0237,0.33 0.0112,0.0775 0.0425,0.13 0.0937,0.16 l 0,0.004 -0.0213,0.115 -0.41375,0 -0.41375,0 0,0 c -0.0125,-0.1275 -0.0113,-0.25375 0.005,-0.37875 -0.3,0.3125 -0.62875,0.46875 -0.9875,0.46875 m 1.12,-1.26875 0.0712,-0.395 c -0.0725,0.0463 -0.1525,0.08 -0.24,0.1025 l -0.3075,0.0675 c -0.20375,0.0462 -0.34875,0.105 -0.43625,0.17375 -0.0875,0.07 -0.14375,0.17125 -0.16875,0.305 -0.004,0.0187 -0.004,0.0187 0,0 -0.004,0.0187 -0.006,0.04 -0.009,0.0588 -10e-4,0.0212 -0.002,0.0387 -0.002,0.0575 0,0.0912 0.0263,0.1625 0.0788,0.2125 0.0525,0.05 0.12625,0.0738 0.22,0.0738 0.24125,0 0.455,-0.10625 0.64125,-0.3225 0.0325,-0.035 0.0625,-0.085 0.0913,-0.14875 0.03,-0.0662 0.05,-0.1275 0.0612,-0.185"
       style="fill:#ffffff;fill-opacity:1;fill-rule:nonzero;stroke:none"
       id="path2914" />
    <path
       d="m 619.032,116.04524 0.59875,-3.25 0.37125,0 0.3725,0 -0.0875,0.46 0.11625,-0.155 c 0.22125,-0.26125 0.48625,-0.39125 0.79875,-0.39125 0.2825,0 0.48625,0.0888 0.6125,0.26875 0.055,0.0738 0.0912,0.16125 0.10875,0.26125 l 0.105,-0.13875 c 0.21,-0.26125 0.4675,-0.39125 0.77,-0.39125 0.31,0 0.535,0.0987 0.67375,0.295 0.0962,0.13375 0.14375,0.3025 0.14125,0.5075 0.003,0.0963 -0.009,0.19875 -0.0287,0.30875 l -0.41125,2.225 -0.38,0 -0.38375,0 0.38375,-2.10625 c 0.035,-0.17375 0.0263,-0.30125 -0.0238,-0.385 -0.05,-0.0838 -0.1425,-0.12625 -0.2775,-0.12625 -0.17375,0 -0.31625,0.055 -0.42375,0.165 -0.10875,0.11 -0.18375,0.27375 -0.22375,0.4925 l -0.35875,1.96 -0.38125,0 -0.38375,0 0.38375,-2.08125 c 0.0338,-0.1825 0.0238,-0.31625 -0.0275,-0.40375 -0.0525,-0.0888 -0.15,-0.1325 -0.28875,-0.1325 -0.17125,0 -0.30875,0.055 -0.41375,0.165 -0.10625,0.11 -0.17875,0.27375 -0.22,0.4925 l -0.3575,1.96 -0.38125,0 -0.38375,0 z"
       style="fill:#ffffff;fill-opacity:1;fill-rule:nonzero;stroke:none"
       id="path2916" />
    <path
       d="m 625.08575,116.13149 c -0.3775,0 -0.6675,-0.1 -0.86875,-0.29875 -0.20125,-0.20125 -0.3025,-0.49 -0.3025,-0.86625 10e-4,-0.08 0.007,-0.165 0.0162,-0.25625 0.009,-0.0925 0.0213,-0.18375 0.0375,-0.2775 0.0987,-0.54125 0.2975,-0.9625 0.5975,-1.2675 0.3,-0.305 0.66375,-0.45625 1.09625,-0.45625 0.36375,0 0.63875,0.0987 0.825,0.29875 0.18625,0.19875 0.28,0.4925 0.28,0.87875 0,0.0937 -0.005,0.1975 -0.0163,0.30625 -0.0113,0.11 -0.0275,0.22375 -0.0512,0.34125 l -0.02,0.10375 -1.985,0 -0.005,0.0425 c -0.008,0.06 -0.0113,0.11625 -0.0113,0.17 0.002,0.1975 0.0475,0.345 0.13625,0.44375 0.0888,0.0987 0.2225,0.1475 0.40125,0.1475 0.13,0 0.24875,-0.0312 0.355,-0.0937 0.10625,-0.0625 0.18125,-0.145 0.22625,-0.24625 l 0.7725,0 c -0.13375,0.31625 -0.33625,0.5675 -0.60375,0.7525 -0.26625,0.185 -0.56,0.2775 -0.88,0.2775 m 0.9175,-2.05125 0,0 0.002,-0.11375 c 0,-0.1875 -0.0388,-0.3275 -0.1175,-0.4175 -0.0788,-0.0913 -0.2,-0.13625 -0.36125,-0.13625 -0.20375,0 -0.3725,0.0888 -0.5075,0.26625 -0.0775,0.10375 -0.14375,0.2375 -0.2,0.40125 l 1.18375,0 z"
       style="fill:#ffffff;fill-opacity:1;fill-rule:nonzero;stroke:none"
       id="path2918" />
    <path
       d="m 631.63825,112.79524 -1.57875,3.22625 c -0.29125,0.6 -0.51875,0.98 -0.6825,1.14125 -0.16375,0.16125 -0.4,0.2425 -0.71,0.2425 -0.14125,0 -0.26,-0.007 -0.355,-0.0213 l 0.125,-0.68125 c 0.0163,0.009 0.0663,0.0125 0.15,0.0125 0.20625,0 0.34875,-0.045 0.425,-0.135 0.0512,-0.0575 0.11625,-0.1875 0.195,-0.38875 l -0.45875,-3.39625 0.42625,0 0.42625,0 0.17625,2.425 1.05625,-2.425 0.4025,0 0.4025,0 z"
       style="fill:#ffffff;fill-opacity:1;fill-rule:nonzero;stroke:none"
       id="path2920" />
    <path
       d="m 632.78075,116.13149 c -0.37375,0 -0.67,-0.11125 -0.8875,-0.3325 -0.2175,-0.2225 -0.3275,-0.525 -0.32875,-0.90625 0,-0.0662 0.002,-0.14 0.0113,-0.2225 0.009,-0.0825 0.0187,-0.1625 0.0337,-0.2375 0.0975,-0.52875 0.30875,-0.9475 0.6325,-1.25875 0.32375,-0.31 0.71375,-0.465 1.17,-0.465 0.375,0 0.67125,0.11125 0.88875,0.33625 0.2175,0.22625 0.32625,0.53125 0.32625,0.91875 0,0.0662 -0.005,0.1425 -0.0138,0.22625 -0.009,0.0825 -0.02,0.165 -0.035,0.2425 -0.095,0.52125 -0.305,0.935 -0.63,1.24 -0.32375,0.30625 -0.7125,0.45875 -1.1675,0.45875 m 0.13375,-0.71875 c 0.23125,0 0.42,-0.0862 0.5675,-0.2575 0.1475,-0.17125 0.2525,-0.42875 0.31625,-0.77375 0.01,-0.0562 0.0187,-0.1125 0.0237,-0.1675 0.006,-0.0563 0.009,-0.10625 0.009,-0.1525 0,-0.20125 -0.0488,-0.3575 -0.14375,-0.4675 -0.0962,-0.11125 -0.2325,-0.16625 -0.4075,-0.16625 -0.23125,0 -0.42,0.0875 -0.5675,0.26125 -0.1475,0.175 -0.25375,0.4375 -0.31875,0.78875 -0.009,0.0525 -0.0163,0.10625 -0.0225,0.16 -0.006,0.055 -0.009,0.105 -0.006,0.15 0,0.19875 0.0462,0.3525 0.1425,0.46125 0.095,0.10875 0.23,0.16375 0.4075,0.16375"
       style="fill:#ffffff;fill-opacity:1;fill-rule:nonzero;stroke:none"
       id="path2922" />
    <path
       d="m 636.17575,112.79524 -0.37125,2.0075 c -0.0388,0.20625 -0.0288,0.36125 0.0287,0.46 0.0588,0.1 0.16875,0.15 0.32875,0.15 0.19375,0 0.36,-0.0662 0.49375,-0.2 0.13625,-0.1325 0.22375,-0.315 0.26625,-0.55125 l 0.34375,-1.86625 0.3825,0 0.385,0 -0.59875,3.25 -0.36875,0 -0.37,0 0.0837,-0.475 c -0.03,0.0475 -0.0662,0.0962 -0.10875,0.14375 -0.24,0.27875 -0.5325,0.4175 -0.87625,0.4175 -0.3125,0 -0.53875,-0.10875 -0.6775,-0.3275 -0.0888,-0.1425 -0.1325,-0.32125 -0.1325,-0.53875 0,-0.11125 0.0125,-0.23375 0.0375,-0.3675 l 0.38875,-2.1025 0.38125,0 0.38375,0 z"
       style="fill:#ffffff;fill-opacity:1;fill-rule:nonzero;stroke:none"
       id="path2924" />
    <path
       d="m 642.37825,114.85899 0,0 c -0.1225,0.39125 -0.325,0.70125 -0.60625,0.92875 -0.28125,0.23 -0.60125,0.34375 -0.9625,0.34375 -0.3475,0 -0.615,-0.0975 -0.80125,-0.2925 -0.18625,-0.195 -0.28,-0.47625 -0.28,-0.845 0,-0.0838 0.005,-0.17375 0.015,-0.27125 0.01,-0.0962 0.0238,-0.19375 0.0413,-0.29 0.0987,-0.54125 0.29875,-0.9625 0.6,-1.2675 0.30125,-0.305 0.66875,-0.45625 1.10375,-0.45625 0.37125,0 0.65,0.10875 0.83625,0.3275 0.155,0.18 0.23125,0.41875 0.23,0.7175 l -0.0113,0.2 -0.7725,0 c -0.007,-0.185 -0.0437,-0.31875 -0.11,-0.40125 -0.065,-0.0825 -0.1675,-0.125 -0.305,-0.125 -0.19875,0 -0.36375,0.0875 -0.49375,0.26125 -0.13125,0.175 -0.22875,0.43625 -0.295,0.785 -0.01,0.065 -0.0187,0.13125 -0.0263,0.19875 -0.007,0.0662 -0.0113,0.1275 -0.0113,0.18375 0,0.18125 0.0363,0.3225 0.1075,0.42125 0.07,0.1 0.17125,0.15 0.3,0.15 0.1475,0 0.2825,-0.0525 0.405,-0.1575 0.1225,-0.105 0.21,-0.24125 0.26375,-0.41125 l 0.7725,0 z"
       style="fill:#ffffff;fill-opacity:1;fill-rule:nonzero;stroke:none"
       id="path2926" />
    <path
       d="m 643.3945,116.13149 c -0.2375,0 -0.42375,-0.0625 -0.56,-0.18875 -0.135,-0.12625 -0.20375,-0.3025 -0.20375,-0.5275 0,-0.0362 0.003,-0.0762 0.006,-0.1225 0.005,-0.0462 0.0125,-0.09 0.02,-0.135 0.05,-0.27125 0.17,-0.4975 0.3575,-0.68 0.18875,-0.18375 0.42,-0.29625 0.6925,-0.3375 l 0.645,-0.1025 c 0.06,-0.01 0.1175,-0.0263 0.17,-0.0512 0.0675,-0.0288 0.11875,-0.0725 0.155,-0.12875 0.035,-0.0575 0.0525,-0.12375 0.0512,-0.19875 -0.002,-0.08 -0.0263,-0.14125 -0.0725,-0.1825 -0.0662,-0.0588 -0.185,-0.0875 -0.3575,-0.0875 -0.13,0 -0.2425,0.0387 -0.335,0.11625 -0.0925,0.0763 -0.16375,0.19 -0.21625,0.34125 l -0.72125,0 c 0.075,-0.3725 0.23875,-0.655 0.49,-0.84875 0.25125,-0.1925 0.5825,-0.28875 0.9925,-0.28875 0.37625,0 0.64625,0.0812 0.8125,0.24375 0.125,0.12125 0.18625,0.28125 0.18375,0.485 0.003,0.0687 -0.005,0.145 -0.02,0.22375 l -0.32875,1.77125 c -0.0263,0.14375 -0.0337,0.25375 -0.0237,0.33 0.0113,0.0775 0.0425,0.13 0.0937,0.16 l 0,0.004 -0.0213,0.115 -0.41375,0 -0.41375,0 0,0 c -0.0125,-0.1275 -0.0113,-0.25375 0.005,-0.37875 -0.3,0.3125 -0.62875,0.46875 -0.9875,0.46875 m 1.12,-1.26875 0.0713,-0.395 c -0.0725,0.0463 -0.1525,0.08 -0.24,0.1025 l -0.30875,0.0675 c -0.2025,0.0462 -0.3475,0.105 -0.435,0.17375 -0.0888,0.07 -0.14375,0.17125 -0.16875,0.305 -0.004,0.0187 -0.004,0.0187 0,0 -0.004,0.0187 -0.006,0.04 -0.009,0.0588 -10e-4,0.0212 -0.003,0.0387 -0.003,0.0575 0,0.0912 0.0263,0.1625 0.0788,0.2125 0.0525,0.05 0.12625,0.0738 0.22,0.0738 0.24125,0 0.455,-0.10625 0.64125,-0.3225 0.0325,-0.035 0.0625,-0.085 0.0912,-0.14875 0.03,-0.0662 0.05,-0.1275 0.0612,-0.185"
       style="fill:#ffffff;fill-opacity:1;fill-rule:nonzero;stroke:none"
       id="path2928" />
    <path
       d="m 645.71825,116.04524 0.6,-3.25 0.37,0 0.3725,0 -0.0862,0.46625 0.1075,-0.135 c 0.24125,-0.27875 0.53375,-0.4175 0.8775,-0.4175 0.3125,0 0.54,0.0987 0.67875,0.2975 0.14,0.1975 0.1775,0.47125 0.1125,0.8225 l -0.40875,2.21625 -0.38,0 -0.38375,0 0.37,-2.0075 c 0.0375,-0.20625 0.0263,-0.36125 -0.0312,-0.46 -0.0588,-0.1 -0.16875,-0.15 -0.32875,-0.15 -0.19625,0 -0.36125,0.0662 -0.49625,0.19875 -0.13625,0.1325 -0.225,0.31625 -0.2675,0.5525 l -0.3425,1.86625 -0.38,0 -0.38375,0 z"
       style="fill:#ffffff;fill-opacity:1;fill-rule:nonzero;stroke:none"
       id="path2930" />
    <path
       d="m 650.627,116.04524 0.81,-4.39125 0.4075,0 1.51875,0 c 0.32375,0 0.5725,0.0762 0.745,0.2275 0.1725,0.15125 0.25875,0.36875 0.26125,0.65375 -0.002,0.0525 -0.005,0.1075 -0.0113,0.16625 -0.005,0.0587 -0.0125,0.11875 -0.0237,0.1775 -0.055,0.29625 -0.2175,0.53625 -0.49,0.71625 -0.0425,0.0312 -0.0875,0.0575 -0.135,0.0813 0.055,0.0238 0.105,0.0537 0.14875,0.0888 0.1975,0.155 0.295,0.375 0.295,0.66375 0,0.0462 -0.003,0.0937 -0.008,0.145 -0.005,0.0513 -0.0113,0.10125 -0.0213,0.15125 -0.0762,0.41375 -0.265,0.7375 -0.56625,0.97 -0.30125,0.23375 -0.68,0.35 -1.13875,0.35 l -1.385,0 -0.4075,0 z m 1.48375,-3.62375 -0.175,0.9475 0.96125,0 c 0.19,0 0.3375,-0.0387 0.44375,-0.115 0.105,-0.0762 0.1725,-0.195 0.2025,-0.35375 0.004,-0.0263 0.006,-0.05 0.01,-0.0737 0.002,-0.0225 0.004,-0.0463 0.004,-0.0725 0,-0.11625 -0.0375,-0.2 -0.11375,-0.2525 -0.0775,-0.0525 -0.19875,-0.08 -0.36625,-0.08 l -0.96625,0 z m -0.31625,1.6975 -0.21125,1.15875 0.94,0 c 0.2275,0 0.40375,-0.0475 0.53,-0.14125 0.1275,-0.0937 0.2075,-0.2375 0.24375,-0.4325 0.006,-0.0337 0.0113,-0.065 0.015,-0.0925 0.004,-0.0275 0.005,-0.0538 0.003,-0.0775 0,-0.13875 -0.0425,-0.24375 -0.1275,-0.3125 -0.085,-0.0687 -0.21375,-0.1025 -0.3875,-0.1025 l -1.005,0 z"
       style="fill:#ffffff;fill-opacity:1;fill-rule:nonzero;stroke:none"
       id="path2932" />
    <path
       d="m 654.26075,116.04524 2.24,-4.39125 0.47125,0 0.47125,0 0.54875,4.39125 -0.445,0 -0.4475,0 -0.0875,-0.92 -1.45125,0 -0.435,0.92 -0.43125,0 -0.43375,0 z m 2.51,-3.42375 -0.855,1.77875 1.02875,0 -0.17625,-1.77875 0.002,0 z"
       style="fill:#ffffff;fill-opacity:1;fill-rule:nonzero;stroke:none"
       id="path2934" />
    <path
       d="m 659.22825,116.04524 0,0 -0.38125,0 -0.38125,0 0.81,-4.39125 0.42875,0 0.43,0 1.01125,3.11 0.575,-3.11 0.38125,0 0.38,0 -0.81,4.39125 -0.40375,0 -0.40875,0 -1.0525,-3.1575 -0.57875,3.1575 z"
       style="fill:#ffffff;fill-opacity:1;fill-rule:nonzero;stroke:none"
       id="path2936" />
    <path
       d="m 662.50325,116.04524 0.81,-4.39125 0.40875,0 0.4075,0 -0.3325,1.8075 1.86,-1.8075 0.525,0 0.525,0 -1.93,1.82375 1.19,2.5675 -0.5275,0 -0.53,0 -0.8275,-1.915 -0.49625,0.47125 -0.26625,1.44375 -0.4075,0 -0.40875,0 z"
       style="fill:#ffffff;fill-opacity:1;fill-rule:nonzero;stroke:none"
       id="path2938" />
    <path
       d="m 669.212,112.79524 -0.37125,2.0075 c -0.0388,0.20625 -0.03,0.36125 0.0287,0.46 0.0588,0.1 0.16875,0.15 0.32875,0.15 0.19375,0 0.36,-0.0662 0.49375,-0.2 0.13625,-0.1325 0.22375,-0.315 0.26625,-0.55125 l 0.34375,-1.86625 0.3825,0 0.385,0 -0.59875,3.25 -0.36875,0 -0.37,0 0.0838,-0.475 c -0.03,0.0475 -0.0663,0.0962 -0.10875,0.14375 -0.24,0.27875 -0.5325,0.4175 -0.87625,0.4175 -0.3125,0 -0.53875,-0.10875 -0.6775,-0.3275 -0.0888,-0.1425 -0.1325,-0.32125 -0.1325,-0.53875 0,-0.11125 0.0125,-0.23375 0.0362,-0.3675 l 0.39,-2.1025 0.38125,0 0.38375,0 z"
       style="fill:#ffffff;fill-opacity:1;fill-rule:nonzero;stroke:none"
       id="path2940" />
    <path
       d="m 671.7495,112.79524 0,0 0.35875,0 0.35875,0 -0.0825,0.46625 0.0575,-0.0687 c 0.2875,-0.32375 0.60375,-0.48375 0.9475,-0.48375 0.295,0 0.52625,0.1 0.69125,0.30125 0.16625,0.20125 0.24875,0.48 0.24875,0.83625 -0.001,0.0813 -0.008,0.1725 -0.0163,0.275 -0.01,0.10125 -0.0237,0.20125 -0.0412,0.29875 -0.0913,0.49 -0.2825,0.8975 -0.57375,1.22375 -0.2925,0.325 -0.6125,0.4875 -0.9625,0.4875 -0.35125,0 -0.6,-0.1525 -0.745,-0.46 l -0.005,-0.0113 -0.30625,1.6575 -0.38125,0 -0.3825,0 0.83375,-4.5225 z m 0.9025,2.6325 c 0.19375,0 0.365,-0.0888 0.5175,-0.26625 0.15,-0.1775 0.2525,-0.41125 0.30625,-0.70125 0.0113,-0.065 0.0213,-0.12875 0.0287,-0.1925 0.008,-0.0662 0.01,-0.12625 0.008,-0.1825 0,-0.2 -0.0425,-0.35625 -0.12875,-0.46625 -0.0863,-0.11125 -0.20875,-0.16625 -0.36625,-0.16625 -0.18875,0 -0.35875,0.0887 -0.51125,0.26625 -0.1525,0.1775 -0.255,0.40375 -0.305,0.68125 l 0.002,0 c -0.0612,0.3275 -0.0538,0.58125 0.025,0.76 0.0775,0.17875 0.21875,0.2675 0.42375,0.2675"
       style="fill:#ffffff;fill-opacity:1;fill-rule:nonzero;stroke:none"
       id="path2942" />
    <path
       d="m 675.81325,116.13149 c -0.37375,0 -0.67,-0.11125 -0.8875,-0.3325 -0.2175,-0.2225 -0.3275,-0.525 -0.32875,-0.90625 0,-0.0662 0.002,-0.14 0.0112,-0.2225 0.008,-0.0825 0.0188,-0.1625 0.0338,-0.2375 0.0975,-0.52875 0.30875,-0.9475 0.6325,-1.25875 0.32375,-0.31 0.71375,-0.465 1.17,-0.465 0.375,0 0.67125,0.11125 0.88875,0.33625 0.2175,0.22625 0.32625,0.53125 0.32625,0.91875 0,0.0662 -0.005,0.1425 -0.0138,0.22625 -0.009,0.0825 -0.02,0.165 -0.035,0.2425 -0.095,0.52125 -0.305,0.935 -0.63,1.24 -0.32375,0.30625 -0.7125,0.45875 -1.1675,0.45875 m 0.13375,-0.71875 c 0.23125,0 0.42,-0.0862 0.5675,-0.2575 0.1475,-0.17125 0.2525,-0.42875 0.31625,-0.77375 0.01,-0.0562 0.0187,-0.1125 0.0237,-0.1675 0.006,-0.0563 0.009,-0.10625 0.009,-0.1525 0,-0.20125 -0.0487,-0.3575 -0.14375,-0.4675 -0.0963,-0.11125 -0.2325,-0.16625 -0.4075,-0.16625 -0.23125,0 -0.42,0.0875 -0.5675,0.26125 -0.1475,0.175 -0.25375,0.4375 -0.31875,0.78875 -0.01,0.0525 -0.0162,0.10625 -0.0225,0.16 -0.006,0.055 -0.009,0.105 -0.006,0.15 0,0.19875 0.0462,0.3525 0.1425,0.46125 0.095,0.10875 0.23,0.16375 0.4075,0.16375"
       style="fill:#ffffff;fill-opacity:1;fill-rule:nonzero;stroke:none"
       id="path2944" />
    <path
       d="m 677.83575,116.04524 0.59875,-3.25 0.37125,0 0.3725,0 -0.0863,0.46625 0.10625,-0.135 c 0.2425,-0.27875 0.535,-0.4175 0.87875,-0.4175 0.3125,0 0.53875,0.0987 0.67875,0.2975 0.14,0.1975 0.1775,0.47125 0.1125,0.8225 l -0.41,2.21625 -0.38,0 -0.3825,0 0.37,-2.0075 c 0.0375,-0.20625 0.0262,-0.36125 -0.0312,-0.46 -0.06,-0.1 -0.16875,-0.15 -0.33,-0.15 -0.195,0 -0.36,0.0662 -0.49625,0.19875 -0.135,0.1325 -0.22375,0.31625 -0.2675,0.5525 l -0.34125,1.86625 -0.38,0 -0.38375,0 z"
       style="fill:#ffffff;fill-opacity:1;fill-rule:nonzero;stroke:none"
       id="path2946" />
    <path
       d="m 681.74825,114.84149 0.17125,-2.105 0.19625,-1.06125 0.4175,0 0.42125,0 -0.1975,1.06125 -0.6075,2.105 -0.20125,0 -0.2,0 z m -0.26375,0.34 0.80375,0 -0.15625,0.86375 -0.805,0 0.1575,-0.86375 z"
       style="fill:#ffffff;fill-opacity:1;fill-rule:nonzero;stroke:none"
       id="path2948" />
    <path
       d="m 554.602,95.872735 5.05375,0 0,19.646255 -5.05375,0 0,-4.83375 c -4.425,1.65 -8.57,1.80125 -12.395,-1.985 -1.58625,-1.66875 -2.4625,-3.9325 -2.08625,-7.9 0.045,-0.585 -0.2275,-3.045005 -0.94375,-4.611255 l 4.48875,0 c 2.0875,3.3725 -0.65,7.317505 2.56875,10.066255 4.37,2.8725 8.19,-0.54875 8.3675,-3.66375 l 0,-6.718755 z m -5.02,2.11625 c 2.385,0 4.33125,1.9425 4.33125,4.325005 0,2.38125 -1.94625,4.32375 -4.33125,4.32375 -2.38625,0 -4.3325,-1.9425 -4.3325,-4.32375 0,-2.382505 1.94625,-4.325005 4.3325,-4.325005"
       style="fill:#fbbc09;fill-opacity:1;fill-rule:evenodd;stroke:none"
       id="path2950" />
    <path
       d="m 567.002,102.13774 c 1.94375,0 3.52875,1.61125 3.52875,3.58875 0,2.4275 -2.35875,3.99625 -4.6025,3.26125 l 0,-1.6325 c 1.22875,0.73 2.82625,-0.0162 2.82625,-1.4975 0,-1.055 -0.845,-1.915 -1.88125,-1.915 -1.0375,0 -1.8825,0.86 -1.8825,1.915 0,2.2025 -0.0488,4.4075 -0.0488,6.6125 l -1.46875,0 0,-6.74375 0.015,-0.335 c 0.0388,-1.77875 1.61375,-3.2325 3.51375,-3.25375"
       style="fill:#ffffff;fill-opacity:1;fill-rule:evenodd;stroke:none"
       id="path2952" />
    <path
       d="m 571.05325,102.44149 1.5525,0 0,3.525 c -0.11375,2.06625 3.11,2.21875 3.03375,0 l 0,-3.525 1.555,0 0,3.6175 c 0.15375,4.49125 -6.37125,4.18375 -6.14125,0 l 0,-3.6175 z"
       style="fill:#ffffff;fill-opacity:1;fill-rule:evenodd;stroke:none"
       id="path2954" />
    <path
       d="m 578.01575,109.11524 1.5525,0 0,-3.52625 c -0.11375,-2.06625 3.11,-2.21875 3.03375,0 l 0,3.52625 1.55625,0 0,-3.61875 c 0.1525,-4.49125 -6.3725,-4.18375 -6.1425,0 l 0,3.61875 z"
       style="fill:#ffffff;fill-opacity:1;fill-rule:evenodd;stroke:none"
       id="path2956" />
    <path
       d="m 599.3845,109.36899 c 1.94375,0 3.52875,-1.61125 3.52875,-3.58875 0,-2.4275 -2.35875,-3.99625 -4.6025,-3.2625 l 0,1.6325 c 1.22875,-0.72875 2.82625,0.0175 2.82625,1.49875 0,1.055 -0.845,1.91375 -1.88125,1.91375 -1.03625,0 -1.8825,-0.85875 -1.8825,-1.91375 0,-2.2025 -0.0475,-4.40875 -0.0475,-6.613755 l -1.47,0 0,6.745005 0.0163,0.33375 c 0.0375,1.78 1.6125,3.2325 3.5125,3.255"
       style="fill:#ffffff;fill-opacity:1;fill-rule:evenodd;stroke:none"
       id="path2958" />
    <path
       d="m 584.58575,104.06149 0,-1.605 3.07875,0 0,6.495 c 0.015,2.01625 -1.37125,3.58875 -3.37375,3.7525 l 0,-1.4575 c 0.98625,-0.405 1.74875,-0.985 1.7725,-2.32125 l 0,-4.86375 -1.4775,0 z"
       style="fill:#ffffff;fill-opacity:1;fill-rule:evenodd;stroke:none"
       id="path2960" />
    <path
       d="m 588.232,106.21524 c -0.16,-1.90375 1.23625,-3.2425 2.5675,-3.655 1.88625,-0.555 4.245,0.43 4.33,3.0975 l 0,3.37125 -1.43625,0 0.0113,-3.42125 c -0.1,-1.56375 -2.4675,-2.2175 -3.44,-0.73625 -0.40625,0.775 -0.49875,1.9825 0.60875,2.60875 0.53125,0.19125 1.12875,0.28375 1.8725,0.16 l 0,1.45625 c -1.18375,0.35875 -2.36,0.27125 -3.52125,-0.8 -0.5825,-0.6 -0.86375,-1.29375 -0.9925,-2.08125"
       style="fill:#ffffff;fill-opacity:1;fill-rule:evenodd;stroke:none"
       id="path2962" />
    <path
       d="m 605.302,109.11524 1.5525,0 0,-3.52625 c -0.11375,-2.06625 3.10875,-2.21875 3.03375,0 l 0,3.52625 1.555,0 0,-3.61875 c 0.15375,-4.49125 -6.3725,-4.18375 -6.14125,0 l 0,3.61875 z"
       style="fill:#ffffff;fill-opacity:1;fill-rule:evenodd;stroke:none"
       id="path2964" />
    <path
       d="m 612.13325,106.21524 c -0.16,-1.90375 1.23625,-3.2425 2.5675,-3.655 1.88625,-0.555 4.245,0.43 4.33,3.0975 l 0,3.37125 -1.43625,0 0.0113,-3.42125 c -0.1,-1.56375 -2.4675,-2.2175 -3.44,-0.73625 -0.40625,0.775 -0.49875,1.9825 0.60875,2.60875 0.53125,0.19125 1.12875,0.28375 1.8725,0.16 l 0,1.45625 c -1.18375,0.35875 -2.36,0.27125 -3.52125,-0.8 -0.5825,-0.6 -0.86375,-1.29375 -0.9925,-2.08125"
       style="fill:#ffffff;fill-opacity:1;fill-rule:evenodd;stroke:none"
       id="path2966" />
    <path
       d="m 634.06825,109.11524 1.5525,0 0,-3.52625 c -0.11375,-2.06625 3.10875,-2.21875 3.03375,0 l 0,3.52625 1.555,0 0,-3.61875 c 0.15375,-4.49125 -6.3725,-4.18375 -6.14125,0 l 0,3.61875 z"
       style="fill:#ffffff;fill-opacity:1;fill-rule:evenodd;stroke:none"
       id="path2968" />
    <path
       d="m 640.8995,106.21524 c -0.16,-1.90375 1.2375,-3.2425 2.5675,-3.655 1.88625,-0.555 4.245,0.43 4.33,3.0975 l 0,3.37125 -1.435,0 0.01,-3.42125 c -0.1,-1.56375 -2.4675,-2.2175 -3.44,-0.73625 -0.40625,0.775 -0.49875,1.9825 0.60875,2.60875 0.53125,0.19125 1.12875,0.28375 1.8725,0.16 l 0,1.45625 c -1.18375,0.35875 -2.36,0.27125 -3.52125,-0.8 -0.5825,-0.6 -0.86375,-1.29375 -0.9925,-2.08125"
       style="fill:#ffffff;fill-opacity:1;fill-rule:evenodd;stroke:none"
       id="path2970" />
    <path
       d="m 625.04325,99.216485 c 0.67875,0 1.23,0.55125 1.23,1.230005 0,0.68 -0.55125,1.23125 -1.23,1.23125 -0.68,0 -1.23125,-0.55125 -1.23125,-1.23125 0,-0.678755 0.55125,-1.230005 1.23125,-1.230005"
       style="fill:#ffffff;fill-opacity:1;fill-rule:evenodd;stroke:none"
       id="path2972" />
    <path
       d="m 624.24575,102.50774 1.7375,0 0,6.6075 -1.7375,0 0,-6.6075 z"
       style="fill:#ffffff;fill-opacity:1;fill-rule:evenodd;stroke:none"
       id="path2974" />
    <path
       d="m 619.87825,100.20899 1.665,0 0,2.3225 2.0275,0 0,1.5975 -2.0275,0 0,1.09 c -0.06,1.94125 0.54625,2.36375 1.93,2.71 l -0.005,1.30625 c -2.67,0.23 -3.615,-1.3775 -3.59,-4.01625 l 0,-5.01 z"
       style="fill:#ffffff;fill-opacity:1;fill-rule:evenodd;stroke:none"
       id="path2976" />
    <path
       d="m 630.03575,102.47899 c 1.89625,0 3.44375,1.54625 3.44375,3.44375 0,1.89625 -1.5475,3.44375 -3.44375,3.44375 -1.89625,0 -3.44375,-1.5475 -3.44375,-3.44375 0,-1.8975 1.5475,-3.44375 3.44375,-3.44375 m 0,1.65375 c 0.985,0 1.79,0.80375 1.79,1.79 0,0.985 -0.805,1.79 -1.79,1.79 -0.98625,0 -1.79,-0.805 -1.79,-1.79 0,-0.98625 0.80375,-1.79 1.79,-1.79"
       style="fill:#ffffff;fill-opacity:1;fill-rule:evenodd;stroke:none"
       id="path2978" />
    <path
       d="m 662.937,106.21524 c -0.16,-1.90375 1.23625,-3.2425 2.5675,-3.655 1.88625,-0.555 4.24375,0.43 4.33,3.0975 l 0,3.37125 -1.43625,0 0.0113,-3.42125 c -0.1,-1.56375 -2.4675,-2.2175 -3.44,-0.73625 -0.4075,0.775 -0.49875,1.9825 0.6075,2.60875 0.5325,0.19125 1.13,0.28375 1.8725,0.16 l 0,1.45625 c -1.1825,0.35875 -2.35875,0.27125 -3.52,-0.8 -0.5825,-0.6 -0.86375,-1.29375 -0.9925,-2.08125"
       style="fill:#ffffff;fill-opacity:1;fill-rule:evenodd;stroke:none"
       id="path2980" />
    <path
       d="m 670.732,109.11524 1.5525,0 0,-3.52625 c -0.11375,-2.06625 3.10875,-2.21875 3.0325,0 l 0,3.52625 1.55625,0 0,-3.61875 c 0.1525,-4.49125 -6.3725,-4.18375 -6.14125,0 l 0,3.61875 z"
       style="fill:#ffffff;fill-opacity:1;fill-rule:evenodd;stroke:none"
       id="path2982" />
    <path
       d="m 658.9495,109.36899 c 1.9425,0 3.52875,-1.61125 3.52875,-3.58875 0,-2.4275 -2.35875,-3.99625 -4.60375,-3.2625 l 0,1.6325 c 1.23,-0.72875 2.8275,0.0175 2.8275,1.49875 0,1.055 -0.845,1.91375 -1.8825,1.91375 -1.03625,0 -1.88125,-0.85875 -1.88125,-1.91375 0,-2.2025 -0.0488,-4.40875 -0.0488,-6.613755 l -1.47,0 0,6.745005 0.0162,0.33375 c 0.0388,1.78 1.61375,3.2325 3.51375,3.255"
       style="fill:#ffffff;fill-opacity:1;fill-rule:evenodd;stroke:none"
       id="path2984" />
    <path
       d="m 648.62825,99.158985 1.51375,0 0,5.591255 c -0.0913,2.2425 0.8975,2.80625 2.49875,3.025 l -0.005,1.4575 c -2.98125,0.2575 -4.035,-1.5375 -4.0075,-4.4825 l 0,-5.591255 z"
       style="fill:#ffffff;fill-opacity:1;fill-rule:evenodd;stroke:none"
       id="path2986" />
    <path
       d="m 677.672,99.080235 1.69875,0 0,5.188755 c 0.49375,-1.3525 1.66875,-2.30875 3.03375,-2.30875 0.0975,0 0.19375,0.005 0.29,0.015 l 0,1.62875 c -1.1,0.24 -1.91875,1.13375 -1.91875,2.19375 0,1.05875 0.81875,1.9525 1.91875,2.1925 l 0,1.4225 c -0.0963,0.009 -0.1925,0.015 -0.29,0.015 -1.365,0 -2.54,-0.9575 -3.03375,-2.31 l 0,1.9975 -1.69875,0 0,-10.035005 z"
       style="fill:#ffffff;fill-opacity:1;fill-rule:evenodd;stroke:none"
       id="path2988" />
  </g>
</svg>
