<?xml version="1.0" encoding="UTF-8" standalone="no"?>
<!-- Created with Inkscape (http://www.inkscape.org/) -->

<svg
   xmlns:dc="http://purl.org/dc/elements/1.1/"
   xmlns:cc="http://creativecommons.org/ns#"
   xmlns:rdf="http://www.w3.org/1999/02/22-rdf-syntax-ns#"
   xmlns:svg="http://www.w3.org/2000/svg"
   xmlns="http://www.w3.org/2000/svg"
   version="1.1"
   width="260.09"
   height="108.36"
   id="svg3740">
  <defs
     id="defs3742">
    <clipPath
       id="clipPath438">
      <path
         d="m 12.496,12.496 611.008,0 0,773.008 -611.008,0 0,-773.008 z"
         id="path440" />
    </clipPath>
    <clipPath
       id="clipPath410">
      <path
         d="m 12.496,12.496 611.008,0 0,773.008 -611.008,0 0,-773.008 z"
         id="path412" />
    </clipPath>
    <clipPath
       id="clipPath386">
      <path
         d="m 12.496,12.496 611.008,0 0,773.008 -611.008,0 0,-773.008 z"
         id="path388" />
    </clipPath>
    <clipPath
       id="clipPath362">
      <path
         d="m 12.496,12.496 611.008,0 0,773.008 -611.008,0 0,-773.008 z"
         id="path364" />
    </clipPath>
    <clipPath
       id="clipPath346">
      <path
         d="m 12.496,12.496 611.008,0 0,773.008 -611.008,0 0,-773.008 z"
         id="path348" />
    </clipPath>
    <clipPath
       id="clipPath332">
      <path
         d="m 12.496,12.496 611.008,0 0,773.008 -611.008,0 0,-773.008 z"
         id="path334" />
    </clipPath>
    <clipPath
       id="clipPath300">
      <path
         d="m 12.496,12.496 611.008,0 0,773.008 -611.008,0 0,-773.008 z"
         id="path302" />
    </clipPath>
    <clipPath
       id="clipPath270">
      <path
         d="m 12.496,12.496 611.008,0 0,773.008 -611.008,0 0,-773.008 z"
         id="path272" />
    </clipPath>
    <clipPath
       id="clipPath250">
      <path
         d="m 12.496,12.496 611.008,0 0,773.008 -611.008,0 0,-773.008 z"
         id="path252" />
    </clipPath>
    <clipPath
       id="clipPath232">
      <path
         d="m 12.496,12.496 611.008,0 0,773.008 -611.008,0 0,-773.008 z"
         id="path234" />
    </clipPath>
    <clipPath
       id="clipPath208">
      <path
         d="m 12.496,12.496 611.008,0 0,773.008 -611.008,0 0,-773.008 z"
         id="path210" />
    </clipPath>
    <clipPath
       id="clipPath192">
      <path
         d="m 12.496,12.496 611.008,0 0,773.008 -611.008,0 0,-773.008 z"
         id="path194" />
    </clipPath>
    <clipPath
       id="clipPath176">
      <path
         d="m 12.496,12.496 611.008,0 0,773.008 -611.008,0 0,-773.008 z"
         id="path178" />
    </clipPath>
    <clipPath
       id="clipPath132">
      <path
         d="m 12.496,12.496 611.008,0 0,773.008 -611.008,0 0,-773.008 z"
         id="path134" />
    </clipPath>
    <clipPath
       id="clipPath100">
      <path
         d="m 12.496,12.496 611.008,0 0,773.008 -611.008,0 0,-773.008 z"
         id="path102" />
    </clipPath>
    <radialGradient
       cx="0"
       cy="0"
       r="1"
       fx="0"
       fy="0"
       id="radialGradient82"
       gradientUnits="userSpaceOnUse"
       gradientTransform="matrix(30.288711,0,0,-30.288711,426.82381,-578.41347)"
       spreadMethod="pad">
      <stop
         id="stop84"
         style="stop-color:#ed1a3b;stop-opacity:1"
         offset="0" />
      <stop
         id="stop86"
         style="stop-color:#ed1c24;stop-opacity:1"
         offset="0.30899" />
      <stop
         id="stop88"
         style="stop-color:#ed1c24;stop-opacity:1"
         offset="0.30899" />
      <stop
         id="stop90"
         style="stop-color:#a70a25;stop-opacity:1"
         offset="0.97752398" />
      <stop
         id="stop92"
         style="stop-color:#a70a25;stop-opacity:1"
         offset="1" />
    </radialGradient>
    <radialGradient
       cx="0"
       cy="0"
       r="1"
       fx="0"
       fy="0"
       id="radialGradient56"
       gradientUnits="userSpaceOnUse"
       gradientTransform="matrix(30.447235,0,0,-30.447235,426.44856,-541.96572)"
       spreadMethod="pad">
      <stop
         id="stop58"
         style="stop-color:#fdb913;stop-opacity:1"
         offset="0" />
      <stop
         id="stop60"
         style="stop-color:#fdb913;stop-opacity:1"
         offset="0.29212999" />
      <stop
         id="stop62"
         style="stop-color:#f47920;stop-opacity:1"
         offset="0.97752398" />
      <stop
         id="stop64"
         style="stop-color:#f47920;stop-opacity:1"
         offset="0.97752398" />
      <stop
         id="stop66"
         style="stop-color:#f47920;stop-opacity:1"
         offset="1" />
    </radialGradient>
  </defs>
  <metadata
     id="metadata3745">
    <rdf:RDF>
      <cc:Work
         rdf:about="">
        <dc:format>image/svg+xml</dc:format>
        <dc:type
           rdf:resource="http://purl.org/dc/dcmitype/StillImage" />
        <dc:title></dc:title>
      </cc:Work>
    </rdf:RDF>
  </metadata>
  <g
     transform="translate(4.0361777,-944.0021)"
     id="layer1">
    <g
       transform="matrix(1.25,0,0,-1.25,-269.40624,1102.5642)"
       id="g44">
      <g
         id="g46">
        <g
           id="g52">
          <g
             id="g54">
            <path
               d="m 218.236,107.192 0,-22.137 30.438,17.565 11.261,-6.497 19.173,11.069 -30.434,17.571 -30.438,-17.571 z"
               id="path68"
               style="fill:url(#radialGradient56);stroke:none" />
          </g>
        </g>
      </g>
    </g>
    <g
       transform="matrix(1.25,0,0,-1.25,-269.40624,1102.5642)"
       id="g70">
      <g
         id="g72">
        <g
           id="g78">
          <g
             id="g80">
            <path
               d="m 248.674,76.612 -11.26,6.504 -18.982,-10.96 0,-0.218 29.192,-16.857 2.101,0 29.383,16.966 0,22.135 -30.434,-17.57 z"
               id="path94"
               style="fill:url(#radialGradient82);stroke:none" />
          </g>
        </g>
      </g>
    </g>
    <g
       transform="matrix(1.25,0,0,-1.25,-269.40624,1102.5642)"
       id="g96">
      <g
         clip-path="url(#clipPath100)"
         id="g98">
        <g
           transform="translate(310.09,109.3613)"
           id="g104">
          <path
             d="m 0,0 c -0.132,1.423 -0.689,2.519 -1.671,3.291 -0.984,0.769 -2.306,1.16 -3.964,1.16 -1.712,0 -3.014,-0.332 -3.898,-0.999 -0.887,-0.662 -1.328,-1.631 -1.328,-2.908 0,-0.869 0.295,-1.519 0.887,-1.944 0.592,-0.432 1.78,-0.857 3.562,-1.274 l 3.916,-0.935 c 2.1,-0.5 3.597,-1.24 4.494,-2.218 0.903,-0.97 1.353,-2.345 1.353,-4.12 0,-2.043 -0.774,-3.661 -2.32,-4.853 -1.547,-1.196 -3.643,-1.793 -6.286,-1.793 -2.942,0 -5.239,0.687 -6.891,2.069 -1.613,1.355 -2.419,3.215 -2.419,5.572 l 0,0.17 2.805,0 c 0.05,-1.637 0.644,-2.897 1.774,-3.785 1.135,-0.889 2.712,-1.332 4.731,-1.332 1.864,0 3.283,0.318 4.252,0.962 0.971,0.645 1.452,1.588 1.452,2.836 0,1.083 -0.317,1.883 -0.956,2.401 -0.632,0.513 -1.909,0.999 -3.826,1.455 l -3.918,0.935 c -1.979,0.474 -3.394,1.126 -4.24,1.962 -0.844,0.837 -1.266,1.996 -1.266,3.476 0,2.155 0.731,3.862 2.194,5.123 1.461,1.259 3.439,1.891 5.928,1.891 2.527,0 4.541,-0.635 6.043,-1.901 C 1.906,3.974 2.706,2.23 2.807,0 L 0,0 z"
             id="path106"
             style="fill:#d7172f;fill-opacity:1;fill-rule:nonzero;stroke:none" />
        </g>
        <g
           transform="translate(326.819,99.8721)"
           id="g108">
          <path
             d="M 0,0 0,1.774 C -0.509,1.529 -1.075,1.362 -1.699,1.27 L -4.229,0.902 C -5.554,0.717 -6.523,0.411 -7.136,-0.026 -7.75,-0.458 -8.054,-1.05 -8.054,-1.793 c 0,-0.921 0.249,-1.626 0.748,-2.121 0.5,-0.496 1.211,-0.744 2.13,-0.744 1.448,0 2.675,0.391 3.679,1.179 0.682,0.55 1.136,1.172 1.363,1.87 0.04,0.129 0.071,0.343 0.09,0.626 C -0.012,-0.687 0,-0.36 0,0 m -5.714,-6.935 c -1.604,0 -2.876,0.432 -3.816,1.288 -0.94,0.858 -1.409,2.014 -1.409,3.474 0,1.468 0.442,2.637 1.326,3.506 0.881,0.865 2.173,1.407 3.868,1.622 l 3.754,0.474 c 0.305,0.029 0.598,0.081 0.875,0.153 0.355,0.091 0.632,0.277 0.827,0.552 C -0.094,4.41 0,4.755 0,5.174 l 0,0.138 c 0,0.876 -0.331,1.565 -0.997,2.059 -0.665,0.493 -1.592,0.743 -2.779,0.743 -1.126,0 -2.013,-0.26 -2.649,-0.788 C -7.06,6.805 -7.447,6.022 -7.58,4.983 l -2.538,0 c 0.131,1.797 0.764,3.144 1.896,4.049 1.133,0.905 2.751,1.356 4.861,1.356 1.992,0 3.507,-0.432 4.55,-1.297 1.04,-0.862 1.562,-2.12 1.562,-3.777 l 0,-9.007 c 0,-0.276 0.084,-0.498 0.254,-0.666 0.17,-0.171 0.396,-0.251 0.683,-0.251 0.082,0 0.204,0.01 0.362,0.029 0.161,0.022 0.33,0.051 0.513,0.095 l 0,-1.993 C 4.299,-6.582 4.019,-6.664 3.725,-6.727 3.427,-6.788 3.178,-6.816 2.974,-6.816 1.933,-6.816 1.176,-6.529 0.705,-5.958 0.401,-5.58 0.182,-5.042 0.05,-4.344 -0.156,-4.6 -0.391,-4.846 -0.657,-5.081 -2.036,-6.313 -3.725,-6.935 -5.714,-6.935"
             id="path110"
             style="fill:#d7172f;fill-opacity:1;fill-rule:nonzero;stroke:none" />
        </g>
        <g
           transform="translate(333.8274,109.7617)"
           id="g112">
          <path
             d="m 0,0 2.612,0 0,-2.801 c 0.238,0.442 0.487,0.838 0.751,1.197 1.046,1.4 2.331,2.103 3.856,2.103 0.256,0 0.514,-0.049 0.783,-0.139 l 0,-2.82 -0.571,0.016 c -1.494,0 -2.646,-0.447 -3.463,-1.34 C 3.157,-4.678 2.75,-5.955 2.75,-7.606 l 0,-8.775 -2.75,0 L 0,0 z"
             id="path114"
             style="fill:#d7172f;fill-opacity:1;fill-rule:nonzero;stroke:none" />
        </g>
        <g
           transform="translate(353.1259,99.8721)"
           id="g116">
          <path
             d="M 0,0 0,1.774 C -0.513,1.529 -1.079,1.362 -1.699,1.27 L -4.23,0.902 C -5.557,0.717 -6.525,0.411 -7.14,-0.026 -7.752,-0.458 -8.059,-1.05 -8.059,-1.793 c 0,-0.921 0.25,-1.626 0.747,-2.121 0.505,-0.496 1.214,-0.744 2.135,-0.744 1.449,0 2.675,0.391 3.673,1.179 0.686,0.55 1.139,1.172 1.362,1.87 0.041,0.129 0.075,0.343 0.095,0.626 C -0.016,-0.687 0,-0.36 0,0 m -5.715,-6.935 c -1.606,0 -2.878,0.432 -3.818,1.288 -0.938,0.858 -1.408,2.014 -1.408,3.474 0,1.468 0.441,2.637 1.322,3.506 0.887,0.865 2.175,1.407 3.871,1.622 l 3.754,0.474 c 0.308,0.029 0.599,0.081 0.877,0.153 0.355,0.091 0.633,0.277 0.827,0.552 C -0.101,4.41 0,4.755 0,5.174 l 0,0.138 c 0,0.876 -0.334,1.565 -0.997,2.059 -0.667,0.493 -1.592,0.743 -2.781,0.743 -1.13,0 -2.012,-0.26 -2.651,-0.788 C -7.067,6.805 -7.448,6.022 -7.581,4.983 l -2.541,0 c 0.133,1.797 0.765,3.144 1.895,4.049 1.131,0.905 2.755,1.356 4.862,1.356 1.993,0 3.507,-0.432 4.55,-1.297 C 2.228,8.229 2.75,6.971 2.75,5.314 l 0,-9.007 c 0,-0.276 0.085,-0.498 0.252,-0.666 0.167,-0.171 0.396,-0.251 0.685,-0.251 0.084,0 0.202,0.01 0.36,0.029 0.157,0.022 0.33,0.051 0.516,0.095 l 0,-1.993 C 4.297,-6.582 4.015,-6.664 3.718,-6.727 3.423,-6.788 3.175,-6.816 2.971,-6.816 1.926,-6.816 1.173,-6.529 0.704,-5.958 0.396,-5.58 0.179,-5.042 0.044,-4.344 -0.16,-4.6 -0.393,-4.846 -0.66,-5.081 -2.039,-6.313 -3.725,-6.935 -5.715,-6.935"
             id="path118"
             style="fill:#d7172f;fill-opacity:1;fill-rule:nonzero;stroke:none" />
        </g>
        <g
           transform="translate(369.1233,105.0283)"
           id="g120">
          <path
             d="m 0,0 c -0.083,0.907 -0.45,1.611 -1.11,2.112 -0.658,0.502 -1.54,0.751 -2.653,0.751 -1.14,0 -2.01,-0.199 -2.603,-0.595 -0.594,-0.405 -0.892,-0.984 -0.892,-1.749 0,-0.584 0.206,-1.022 0.623,-1.319 0.421,-0.3 1.251,-0.594 2.495,-0.889 l 2.846,-0.678 c 1.592,-0.383 2.729,-0.924 3.412,-1.607 0.678,-0.673 1.015,-1.618 1.015,-2.829 0,-1.625 -0.587,-2.91 -1.751,-3.862 -1.172,-0.948 -2.751,-1.426 -4.746,-1.426 -2.303,0 -4.024,0.458 -5.16,1.372 -1.132,0.91 -1.759,2.347 -1.882,4.302 l 2.654,0 c 0.134,-1.162 0.543,-2.003 1.235,-2.523 0.686,-0.52 1.738,-0.781 3.156,-0.781 1.237,0 2.172,0.237 2.81,0.707 0.638,0.469 0.956,1.152 0.956,2.054 0,0.571 -0.207,1.005 -0.628,1.301 -0.416,0.297 -1.258,0.592 -2.524,0.888 l -2.85,0.675 c -1.54,0.367 -2.635,0.884 -3.292,1.547 -0.654,0.656 -0.984,1.572 -0.984,2.759 0,1.54 0.551,2.761 1.651,3.666 1.095,0.904 2.586,1.356 4.464,1.356 1.908,0 3.427,-0.466 4.554,-1.396 C 1.925,2.91 2.52,1.631 2.595,0 L 0,0 z"
             id="path122"
             style="fill:#d7172f;fill-opacity:1;fill-rule:nonzero;stroke:none" />
        </g>
      </g>
    </g>
    <g
       transform="matrix(1.25,0,0,-1.25,202.70451,985.8387)"
       id="g124">
      <path
         d="m 0,0 -4.653,16.381 3.024,0 3.149,-13.044 -0.003,0 3.197,13.044 3.061,0 3.294,-13.137 3.323,13.137 2.737,0 L 12.491,0 9.536,0 6.151,12.8 2.952,0 0,0 z"
         id="path126"
         style="fill:#d7172f;fill-opacity:1;fill-rule:nonzero;stroke:none" />
    </g>
    <g
       transform="matrix(1.25,0,0,-1.25,-269.40624,1102.5642)"
       id="g128">
      <g
         clip-path="url(#clipPath132)"
         id="g130">
        <g
           transform="translate(405.6127,99.8721)"
           id="g136">
          <path
             d="M 0,0 0,1.774 C -0.509,1.529 -1.076,1.362 -1.699,1.27 L -4.226,0.902 c -1.328,-0.185 -2.3,-0.491 -2.91,-0.928 -0.614,-0.432 -0.922,-1.024 -0.922,-1.767 0,-0.921 0.252,-1.626 0.75,-2.121 0.503,-0.496 1.211,-0.744 2.13,-0.744 1.45,0 2.676,0.391 3.677,1.179 0.684,0.55 1.139,1.172 1.365,1.87 0.039,0.129 0.073,0.343 0.093,0.626 C -0.015,-0.687 0,-0.36 0,0 m -5.714,-6.935 c -1.607,0 -2.875,0.432 -3.816,1.288 -0.941,0.858 -1.412,2.014 -1.412,3.474 0,1.468 0.442,2.637 1.327,3.506 0.883,0.865 2.173,1.407 3.869,1.622 l 3.755,0.474 c 0.304,0.029 0.595,0.081 0.872,0.153 0.358,0.091 0.632,0.277 0.827,0.552 C -0.097,4.41 0,4.755 0,5.174 l 0,0.138 c 0,0.876 -0.333,1.565 -0.997,2.059 -0.667,0.493 -1.595,0.743 -2.776,0.743 -1.136,0 -2.016,-0.26 -2.649,-0.788 C -7.064,6.805 -7.448,6.022 -7.58,4.983 l -2.541,0 c 0.134,1.797 0.767,3.144 1.899,4.049 1.13,0.905 2.748,1.356 4.861,1.356 1.989,0 3.506,-0.432 4.548,-1.297 1.041,-0.862 1.56,-2.12 1.56,-3.777 l 0,-9.007 c 0,-0.276 0.087,-0.498 0.258,-0.666 0.167,-0.171 0.397,-0.251 0.682,-0.251 0.082,0 0.205,0.01 0.362,0.029 0.159,0.022 0.331,0.051 0.514,0.095 l 0,-1.993 C 4.299,-6.582 4.018,-6.664 3.72,-6.727 3.426,-6.788 3.175,-6.816 2.971,-6.816 1.927,-6.816 1.174,-6.529 0.707,-5.958 0.4,-5.58 0.18,-5.042 0.047,-4.344 -0.158,-4.6 -0.393,-4.846 -0.655,-5.081 -2.038,-6.313 -3.724,-6.935 -5.714,-6.935"
             id="path138"
             style="fill:#d7172f;fill-opacity:1;fill-rule:nonzero;stroke:none" />
        </g>
        <g
           transform="translate(417.6241,93.3979)"
           id="g140">
          <path
             d="m 0,0 c -0.938,-0.138 -1.623,-0.21 -2.051,-0.21 -1.205,0 -2.055,0.266 -2.549,0.796 -0.499,0.531 -0.746,1.444 -0.746,2.737 l 0,10.789 -2.272,0 0,2.252 2.272,0 0,4.601 2.751,0 0,-4.601 2.595,0 0,-2.252 -2.595,0 0,-10.779 c 0,-0.368 0.147,-0.658 0.44,-0.874 C -1.866,2.247 -1.473,2.14 -0.979,2.14 L 0,2.14 0,0 z"
             id="path142"
             style="fill:#d7172f;fill-opacity:1;fill-rule:nonzero;stroke:none" />
        </g>
        <g
           transform="translate(299.3861,66.8296)"
           id="g144">
          <path
             d="m 0,0 6.201,0 c 1.741,0 3.019,0.339 3.832,1.013 0.807,0.675 1.215,1.74 1.215,3.193 0,1.265 -0.422,2.191 -1.27,2.78 C 9.131,7.573 7.798,7.869 5.984,7.869 L 0,7.869 0,0 z m 0,10.332 5.43,0 c 1.649,0 2.857,0.299 3.623,0.897 0.763,0.598 1.144,1.542 1.144,2.826 0,1.125 -0.352,1.95 -1.053,2.478 C 8.441,17.058 7.332,17.32 5.828,17.32 L 0,17.32 0,10.332 z m -3.054,9.584 9.891,0 c 1.916,0 3.464,-0.493 4.637,-1.476 1.174,-0.986 1.76,-2.284 1.76,-3.897 0,-1.869 -0.695,-3.329 -2.081,-4.38 -0.317,-0.246 -0.662,-0.454 -1.027,-0.626 0.744,-0.269 1.393,-0.6 1.944,-0.997 1.475,-1.074 2.214,-2.558 2.214,-4.457 0,-2.095 -0.719,-3.731 -2.151,-4.91 -1.435,-1.18 -3.429,-1.768 -5.982,-1.768 l -9.205,0 0,22.511 z"
             id="path146"
             style="fill:#d7172f;fill-opacity:1;fill-rule:nonzero;stroke:none" />
        </g>
        <g
           transform="translate(326.193,70.7246)"
           id="g148">
          <path
             d="M 0,0 0,1.777 C -0.51,1.532 -1.076,1.364 -1.699,1.274 L -4.228,0.906 c -1.326,-0.185 -2.297,-0.495 -2.913,-0.928 -0.609,-0.436 -0.914,-1.023 -0.914,-1.77 0,-0.922 0.248,-1.628 0.75,-2.121 0.497,-0.496 1.208,-0.743 2.129,-0.743 1.448,0 2.677,0.392 3.675,1.177 0.684,0.552 1.14,1.175 1.365,1.873 0.039,0.13 0.07,0.339 0.09,0.626 C -0.013,-0.685 0,-0.357 0,0 m -5.717,-6.929 c -1.601,0 -2.875,0.429 -3.813,1.284 -0.941,0.859 -1.41,2.014 -1.41,3.476 0,1.468 0.44,2.637 1.325,3.502 0.884,0.867 2.173,1.406 3.869,1.624 l 3.757,0.476 c 0.303,0.026 0.595,0.079 0.87,0.152 0.357,0.09 0.634,0.273 0.829,0.553 C -0.097,4.413 0,4.757 0,5.176 L 0,5.314 C 0,6.19 -0.333,6.876 -0.995,7.375 -1.659,7.871 -2.589,8.117 -3.773,8.117 -4.903,8.117 -5.79,7.853 -6.425,7.329 -7.064,6.804 -7.447,6.022 -7.58,4.985 l -2.539,0 c 0.132,1.797 0.763,3.145 1.895,4.049 1.133,0.904 2.75,1.355 4.863,1.355 1.99,0 3.509,-0.432 4.547,-1.294 C 2.23,8.232 2.753,6.973 2.753,5.318 l 0,-9.008 c 0,-0.275 0.082,-0.499 0.249,-0.665 0.172,-0.17 0.4,-0.252 0.686,-0.252 0.082,0 0.204,0.008 0.364,0.029 0.155,0.02 0.328,0.051 0.513,0.09 l 0,-1.989 C 4.299,-6.581 4.016,-6.661 3.72,-6.724 3.427,-6.787 3.178,-6.815 2.973,-6.815 c -1.042,0 -1.796,0.286 -2.269,0.86 -0.305,0.377 -0.524,0.916 -0.657,1.613 -0.204,-0.257 -0.44,-0.498 -0.704,-0.737 -1.381,-1.233 -3.066,-1.85 -5.06,-1.85"
             id="path150"
             style="fill:#d7172f;fill-opacity:1;fill-rule:nonzero;stroke:none" />
        </g>
        <g
           transform="translate(332.8203,80.6152)"
           id="g152">
          <path
             d="m 0,0 2.609,0 0,-2.41 0.615,0.81 c 1.193,1.4 2.692,2.098 4.49,2.098 1.807,0 3.197,-0.491 4.179,-1.473 0.982,-0.978 1.469,-2.373 1.469,-4.178 l 0,-11.228 -2.746,0 0,10.3 c 0,1.443 -0.281,2.482 -0.837,3.12 -0.56,0.638 -1.461,0.96 -2.706,0.96 -1.331,0 -2.382,-0.504 -3.161,-1.513 C 3.136,-4.521 2.747,-5.881 2.747,-7.599 l 0,-8.782 -2.747,0 L 0,0 z"
             id="path154"
             style="fill:#d7172f;fill-opacity:1;fill-rule:nonzero;stroke:none" />
        </g>
      </g>
    </g>
    <g
       transform="matrix(1.25,0,0,-1.25,167.50101,994.13217)"
       id="g156">
      <path
         d="m 0,0 2.747,0 0,-12.983 6.924,6.853 3.51,0 -6.228,-6.071 6.643,-10.31 -3.591,0 -5.091,8.324 -2.167,-2.112 0,-6.212 -2.747,0 L 0,0 z"
         id="path158"
         style="fill:#d7172f;fill-opacity:1;fill-rule:nonzero;stroke:none" />
    </g>
    <g
       transform="matrix(1.25,0,0,-1.25,5.0245142,1045.5141)"
       id="g160">
      <path
         d="m 0,0 -1.516,0 0,0.536 3.636,0 0,-0.536 -1.516,0 0,-3.944 L 0,-3.944 0,0 z"
         id="path162"
         style="fill:#000000;fill-opacity:1;fill-rule:nonzero;stroke:none" />
    </g>
    <g
       transform="matrix(1.25,0,0,-1.25,8.5830142,1044.8439)"
       id="g164">
      <path
         d="m 0,0 0.604,0 0,-1.838 2.34,0 0,1.838 0.605,0 0,-4.48 -0.605,0 0,2.105 -2.34,0 0,-2.105 L 0,-4.48 0,0 z"
         id="path166"
         style="fill:#000000;fill-opacity:1;fill-rule:nonzero;stroke:none" />
    </g>
    <g
       transform="matrix(1.25,0,0,-1.25,14.165014,1050.4436)"
       id="g168">
      <path
         d="m 0,0 0,4.48 3.276,0 0,-0.536 -2.672,0 0,-1.37 2.443,0 0,-0.537 -2.443,0 0,-1.5 2.705,0 L 3.309,0 0,0 z"
         id="path170"
         style="fill:#000000;fill-opacity:1;fill-rule:nonzero;stroke:none" />
    </g>
    <g
       transform="matrix(1.25,0,0,-1.25,-269.40624,1102.5642)"
       id="g172">
      <g
         clip-path="url(#clipPath176)"
         id="g174">
        <g
           transform="translate(235.7333,44.8796)"
           id="g180">
          <path
             d="m 0,0 c -0.027,0.281 -0.139,0.5 -0.334,0.653 -0.197,0.152 -0.46,0.23 -0.791,0.23 -0.343,0 -0.602,-0.066 -0.778,-0.199 -0.176,-0.132 -0.265,-0.324 -0.265,-0.579 0,-0.173 0.058,-0.302 0.176,-0.386 0.118,-0.087 0.355,-0.17 0.71,-0.254 L -0.5,-0.721 c 0.418,-0.099 0.718,-0.247 0.896,-0.441 0.18,-0.194 0.269,-0.467 0.269,-0.821 0,-0.406 -0.154,-0.728 -0.462,-0.966 -0.307,-0.238 -0.725,-0.356 -1.252,-0.356 -0.585,0 -1.043,0.137 -1.372,0.41 -0.322,0.272 -0.482,0.642 -0.482,1.112 l 0,0.033 0.555,0 c 0.011,-0.325 0.129,-0.578 0.355,-0.753 0.226,-0.178 0.54,-0.266 0.944,-0.266 0.373,0 0.655,0.064 0.849,0.192 0.194,0.127 0.29,0.316 0.29,0.564 0,0.215 -0.064,0.375 -0.191,0.478 -0.126,0.103 -0.38,0.199 -0.763,0.29 l -0.782,0.186 c -0.393,0.093 -0.676,0.223 -0.844,0.39 -0.169,0.168 -0.252,0.396 -0.252,0.692 0,0.428 0.145,0.768 0.437,1.019 0.291,0.252 0.684,0.376 1.18,0.376 0.503,0 0.903,-0.126 1.203,-0.377 C 0.375,0.79 0.535,0.442 0.555,0 L 0,0 z"
             id="path182"
             style="fill:#000000;fill-opacity:1;fill-rule:nonzero;stroke:none" />
        </g>
      </g>
    </g>
    <g
       transform="matrix(1.25,0,0,-1.25,27.902134,1048.1528)"
       id="g184">
      <path
         d="m 0,0 1.412,0 -0.693,1.989 0.003,0 L 0,0 z m 0.404,2.647 0.691,0 1.608,-4.48 -0.649,0 -0.457,1.297 -1.79,0 -0.47,-1.297 -0.625,0 1.692,4.48 z"
         id="path186"
         style="fill:#000000;fill-opacity:1;fill-rule:nonzero;stroke:none" />
    </g>
    <g
       transform="matrix(1.25,0,0,-1.25,-269.40624,1102.5642)"
       id="g188">
      <g
         clip-path="url(#clipPath192)"
         id="g190">
        <g
           transform="translate(241.8188,44.1528)"
           id="g196">
          <path
             d="m 0,0 1.5,0 c 0.281,0 0.485,0.062 0.616,0.185 0.13,0.123 0.195,0.317 0.195,0.585 0,0.258 -0.068,0.446 -0.205,0.567 -0.138,0.119 -0.354,0.18 -0.652,0.18 L 0,1.517 0,0 z m -0.604,2.023 2.083,0 C 1.955,2.023 2.316,1.921 2.563,1.714 2.811,1.507 2.935,1.204 2.935,0.807 2.935,0.415 2.806,0.108 2.548,-0.114 2.484,-0.169 2.413,-0.218 2.338,-0.26 l 0.1,-0.048 c 0.273,-0.157 0.414,-0.42 0.425,-0.789 l 0.024,-0.816 c 0.003,-0.133 0.02,-0.23 0.052,-0.289 0.029,-0.06 0.089,-0.109 0.176,-0.151 l 0,-0.098 -0.745,0 C 2.353,-2.415 2.337,-2.319 2.32,-2.165 2.305,-2.011 2.292,-1.839 2.284,-1.652 L 2.271,-1.299 C 2.263,-1.021 2.195,-0.823 2.067,-0.704 1.938,-0.585 1.73,-0.526 1.44,-0.526 l -1.44,0 0,-1.93 -0.604,0 0,4.479 z"
             id="path198"
             style="fill:#000000;fill-opacity:1;fill-rule:nonzero;stroke:none" />
        </g>
      </g>
    </g>
    <g
       transform="matrix(1.25,0,0,-1.25,38.971764,1048.1528)"
       id="g200">
      <path
         d="m 0,0 1.41,0 -0.691,1.989 0.002,0 L 0,0 z m 0.402,2.647 0.693,0 1.608,-4.48 -0.65,0 -0.456,1.297 -1.79,0 -0.47,-1.297 -0.625,0 1.69,4.48 z"
         id="path202"
         style="fill:#000000;fill-opacity:1;fill-rule:nonzero;stroke:none" />
    </g>
    <g
       transform="matrix(1.25,0,0,-1.25,-269.40624,1102.5642)"
       id="g204">
      <g
         clip-path="url(#clipPath208)"
         id="g206">
        <g
           transform="translate(252.5995,44.8796)"
           id="g212">
          <path
             d="m 0,0 c -0.027,0.281 -0.139,0.5 -0.335,0.653 -0.195,0.152 -0.459,0.23 -0.79,0.23 -0.342,0 -0.601,-0.066 -0.778,-0.199 C -2.08,0.552 -2.168,0.36 -2.168,0.105 c 0,-0.173 0.058,-0.302 0.176,-0.386 0.118,-0.087 0.356,-0.17 0.711,-0.254 L -0.5,-0.721 c 0.418,-0.099 0.718,-0.247 0.897,-0.441 0.179,-0.194 0.268,-0.467 0.268,-0.821 0,-0.406 -0.154,-0.728 -0.462,-0.966 -0.307,-0.238 -0.725,-0.356 -1.251,-0.356 -0.587,0 -1.044,0.137 -1.374,0.41 -0.32,0.272 -0.482,0.642 -0.482,1.112 l 0,0.033 0.557,0 c 0.009,-0.325 0.128,-0.578 0.354,-0.753 0.226,-0.178 0.54,-0.266 0.944,-0.266 0.372,0 0.656,0.064 0.849,0.192 0.193,0.127 0.29,0.316 0.29,0.564 0,0.215 -0.062,0.375 -0.189,0.478 -0.127,0.103 -0.381,0.199 -0.765,0.29 l -0.781,0.186 c -0.395,0.093 -0.676,0.223 -0.845,0.39 -0.169,0.168 -0.252,0.396 -0.252,0.692 0,0.428 0.145,0.768 0.436,1.019 0.292,0.252 0.685,0.376 1.181,0.376 0.503,0 0.904,-0.126 1.202,-0.377 C 0.375,0.79 0.535,0.442 0.555,0 L 0,0 z"
             id="path214"
             style="fill:#000000;fill-opacity:1;fill-rule:nonzero;stroke:none" />
        </g>
        <g
           transform="translate(254.7371,41.6965)"
           id="g216">
          <path
             d="m 0,0 -1.172,4.48 0.654,0 0.799,-3.541 C 0.296,0.879 0.307,0.823 0.316,0.769 0.325,0.715 0.33,0.677 0.33,0.655 l -0.001,0 c 0,0.027 0.006,0.067 0.016,0.121 0.01,0.055 0.022,0.11 0.036,0.163 l 0.948,3.541 0.683,0 0.941,-3.522 C 2.969,0.902 2.983,0.846 2.993,0.789 3.002,0.732 3.008,0.69 3.008,0.665 l -10e-4,0 c 0,0.021 0.004,0.061 0.013,0.118 0.01,0.057 0.021,0.114 0.035,0.175 L 3.864,4.48 4.515,4.48 3.343,0 2.691,0 1.719,3.466 C 1.703,3.524 1.689,3.582 1.676,3.638 1.664,3.696 1.658,3.736 1.658,3.757 l -10e-4,0 C 1.657,3.731 1.652,3.69 1.641,3.633 1.631,3.579 1.618,3.522 1.602,3.466 L 0.653,0 0,0 z"
             id="path218"
             style="fill:#000000;fill-opacity:1;fill-rule:nonzero;stroke:none" />
        </g>
      </g>
    </g>
    <g
       transform="matrix(1.25,0,0,-1.25,55.917394,1048.1528)"
       id="g220">
      <path
         d="M 0,0 1.412,0 0.72,1.989 0.721,1.989 0,0 z m 0.404,2.647 0.691,0 1.609,-4.48 -0.65,0 -0.457,1.297 -1.79,0 -0.47,-1.297 -0.626,0 1.693,4.48 z"
         id="path222"
         style="fill:#000000;fill-opacity:1;fill-rule:nonzero;stroke:none" />
    </g>
    <g
       transform="matrix(1.25,0,0,-1.25,60.819634,1045.5141)"
       id="g224">
      <path
         d="m 0,0 -1.516,0 0,0.536 3.636,0 0,-0.536 -1.516,0 0,-3.944 L 0,-3.944 0,0 z"
         id="path226"
         style="fill:#000000;fill-opacity:1;fill-rule:nonzero;stroke:none" />
    </g>
    <g
       transform="matrix(1.25,0,0,-1.25,-269.40624,1102.5642)"
       id="g228">
      <g
         clip-path="url(#clipPath232)"
         id="g230">
        <g
           transform="translate(272.1862,43.3442)"
           id="g236">
          <path
             d="m 0,0 c -0.077,-0.552 -0.289,-0.986 -0.636,-1.299 -0.346,-0.315 -0.785,-0.47 -1.315,-0.47 -0.618,0 -1.11,0.211 -1.477,0.637 -0.366,0.426 -0.55,1 -0.55,1.721 0,0.721 0.191,1.296 0.572,1.723 0.381,0.428 0.892,0.642 1.534,0.642 0.507,0 0.922,-0.13 1.248,-0.391 0.325,-0.26 0.52,-0.619 0.585,-1.077 l -0.585,0 c -0.057,0.297 -0.195,0.527 -0.414,0.688 -0.218,0.163 -0.499,0.244 -0.843,0.244 -0.448,0 -0.807,-0.167 -1.073,-0.495 -0.267,-0.331 -0.4,-0.775 -0.4,-1.334 0,-0.593 0.123,-1.046 0.37,-1.355 0.248,-0.312 0.605,-0.467 1.075,-0.467 0.347,0 0.637,0.106 0.866,0.322 0.231,0.212 0.382,0.518 0.457,0.911 L 0,0 z"
             id="path238"
             style="fill:#000000;fill-opacity:1;fill-rule:nonzero;stroke:none" />
        </g>
        <g
           transform="translate(276.0305,42.613)"
           id="g240">
          <path
             d="M 0,0 C 0.286,0.336 0.429,0.776 0.429,1.321 0.429,1.867 0.286,2.309 0,2.644 -0.287,2.981 -0.665,3.149 -1.132,3.149 -1.598,3.149 -1.974,2.981 -2.26,2.644 -2.548,2.309 -2.691,1.867 -2.691,1.321 -2.691,0.776 -2.548,0.336 -2.26,0 c 0.286,-0.335 0.662,-0.502 1.128,-0.502 0.467,0 0.845,0.167 1.132,0.502 m -2.71,-0.388 c -0.403,0.433 -0.605,1.003 -0.605,1.709 0,0.707 0.202,1.278 0.605,1.711 0.401,0.436 0.929,0.653 1.578,0.653 0.655,0 1.182,-0.217 1.583,-0.653 0.401,-0.433 0.602,-1.004 0.602,-1.711 0,-0.706 -0.201,-1.276 -0.602,-1.709 -0.401,-0.434 -0.928,-0.65 -1.583,-0.65 -0.649,0 -1.177,0.216 -1.578,0.65"
             id="path242"
             style="fill:#000000;fill-opacity:1;fill-rule:nonzero;stroke:none" />
        </g>
      </g>
    </g>
    <path
       d="m 77.787514,1048.6392 1.9125,0 0,-0.7062 -1.9125,0 0,0.7062 z"
       id="path244"
       style="fill:#000000;fill-opacity:1;fill-rule:nonzero;stroke:none" />
    <g
       transform="matrix(1.25,0,0,-1.25,-269.40624,1102.5642)"
       id="g246">
      <g
         clip-path="url(#clipPath250)"
         id="g248">
        <g
           transform="translate(283.2733,42.613)"
           id="g254">
          <path
             d="M 0,0 C 0.287,0.336 0.43,0.776 0.43,1.321 0.43,1.867 0.287,2.309 0,2.644 -0.287,2.981 -0.665,3.149 -1.132,3.149 -1.597,3.149 -1.974,2.981 -2.26,2.644 -2.547,2.309 -2.691,1.867 -2.691,1.321 -2.691,0.776 -2.547,0.336 -2.26,0 c 0.286,-0.335 0.663,-0.502 1.128,-0.502 0.467,0 0.845,0.167 1.132,0.502 m -2.711,-0.388 c -0.402,0.433 -0.603,1.003 -0.603,1.709 0,0.707 0.201,1.278 0.603,1.711 0.403,0.436 0.93,0.653 1.579,0.653 0.655,0 1.183,-0.217 1.583,-0.653 0.402,-0.433 0.602,-1.004 0.602,-1.711 0,-0.706 -0.2,-1.276 -0.602,-1.709 -0.4,-0.434 -0.928,-0.65 -1.583,-0.65 -0.649,0 -1.176,0.216 -1.579,0.65"
             id="path256"
             style="fill:#000000;fill-opacity:1;fill-rule:nonzero;stroke:none" />
        </g>
        <g
           transform="translate(285.6161,44.1052)"
           id="g258">
          <path
             d="M 0,0 1.204,0 C 1.519,0 1.749,0.066 1.896,0.199 2.042,0.333 2.115,0.54 2.115,0.825 2.115,1.077 2.042,1.262 1.896,1.379 1.749,1.495 1.519,1.555 1.204,1.555 L 0,1.555 0,0 z m -0.605,2.071 1.958,0 c 0.435,0 0.775,-0.11 1.019,-0.328 C 2.617,1.525 2.74,1.223 2.74,0.836 2.74,0.41 2.617,0.079 2.372,-0.161 2.128,-0.401 1.788,-0.521 1.353,-0.521 0.781,-0.519 0.331,-0.521 0,-0.528 l 0,-1.881 -0.605,0 0,4.48 z"
             id="path260"
             style="fill:#000000;fill-opacity:1;fill-rule:nonzero;stroke:none" />
        </g>
      </g>
    </g>
    <g
       transform="matrix(1.25,0,0,-1.25,91.942882,1050.4436)"
       id="g262">
      <path
         d="m 0,0 0,4.48 3.276,0 0,-0.536 -2.671,0 0,-1.37 2.442,0 0,-0.537 -2.442,0 0,-1.5 2.705,0 L 3.31,0 0,0 z"
         id="path264"
         style="fill:#000000;fill-opacity:1;fill-rule:nonzero;stroke:none" />
    </g>
    <g
       transform="matrix(1.25,0,0,-1.25,-269.40624,1102.5642)"
       id="g266">
      <g
         clip-path="url(#clipPath270)"
         id="g268">
        <g
           transform="translate(294.0169,44.1528)"
           id="g274">
          <path
             d="M 0,0 1.498,0 C 1.78,0 1.985,0.062 2.115,0.185 2.245,0.308 2.31,0.502 2.31,0.77 2.31,1.028 2.241,1.216 2.105,1.337 1.966,1.456 1.751,1.517 1.454,1.517 L 0,1.517 0,0 z m -0.605,2.023 2.084,0 C 1.953,2.023 2.315,1.921 2.562,1.714 2.81,1.507 2.934,1.204 2.934,0.807 2.934,0.415 2.805,0.108 2.547,-0.114 2.482,-0.169 2.412,-0.218 2.337,-0.26 l 0.101,-0.048 c 0.272,-0.157 0.413,-0.42 0.423,-0.789 l 0.024,-0.816 c 0.005,-0.133 0.022,-0.23 0.052,-0.289 0.031,-0.06 0.09,-0.109 0.177,-0.151 l 0,-0.098 -0.746,0 C 2.352,-2.415 2.335,-2.319 2.32,-2.165 2.302,-2.011 2.291,-1.839 2.283,-1.652 l -0.014,0.353 c -0.007,0.278 -0.076,0.476 -0.204,0.595 -0.127,0.119 -0.336,0.178 -0.628,0.178 l -1.437,0 0,-1.93 -0.605,0 0,4.479 z"
             id="path276"
             style="fill:#000000;fill-opacity:1;fill-rule:nonzero;stroke:none" />
        </g>
      </g>
    </g>
    <g
       transform="matrix(1.25,0,0,-1.25,104.06114,1048.1528)"
       id="g278">
      <path
         d="m 0,0 1.411,0 -0.692,1.989 0.002,0 L 0,0 z m 0.402,2.647 0.693,0 1.609,-4.48 -0.65,0 -0.457,1.297 -1.79,0 -0.47,-1.297 -0.625,0 1.69,4.48 z"
         id="path280"
         style="fill:#000000;fill-opacity:1;fill-rule:nonzero;stroke:none" />
    </g>
    <g
       transform="matrix(1.25,0,0,-1.25,108.80788,1045.5141)"
       id="g282">
      <path
         d="m 0,0 -1.516,0 0,0.536 3.637,0 0,-0.536 -1.516,0 0,-3.944 L 0,-3.944 0,0 z"
         id="path284"
         style="fill:#000000;fill-opacity:1;fill-rule:nonzero;stroke:none" />
    </g>
    <path
       d="m 112.62501,1050.4442 0.7575,0 0,-5.6 -0.7575,0 0,5.6 z"
       id="path286"
       style="fill:#000000;fill-opacity:1;fill-rule:nonzero;stroke:none" />
    <g
       transform="matrix(1.25,0,0,-1.25,114.43776,1044.8439)"
       id="g288">
      <path
         d="m 0,0 0.675,0 1.282,-3.827 0.006,0 L 3.241,0 3.912,0 2.282,-4.48 1.631,-4.48 0,0 z"
         id="path290"
         style="fill:#000000;fill-opacity:1;fill-rule:nonzero;stroke:none" />
    </g>
    <g
       transform="matrix(1.25,0,0,-1.25,120.19114,1050.4436)"
       id="g292">
      <path
         d="m 0,0 0,4.48 3.276,0 0,-0.536 -2.672,0 0,-1.37 2.443,0 0,-0.537 -2.443,0 0,-1.5 2.706,0 L 3.31,0 0,0 z"
         id="path294"
         style="fill:#000000;fill-opacity:1;fill-rule:nonzero;stroke:none" />
    </g>
    <g
       transform="matrix(1.25,0,0,-1.25,-269.40624,1102.5642)"
       id="g296">
      <g
         clip-path="url(#clipPath300)"
         id="g298">
        <g
           transform="translate(318.4167,42.2122)"
           id="g304">
          <path
             d="M 0,0 1.235,0 C 1.583,0 1.838,0.069 2,0.202 2.161,0.337 2.242,0.548 2.242,0.836 2.242,1.089 2.158,1.274 1.989,1.391 1.82,1.507 1.555,1.565 1.192,1.565 L 0,1.565 0,0 z m 0,2.058 1.082,0 c 0.328,0 0.571,0.059 0.722,0.179 0.153,0.118 0.229,0.305 0.229,0.56 0,0.224 -0.071,0.388 -0.21,0.494 C 1.683,3.395 1.461,3.448 1.161,3.448 L 0,3.448 0,2.058 z m -0.604,1.906 1.967,0 C 1.745,3.964 2.052,3.865 2.287,3.67 2.52,3.474 2.636,3.216 2.636,2.895 2.636,2.523 2.499,2.233 2.222,2.024 2.16,1.975 2.092,1.933 2.019,1.899 2.167,1.846 2.296,1.78 2.405,1.701 2.699,1.488 2.846,1.192 2.846,0.813 2.846,0.397 2.703,0.071 2.419,-0.163 2.134,-0.398 1.737,-0.516 1.228,-0.516 l -1.832,0 0,4.48 z"
             id="path306"
             style="fill:#000000;fill-opacity:1;fill-rule:nonzero;stroke:none" />
        </g>
      </g>
    </g>
    <g
       transform="matrix(1.25,0,0,-1.25,134.08463,1048.1528)"
       id="g308">
      <path
         d="m 0,0 1.412,0 -0.693,1.989 0.003,0 L 0,0 z m 0.402,2.647 0.693,0 1.609,-4.48 -0.65,0 -0.457,1.297 -1.789,0 -0.47,-1.297 -0.625,0 1.689,4.48 z"
         id="path310"
         style="fill:#000000;fill-opacity:1;fill-rule:nonzero;stroke:none" />
    </g>
    <g
       transform="matrix(1.25,0,0,-1.25,139.09163,1050.4436)"
       id="g312">
      <path
         d="m 0,0 -0.586,0 0,4.48 0.729,0 2.241,-3.641 0,3.641 0.584,0 L 2.968,0 2.304,0 0,3.654 0,0 z"
         id="path314"
         style="fill:#000000;fill-opacity:1;fill-rule:nonzero;stroke:none" />
    </g>
    <g
       transform="matrix(1.25,0,0,-1.25,144.03113,1044.8439)"
       id="g316">
      <path
         d="m 0,0 0.604,0 0,-2.175 L 2.788,0 3.626,0 1.727,-1.829 3.662,-4.48 l -0.788,0 -1.592,2.217 -0.678,-0.653 0,-1.564 L 0,-4.48 0,0 z"
         id="path318"
         style="fill:#000000;fill-opacity:1;fill-rule:nonzero;stroke:none" />
    </g>
    <g
       transform="matrix(1.25,0,0,-1.25,151.79001,1050.4436)"
       id="g320">
      <path
         d="m 0,0 0,4.48 0.606,0 0,-3.943 2.27,0 L 2.876,0 0,0 z"
         id="path322"
         style="fill:#000000;fill-opacity:1;fill-rule:nonzero;stroke:none" />
    </g>
    <g
       transform="matrix(1.25,0,0,-1.25,156.48238,1045.5141)"
       id="g324">
      <path
         d="m 0,0 -1.516,0 0,0.536 3.636,0 0,-0.536 -1.515,0 0,-3.944 L 0,-3.944 0,0 z"
         id="path326"
         style="fill:#000000;fill-opacity:1;fill-rule:nonzero;stroke:none" />
    </g>
    <g
       transform="matrix(1.25,0,0,-1.25,-269.40624,1102.5642)"
       id="g328">
      <g
         clip-path="url(#clipPath332)"
         id="g330">
        <g
           transform="translate(344.187,42.2122)"
           id="g336">
          <path
             d="m 0,0 1.108,0 c 0.435,0 0.771,0.15 1.008,0.449 0.236,0.3 0.355,0.722 0.355,1.272 0,0.551 -0.114,0.976 -0.341,1.277 -0.229,0.299 -0.552,0.45 -0.969,0.45 L 0,3.448 0,0 z m -0.605,3.964 1.839,0 C 1.802,3.964 2.254,3.76 2.591,3.356 2.926,2.951 3.095,2.406 3.095,1.721 3.095,1.038 2.922,0.495 2.578,0.091 2.234,-0.314 1.771,-0.516 1.185,-0.516 l -1.79,0 0,4.48 z"
             id="path338"
             style="fill:#000000;fill-opacity:1;fill-rule:nonzero;stroke:none" />
        </g>
      </g>
    </g>
    <path
       d="m 165.00626,1050.4442 0.81625,0 0,-0.8275 -0.81625,0 0,0.8275 z"
       id="path340"
       style="fill:#000000;fill-opacity:1;fill-rule:nonzero;stroke:none" />
    <g
       transform="matrix(1.25,0,0,-1.25,-269.40624,1102.5642)"
       id="g342">
      <g
         clip-path="url(#clipPath346)"
         id="g344">
        <g
           transform="translate(350.1929,44.1624)"
           id="g350">
          <path
             d="M 0,0 C 0,0.508 0.085,0.995 0.256,1.464 0.427,1.932 0.698,2.422 1.068,2.93 l 0.375,0 C 1.147,2.408 0.928,1.913 0.791,1.444 0.652,0.974 0.585,0.494 0.585,0 c 0,-0.497 0.067,-0.981 0.206,-1.45 0.137,-0.47 0.356,-0.964 0.652,-1.484 l -0.375,0 c -0.37,0.51 -0.641,1 -0.812,1.469 C 0.085,-0.996 0,-0.508 0,0"
             id="path352"
             style="fill:#000000;fill-opacity:1;fill-rule:nonzero;stroke:none" />
        </g>
      </g>
    </g>
    <g
       transform="matrix(1.25,0,0,-1.25,172.31738,1048.1528)"
       id="g354">
      <path
         d="M 0,0 1.41,0 0.719,1.989 0.72,1.989 0,0 z m 0.402,2.647 0.692,0 1.609,-4.48 -0.651,0 -0.455,1.297 -1.79,0 -0.471,-1.297 -0.625,0 1.691,4.48 z"
         id="path356"
         style="fill:#000000;fill-opacity:1;fill-rule:nonzero;stroke:none" />
    </g>
    <g
       transform="matrix(1.25,0,0,-1.25,-269.40624,1102.5642)"
       id="g358">
      <g
         clip-path="url(#clipPath362)"
         id="g360">
        <g
           transform="translate(361.1655,44.8796)"
           id="g366">
          <path
             d="m 0,0 c -0.026,0.281 -0.139,0.5 -0.335,0.653 -0.195,0.152 -0.459,0.23 -0.791,0.23 -0.341,0 -0.601,-0.066 -0.777,-0.199 -0.176,-0.132 -0.265,-0.324 -0.265,-0.579 0,-0.173 0.058,-0.302 0.176,-0.386 0.118,-0.087 0.355,-0.17 0.712,-0.254 l 0.78,-0.186 c 0.419,-0.099 0.717,-0.247 0.897,-0.441 0.179,-0.194 0.268,-0.467 0.268,-0.821 0,-0.406 -0.154,-0.728 -0.462,-0.966 -0.307,-0.238 -0.725,-0.356 -1.252,-0.356 -0.585,0 -1.043,0.137 -1.373,0.41 -0.32,0.272 -0.481,0.642 -0.481,1.112 l 0,0.033 0.556,0 c 0.01,-0.325 0.127,-0.578 0.354,-0.753 0.226,-0.178 0.54,-0.266 0.944,-0.266 0.373,0 0.655,0.064 0.849,0.192 0.194,0.127 0.291,0.316 0.291,0.564 0,0.215 -0.063,0.375 -0.19,0.478 -0.127,0.103 -0.382,0.199 -0.764,0.29 l -0.781,0.186 c -0.395,0.093 -0.678,0.223 -0.846,0.39 -0.168,0.168 -0.251,0.396 -0.251,0.692 0,0.428 0.144,0.768 0.436,1.019 0.292,0.252 0.684,0.376 1.179,0.376 0.504,0 0.905,-0.126 1.203,-0.377 C 0.377,0.79 0.535,0.442 0.555,0 L 0,0 z"
             id="path368"
             style="fill:#000000;fill-opacity:1;fill-rule:nonzero;stroke:none" />
        </g>
        <g
           transform="translate(366.5282,43.3442)"
           id="g370">
          <path
             d="m 0,0 c -0.076,-0.552 -0.289,-0.986 -0.636,-1.299 -0.346,-0.315 -0.785,-0.47 -1.315,-0.47 -0.617,0 -1.109,0.211 -1.477,0.637 -0.366,0.426 -0.549,1 -0.549,1.721 0,0.721 0.19,1.296 0.571,1.723 0.382,0.428 0.892,0.642 1.535,0.642 0.506,0 0.922,-0.13 1.248,-0.391 0.324,-0.26 0.52,-0.619 0.585,-1.077 l -0.585,0 c -0.057,0.297 -0.195,0.527 -0.413,0.688 -0.22,0.163 -0.501,0.244 -0.844,0.244 -0.449,0 -0.808,-0.167 -1.074,-0.495 -0.267,-0.331 -0.4,-0.775 -0.4,-1.334 0,-0.593 0.124,-1.046 0.371,-1.355 0.248,-0.312 0.606,-0.467 1.075,-0.467 0.348,0 0.637,0.106 0.865,0.322 0.231,0.212 0.383,0.518 0.458,0.911 L 0,0 z"
             id="path372"
             style="fill:#000000;fill-opacity:1;fill-rule:nonzero;stroke:none" />
        </g>
      </g>
    </g>
    <g
       transform="matrix(1.25,0,0,-1.25,189.87088,1044.8439)"
       id="g374">
      <path
         d="m 0,0 0.605,0 0,-1.838 2.339,0 0,1.838 0.605,0 0,-4.48 -0.605,0 0,2.105 -2.339,0 0,-2.105 L 0,-4.48 0,0 z"
         id="path376"
         style="fill:#000000;fill-opacity:1;fill-rule:nonzero;stroke:none" />
    </g>
    <g
       transform="matrix(1.25,0,0,-1.25,195.76551,1050.4436)"
       id="g378">
      <path
         d="m 0,0 0,4.48 3.276,0 0,-0.536 -2.672,0 0,-1.37 2.443,0 0,-0.537 -2.443,0 0,-1.5 2.706,0 L 3.31,0 0,0 z"
         id="path380"
         style="fill:#000000;fill-opacity:1;fill-rule:nonzero;stroke:none" />
    </g>
    <g
       transform="matrix(1.25,0,0,-1.25,-269.40624,1102.5642)"
       id="g382">
      <g
         clip-path="url(#clipPath386)"
         id="g384">
        <g
           transform="translate(376.9058,42.2122)"
           id="g390">
          <path
             d="m 0,0 1.11,0 c 0.435,0 0.77,0.15 1.008,0.449 0.236,0.3 0.354,0.722 0.354,1.272 0,0.551 -0.113,0.976 -0.342,1.277 -0.227,0.299 -0.55,0.45 -0.969,0.45 L 0,3.448 0,0 z m -0.604,3.964 1.839,0 c 0.57,0 1.02,-0.204 1.357,-0.608 C 2.928,2.951 3.096,2.406 3.096,1.721 3.096,1.038 2.924,0.495 2.58,0.091 2.236,-0.314 1.771,-0.516 1.186,-0.516 l -1.79,0 0,4.48 z"
             id="path392"
             style="fill:#000000;fill-opacity:1;fill-rule:nonzero;stroke:none" />
        </g>
        <g
           transform="translate(384.349,43.3391)"
           id="g394">
          <path
             d="m 0,0 c 0,-0.552 -0.155,-0.985 -0.467,-1.297 -0.31,-0.312 -0.742,-0.467 -1.295,-0.467 -0.573,0 -1.012,0.149 -1.311,0.449 -0.301,0.3 -0.451,0.737 -0.451,1.315 l 0,2.837 0.604,0 0,-2.791 c 0,-0.418 0.099,-0.733 0.296,-0.95 0.197,-0.215 0.484,-0.324 0.862,-0.324 0.379,0 0.667,0.109 0.864,0.324 0.196,0.217 0.293,0.532 0.293,0.95 l 0,2.791 L 0,2.837 0,0 z"
             id="path396"
             style="fill:#000000;fill-opacity:1;fill-rule:nonzero;stroke:none" />
        </g>
      </g>
    </g>
    <g
       transform="matrix(1.25,0,0,-1.25,212.43388,1050.4436)"
       id="g398">
      <path
         d="m 0,0 0,4.48 0.604,0 0,-3.943 2.271,0 L 2.875,0 0,0 z"
         id="path400"
         style="fill:#000000;fill-opacity:1;fill-rule:nonzero;stroke:none" />
    </g>
    <g
       transform="matrix(1.25,0,0,-1.25,216.88301,1050.4436)"
       id="g402">
      <path
         d="m 0,0 0,4.48 3.276,0 0,-0.536 -2.672,0 0,-1.37 2.443,0 0,-0.537 -2.443,0 0,-1.5 2.706,0 L 3.31,0 0,0 z"
         id="path404"
         style="fill:#000000;fill-opacity:1;fill-rule:nonzero;stroke:none" />
    </g>
    <g
       transform="matrix(1.25,0,0,-1.25,-269.40624,1102.5642)"
       id="g406">
      <g
         clip-path="url(#clipPath410)"
         id="g408">
        <g
           transform="translate(393.7997,42.2122)"
           id="g414">
          <path
             d="m 0,0 1.11,0 c 0.433,0 0.77,0.15 1.006,0.449 0.238,0.3 0.356,0.722 0.356,1.272 0,0.551 -0.115,0.976 -0.342,1.277 -0.228,0.299 -0.55,0.45 -0.97,0.45 L 0,3.448 0,0 z m -0.604,3.964 1.838,0 C 1.803,3.964 2.255,3.76 2.591,3.356 2.927,2.951 3.095,2.406 3.095,1.721 3.095,1.038 2.922,0.495 2.58,0.091 2.235,-0.314 1.771,-0.516 1.186,-0.516 l -1.79,0 0,4.48 z"
             id="path416"
             style="fill:#000000;fill-opacity:1;fill-rule:nonzero;stroke:none" />
        </g>
        <g
           transform="translate(400.3075,42.2122)"
           id="g418">
          <path
             d="M 0,0 1.235,0 C 1.583,0 1.838,0.069 2,0.202 2.161,0.337 2.242,0.548 2.242,0.836 2.242,1.089 2.157,1.274 1.989,1.391 1.819,1.507 1.555,1.565 1.193,1.565 L 0,1.565 0,0 z m 0,2.058 1.081,0 c 0.329,0 0.571,0.059 0.722,0.179 0.153,0.118 0.231,0.305 0.231,0.56 0,0.224 -0.071,0.388 -0.212,0.494 -0.14,0.104 -0.36,0.157 -0.661,0.157 L 0,3.448 0,2.058 z m -0.605,1.906 1.968,0 C 1.745,3.964 2.053,3.865 2.287,3.67 2.521,3.474 2.638,3.216 2.638,2.895 2.638,2.523 2.498,2.233 2.223,2.024 2.159,1.975 2.091,1.933 2.019,1.899 2.167,1.846 2.296,1.78 2.406,1.701 2.7,1.488 2.847,1.192 2.847,0.813 2.847,0.397 2.704,0.071 2.418,-0.163 2.133,-0.398 1.737,-0.516 1.228,-0.516 l -1.833,0 0,4.48 z"
             id="path420"
             style="fill:#000000;fill-opacity:1;fill-rule:nonzero;stroke:none" />
        </g>
      </g>
    </g>
    <g
       transform="matrix(1.25,0,0,-1.25,236.29176,1048.1528)"
       id="g422">
      <path
         d="m 0,0 1.412,0 -0.691,1.989 0.001,0 L 0,0 z m 0.404,2.647 0.691,0 1.609,-4.48 -0.65,0 -0.457,1.297 -1.79,0 -0.47,-1.297 -0.625,0 1.692,4.48 z"
         id="path424"
         style="fill:#000000;fill-opacity:1;fill-rule:nonzero;stroke:none" />
    </g>
    <g
       transform="matrix(1.25,0,0,-1.25,241.29876,1050.4436)"
       id="g426">
      <path
         d="m 0,0 -0.585,0 0,4.48 0.728,0 2.24,-3.641 0,3.641 0.585,0 L 2.968,0 2.304,0 0,3.654 0,0 z"
         id="path428"
         style="fill:#000000;fill-opacity:1;fill-rule:nonzero;stroke:none" />
    </g>
    <g
       transform="matrix(1.25,0,0,-1.25,246.23726,1044.8439)"
       id="g430">
      <path
         d="m 0,0 0.605,0 0,-2.175 L 2.789,0 3.626,0 1.728,-1.829 3.663,-4.48 l -0.788,0 -1.592,2.217 -0.678,-0.653 0,-1.564 L 0,-4.48 0,0 z"
         id="path432"
         style="fill:#000000;fill-opacity:1;fill-rule:nonzero;stroke:none" />
    </g>
    <g
       transform="matrix(1.25,0,0,-1.25,-269.40624,1102.5642)"
       id="g434">
      <g
         clip-path="url(#clipPath438)"
         id="g436">
        <g
           transform="translate(418.0126,44.1592)"
           id="g442">
          <path
             d="M 0,0 C 0,-0.507 -0.085,-0.994 -0.255,-1.463 -0.427,-1.932 -0.697,-2.42 -1.068,-2.931 l -0.376,0 c 0.299,0.523 0.517,1.018 0.653,1.488 0.138,0.468 0.207,0.95 0.207,1.443 0,0.498 -0.069,0.981 -0.207,1.449 -0.136,0.471 -0.354,0.965 -0.653,1.484 l 0.376,0 C -0.697,2.425 -0.427,1.935 -0.255,1.465 -0.085,0.995 0,0.509 0,0"
             id="path444"
             style="fill:#000000;fill-opacity:1;fill-rule:nonzero;stroke:none" />
        </g>
      </g>
    </g>
  </g>
</svg>
